<svg width="8" height="8" viewBox="0 0 8 8" fill="none" xmlns="http://www.w3.org/2000/svg">
<path d="M4.35355 4.35355C4.54882 4.15829 4.54882 3.84171 4.35355 3.64645L1.17157 0.464466C0.976311 0.269204 0.659729 0.269204 0.464466 0.464466C0.269204 0.659728 0.269204 0.97631 0.464466 1.17157L3.29289 4L0.464466 6.82843C0.269204 7.02369 0.269204 7.34027 0.464466 7.53553C0.659728 7.7308 0.97631 7.7308 1.17157 7.53553L4.35355 4.35355ZM3 4.5L4 4.5L4 3.5L3 3.5L3 4.5Z" fill="#FCFCFC"/>
<path d="M7.35355 4.35355C7.54882 4.15829 7.54882 3.84171 7.35355 3.64645L4.17157 0.464466C3.97631 0.269204 3.65973 0.269204 3.46447 0.464466C3.2692 0.659728 3.2692 0.97631 3.46447 1.17157L6.29289 4L3.46447 6.82843C3.2692 7.02369 3.2692 7.34027 3.46447 7.53553C3.65973 7.7308 3.97631 7.7308 4.17157 7.53553L7.35355 4.35355ZM6 4.5L7 4.5L7 3.5L6 3.5L6 4.5Z" fill="#FCFCFC" fill-opacity="0.5"/>
</svg>
