<svg width="831" height="861" viewBox="0 0 831 861" fill="none" xmlns="http://www.w3.org/2000/svg">
<path d="M416.174 440.292C442.437 438.796 463.475 433.147 463.163 427.676C462.851 422.205 441.308 418.982 415.046 420.478C388.783 421.975 367.745 427.623 368.057 433.094C368.369 438.566 389.912 441.788 416.174 440.292Z" stroke="url(#paint0_linear_287_349)" stroke-width="1.32161" stroke-miterlimit="10"/>
<path d="M416.408 440.64C444.732 438.467 467.341 432.127 466.907 426.481C466.474 420.834 443.162 418.019 414.839 420.193C386.516 422.367 363.907 428.706 364.34 434.353C364.774 439.999 388.085 442.814 416.408 440.64Z" stroke="url(#paint1_linear_287_349)" stroke-width="1.32161" stroke-miterlimit="10"/>
<path d="M416.768 440.968C447.319 438.036 471.632 430.942 471.074 425.122C470.515 419.303 445.296 416.963 414.745 419.894C384.195 422.826 359.881 429.921 360.439 435.74C360.998 441.559 386.217 443.9 416.768 440.968Z" stroke="url(#paint2_linear_287_349)" stroke-width="1.32161" stroke-miterlimit="10"/>
<path d="M416.714 441.277C449.562 437.513 475.634 429.606 474.948 423.617C474.261 417.628 447.076 415.825 414.228 419.59C381.38 423.354 355.308 431.261 355.994 437.25C356.681 443.239 383.866 445.042 416.714 441.277Z" stroke="url(#paint3_linear_287_349)" stroke-width="1.32161" stroke-miterlimit="10"/>
<path d="M417.129 441.637C452.351 436.958 480.241 428.174 479.423 422.017C478.606 415.86 449.389 414.662 414.167 419.341C378.945 424.019 351.055 432.804 351.873 438.961C352.691 445.118 381.907 446.316 417.129 441.637Z" stroke="url(#paint4_linear_287_349)" stroke-width="1.32161" stroke-miterlimit="10"/>
<path d="M417.344 441.824C455.098 436.135 484.93 426.398 483.977 420.075C483.025 413.753 451.647 413.24 413.894 418.929C376.141 424.618 346.308 434.356 347.261 440.678C348.214 447 379.591 447.513 417.344 441.824Z" stroke="url(#paint5_linear_287_349)" stroke-width="1.32161" stroke-miterlimit="10"/>
<path d="M417.433 442.315C457.784 435.531 489.599 424.701 488.493 418.126C487.388 411.551 453.781 411.721 413.43 418.505C373.079 425.289 341.264 436.119 342.37 442.694C343.475 449.269 377.082 449.1 417.433 442.315Z" stroke="url(#paint6_linear_287_349)" stroke-width="1.32161" stroke-miterlimit="10"/>
<path d="M417.739 442.736C460.844 434.747 494.763 422.738 493.498 415.913C492.234 409.088 456.264 410.031 413.158 418.02C370.052 426.008 336.133 438.017 337.398 444.842C338.663 451.667 374.633 450.724 417.739 442.736Z" stroke="url(#paint7_linear_287_349)" stroke-width="1.32161" stroke-miterlimit="10"/>
<path d="M418.18 443.151C464.016 433.879 500.013 420.63 498.583 413.557C497.152 406.485 458.835 408.268 412.999 417.54C367.163 426.812 331.165 440.061 332.595 447.134C334.026 454.206 372.343 452.423 418.18 443.151Z" stroke="url(#paint8_linear_287_349)" stroke-width="1.32161" stroke-miterlimit="10"/>
<path d="M418.434 443.82C467.151 433.155 505.345 418.577 503.743 411.261C502.141 403.944 461.35 406.659 412.634 417.325C363.917 427.991 325.723 442.568 327.325 449.884C328.926 457.201 369.717 454.486 418.434 443.82Z" stroke="url(#paint9_linear_287_349)" stroke-width="1.32161" stroke-miterlimit="10"/>
<path d="M419.027 444.276C470.772 432.086 511.259 416.005 509.458 408.359C507.657 400.713 464.249 404.396 412.503 416.587C360.758 428.778 320.27 444.859 322.072 452.505C323.873 460.151 367.281 456.467 419.027 444.276Z" stroke="url(#paint10_linear_287_349)" stroke-width="1.32161" stroke-miterlimit="10"/>
<path d="M419.149 444.917C473.883 431.122 516.626 413.478 514.617 405.507C512.608 397.536 466.609 402.257 411.874 416.051C357.14 429.845 314.398 447.489 316.406 455.46C318.415 463.431 364.415 458.711 419.149 444.917Z" stroke="url(#paint11_linear_287_349)" stroke-width="1.32161" stroke-miterlimit="10"/>
<path d="M419.455 445.366C477.32 429.83 522.424 410.515 520.198 402.223C517.972 393.932 469.258 399.804 411.394 415.339C353.529 430.875 308.425 450.19 310.651 458.482C312.877 466.774 361.591 460.901 419.455 445.366Z" stroke="url(#paint12_linear_287_349)" stroke-width="1.32161" stroke-miterlimit="10"/>
<path d="M420.052 445.926C481.102 428.532 528.605 407.453 526.152 398.844C523.7 390.236 472.221 397.358 411.17 414.752C350.12 432.146 302.617 453.225 305.07 461.833C307.523 470.442 359.002 463.32 420.052 445.926Z" stroke="url(#paint13_linear_287_349)" stroke-width="1.32161" stroke-miterlimit="10"/>
<path d="M420.553 446.781C484.921 427.387 534.901 404.362 532.187 395.354C529.472 386.346 475.092 394.766 410.724 414.161C346.356 433.555 296.376 456.58 299.09 465.588C301.804 474.596 356.185 466.176 420.553 446.781Z" stroke="url(#paint14_linear_287_349)" stroke-width="1.32161" stroke-miterlimit="10"/>
<path d="M421.015 447.624C488.649 426.127 541.034 401.009 538.018 391.521C535.002 382.033 477.729 391.768 410.094 413.264C342.459 434.761 290.075 459.879 293.091 469.367C296.106 478.855 353.38 469.12 421.015 447.624Z" stroke="url(#paint15_linear_287_349)" stroke-width="1.32161" stroke-miterlimit="10"/>
<path d="M421.751 448.452C492.696 424.72 547.507 397.406 544.175 387.444C540.842 377.482 480.629 388.645 409.684 412.377C338.739 436.109 283.928 463.423 287.26 473.385C290.593 483.347 350.806 472.184 421.751 448.452Z" stroke="url(#paint16_linear_287_349)" stroke-width="1.32161" stroke-miterlimit="10"/>
<path d="M422.349 449.28C496.634 423.181 553.883 393.569 550.22 383.142C546.556 372.714 483.366 385.419 409.081 411.519C334.797 437.619 277.547 467.231 281.21 477.658C284.874 488.085 348.064 475.38 422.349 449.28Z" stroke="url(#paint17_linear_287_349)" stroke-width="1.32161" stroke-miterlimit="10"/>
<path d="M422.847 450.356C500.583 421.721 560.325 389.615 556.284 378.644C552.243 367.674 485.949 381.994 408.213 410.629C330.477 439.263 270.736 471.37 274.777 482.34C278.818 493.311 345.112 478.991 422.847 450.356Z" stroke="url(#paint18_linear_287_349)" stroke-width="1.32161" stroke-miterlimit="10"/>
<path d="M423.656 451.294C504.699 420.034 566.8 385.366 562.363 373.861C557.925 362.356 488.629 378.372 407.586 409.632C326.542 440.893 264.441 475.561 268.878 487.065C273.316 498.57 342.612 482.555 423.656 451.294Z" stroke="url(#paint19_linear_287_349)" stroke-width="1.32161" stroke-miterlimit="10"/>
<path d="M424.506 452.418C508.955 418.346 573.425 380.838 568.504 368.64C563.583 356.443 491.134 374.176 406.685 408.248C322.236 442.32 257.765 479.829 262.686 492.027C267.608 504.224 340.057 486.491 424.506 452.418Z" stroke="url(#paint20_linear_287_349)" stroke-width="1.32161" stroke-miterlimit="10"/>
<path d="M425.367 453.602C513.153 416.599 579.946 376.232 574.553 363.438C569.16 350.645 493.624 370.271 405.838 407.274C318.052 444.277 251.259 484.645 256.652 497.438C262.044 510.231 337.581 490.605 425.367 453.602Z" stroke="url(#paint21_linear_287_349)" stroke-width="1.32161" stroke-miterlimit="10"/>
<path d="M426.372 454.774C517.409 414.704 586.377 371.242 580.416 357.699C574.455 344.156 495.823 365.661 404.785 405.731C313.748 445.802 244.78 489.264 250.741 502.806C256.702 516.349 335.334 494.844 426.372 454.774Z" stroke="url(#paint22_linear_287_349)" stroke-width="1.32161" stroke-miterlimit="10"/>
<path d="M427.55 456.503C521.846 413.206 592.943 366.467 586.349 352.106C579.756 337.746 497.968 361.203 403.672 404.5C309.376 447.796 238.279 494.536 244.873 508.896C251.466 523.256 333.253 499.799 427.55 456.503Z" stroke="url(#paint23_linear_287_349)" stroke-width="1.32161" stroke-miterlimit="10"/>
<path d="M428.63 457.881C525.998 411.252 599.046 361.164 591.787 346.007C584.529 330.85 499.712 356.363 402.344 402.992C304.976 449.621 231.928 499.709 239.187 514.866C246.445 530.023 331.262 504.51 428.63 457.881Z" stroke="url(#paint24_linear_287_349)" stroke-width="1.32161" stroke-miterlimit="10"/>
<path d="M430.182 459.388C530.609 409.233 605.505 355.525 597.465 339.427C589.426 323.329 501.496 350.938 401.068 401.093C300.641 451.248 225.746 504.956 233.785 521.054C241.825 537.152 329.755 509.543 430.182 459.388Z" stroke="url(#paint25_linear_287_349)" stroke-width="1.32161" stroke-miterlimit="10"/>
<path d="M431.707 461.306C535.004 407.531 611.528 350.08 602.629 332.985C593.729 315.89 502.777 345.626 399.48 399.401C296.184 453.176 219.66 510.627 228.559 527.722C237.458 544.817 328.411 515.081 431.707 461.306Z" stroke="url(#paint26_linear_287_349)" stroke-width="1.32161" stroke-miterlimit="10"/>
<path d="M433.423 463.482C539.469 405.936 617.42 344.512 607.532 326.289C597.643 308.066 503.659 339.944 397.612 397.491C291.566 455.037 213.615 516.46 223.503 534.683C233.392 552.906 327.376 521.028 433.423 463.482Z" stroke="url(#paint27_linear_287_349)" stroke-width="1.32161" stroke-miterlimit="10"/>
<path d="M435.316 465.363C543.822 403.965 622.924 338.533 611.994 319.217C601.063 299.9 504.241 334.014 395.734 395.411C287.227 456.809 208.126 522.241 219.056 541.558C229.986 560.874 326.809 526.761 435.316 465.363Z" stroke="url(#paint28_linear_287_349)" stroke-width="1.32161" stroke-miterlimit="10"/>
<path d="M437.478 467.645C548.305 402.239 628.29 332.51 616.127 311.902C603.965 291.294 504.262 327.61 393.435 393.017C282.607 458.423 202.623 528.152 214.785 548.76C226.947 569.368 326.65 533.052 437.478 467.645Z" stroke="url(#paint29_linear_287_349)" stroke-width="1.32161" stroke-miterlimit="10"/>
<path d="M440.154 470.147C553.085 400.608 633.646 326.393 620.092 304.382C606.539 282.371 504.003 320.901 391.073 390.44C278.142 459.979 197.581 534.195 211.134 556.205C224.688 578.216 327.223 539.686 440.154 470.147Z" stroke="url(#paint30_linear_287_349)" stroke-width="1.32161" stroke-miterlimit="10"/>
<path d="M442.979 472.768C557.774 398.979 638.621 320.163 623.557 296.728C608.493 273.292 503.222 314.112 388.428 387.901C273.634 461.69 192.786 540.506 207.85 563.941C222.914 587.376 328.185 546.556 442.979 472.768Z" stroke="url(#paint31_linear_287_349)" stroke-width="1.32161" stroke-miterlimit="10"/>
<path d="M446.193 475.792C562.443 397.733 643.018 314.107 626.164 289.006C609.31 263.906 501.408 306.838 385.159 384.896C268.91 462.955 188.334 546.582 205.188 571.682C222.042 596.782 329.944 553.851 446.193 475.792Z" stroke="url(#paint32_linear_287_349)" stroke-width="1.32161" stroke-miterlimit="10"/>
<path d="M449.666 478.913C567.113 396.469 647.092 307.939 628.305 281.176C609.518 254.412 499.078 299.549 381.631 381.992C264.185 464.436 184.205 552.966 202.992 579.73C221.78 606.494 332.219 561.356 449.666 478.913Z" stroke="url(#paint33_linear_287_349)" stroke-width="1.32161" stroke-miterlimit="10"/>
<path d="M453.542 482.16C571.824 395.26 650.658 301.603 629.623 272.971C608.587 244.339 495.648 291.574 377.366 378.474C259.083 465.374 180.249 559.031 201.285 587.663C222.32 616.296 335.26 569.06 453.542 482.16Z" stroke="url(#paint34_linear_287_349)" stroke-width="1.32161" stroke-miterlimit="10"/>
<path d="M458.312 486.096C577.093 394.686 654.238 295.703 630.619 265.013C607.001 234.322 491.563 283.545 372.782 374.956C254.001 466.366 176.857 565.348 200.476 596.039C224.094 626.729 339.531 577.506 458.312 486.096Z" stroke="url(#paint35_linear_287_349)" stroke-width="1.32161" stroke-miterlimit="10"/>
<path d="M463.636 489.935C582.467 394.006 657.309 289.622 630.803 256.787C604.296 223.952 486.477 275.101 367.647 371.031C248.816 466.96 173.973 571.344 200.48 604.179C226.987 637.014 344.806 585.865 463.636 489.935Z" stroke="url(#paint36_linear_287_349)" stroke-width="1.32161" stroke-miterlimit="10"/>
<path d="M469.71 494.125C588.207 393.633 660.082 283.65 630.248 248.47C600.413 213.29 480.167 266.236 361.67 366.727C243.173 467.219 171.298 577.203 201.132 612.382C230.967 647.562 351.213 594.617 469.71 494.125Z" stroke="url(#paint37_linear_287_349)" stroke-width="1.32161" stroke-miterlimit="10"/>
<path d="M476.29 498.448C593.982 393.427 662.178 277.796 628.61 240.178C595.043 202.56 472.422 257.201 354.73 362.222C237.038 467.243 168.841 582.874 202.409 620.492C235.977 658.11 358.597 603.469 476.29 498.448Z" stroke="url(#paint38_linear_287_349)" stroke-width="1.32161" stroke-miterlimit="10"/>
<path d="M484.127 503.476C600.563 393.98 664.214 272.529 626.297 232.209C588.38 191.889 463.252 247.968 346.817 357.465C230.381 466.962 166.729 588.412 204.646 628.732C242.564 669.052 367.691 612.973 484.127 503.476Z" stroke="url(#paint39_linear_287_349)" stroke-width="1.32161" stroke-miterlimit="10"/>
<path d="M492.993 508.384C607.699 394.464 665.989 267.178 623.189 224.083C580.389 180.987 452.705 238.401 338 352.32C223.294 466.24 165.003 593.526 207.803 636.621C250.604 679.717 378.287 622.303 492.993 508.384Z" stroke="url(#paint40_linear_287_349)" stroke-width="1.32161" stroke-miterlimit="10"/>
<path d="M503.2 513.896C615.712 395.658 667.658 262.446 619.225 216.358C570.792 170.271 440.32 228.76 327.808 346.997C215.296 465.235 163.349 598.447 211.782 644.535C260.216 690.623 390.688 632.134 503.2 513.896Z" stroke="url(#paint41_linear_287_349)" stroke-width="1.32161" stroke-miterlimit="10"/>
<path d="M514.904 519.528C624.755 397.084 669.33 257.922 614.465 208.7C559.6 159.477 426.072 218.834 316.221 341.278C206.37 463.721 161.796 602.883 216.661 652.105C271.525 701.328 405.054 641.971 514.904 519.528Z" stroke="url(#paint42_linear_287_349)" stroke-width="1.32161" stroke-miterlimit="10"/>
<path d="M528.041 525.347C634.82 398.787 670.96 253.649 608.762 201.173C546.564 148.696 409.582 208.752 302.803 335.312C196.023 461.872 159.883 607.01 222.081 659.486C284.279 711.963 421.262 651.906 528.041 525.347Z" stroke="url(#paint43_linear_287_349)" stroke-width="1.32161" stroke-miterlimit="10"/>
<path d="M543.307 531.508C646.585 401.017 673.121 249.97 602.576 194.136C532.03 138.302 391.118 198.824 287.839 329.315C184.561 459.806 158.025 610.852 228.571 666.686C299.116 722.52 440.028 661.999 543.307 531.508Z" stroke="url(#paint44_linear_287_349)" stroke-width="1.32161" stroke-miterlimit="10"/>
<path d="M560.43 537.633C659.767 403.436 675.427 246.63 595.408 187.397C515.389 128.164 369.993 188.935 270.655 323.132C171.318 457.329 155.658 614.135 235.677 673.368C315.696 732.6 461.093 671.83 560.43 537.633Z" stroke="url(#paint45_linear_287_349)" stroke-width="1.32161" stroke-miterlimit="10"/>
<path d="M580.041 544.001C675.141 406.219 678.564 243.675 587.687 180.949C496.809 118.223 346.044 179.068 250.943 316.851C155.843 454.633 152.42 617.177 243.297 679.903C334.175 742.629 484.94 681.784 580.041 544.001Z" stroke="url(#paint46_linear_287_349)" stroke-width="1.32161" stroke-miterlimit="10"/>
<path d="M602.275 550.033C692.815 408.875 682.633 240.836 579.532 174.706C476.432 108.576 319.455 169.398 228.915 310.556C138.375 451.714 148.557 619.753 251.658 685.883C354.758 752.013 511.735 691.191 602.275 550.033Z" stroke="url(#paint47_linear_287_349)" stroke-width="1.32161" stroke-miterlimit="10"/>
<path d="M627.121 556.105C712.801 411.853 687.472 238.614 570.546 169.165C453.621 99.7165 289.377 160.357 203.697 304.609C118.017 448.861 143.347 622.1 260.272 691.549C377.197 760.998 541.441 700.357 627.121 556.105Z" stroke="url(#paint48_linear_287_349)" stroke-width="1.32161" stroke-miterlimit="10"/>
<path d="M655.539 561.78C736.216 414.552 694.213 236.345 561.723 163.745C429.233 91.1448 256.427 151.643 175.751 298.872C95.0742 446.101 137.077 624.307 269.567 696.907C402.057 769.508 574.862 709.009 655.539 561.78Z" stroke="url(#paint49_linear_287_349)" stroke-width="1.32161" stroke-miterlimit="10"/>
<path d="M288.457 706.525C440.949 776.733 621.483 710.028 691.691 557.536C761.899 405.044 695.194 224.51 542.702 154.302C390.21 84.0944 209.676 150.799 139.468 303.291C69.2601 455.783 135.965 636.317 288.457 706.525Z" stroke="url(#paint50_linear_287_349)" stroke-width="1.32161" stroke-miterlimit="10"/>
<defs>
<linearGradient id="paint0_linear_287_349" x1="453.677" y1="418.858" x2="453.001" y2="441.396" gradientUnits="userSpaceOnUse">
<stop offset="0.109375" stop-color="#F4AD77"/>
<stop offset="0.348958" stop-color="#E9565E"/>
<stop offset="0.651042" stop-color="#A64A97"/>
<stop offset="0.932292" stop-color="#3A49F7"/>
</linearGradient>
<linearGradient id="paint1_linear_287_349" x1="456.511" y1="417.596" x2="456.358" y2="440.902" gradientUnits="userSpaceOnUse">
<stop offset="0.109375" stop-color="#F4AD77"/>
<stop offset="0.348958" stop-color="#E9565E"/>
<stop offset="0.651042" stop-color="#A64A97"/>
<stop offset="0.932292" stop-color="#3A49F7"/>
</linearGradient>
<linearGradient id="paint2_linear_287_349" x1="459.705" y1="416.201" x2="460.095" y2="440.265" gradientUnits="userSpaceOnUse">
<stop offset="0.109375" stop-color="#F4AD77"/>
<stop offset="0.348958" stop-color="#E9565E"/>
<stop offset="0.651042" stop-color="#A64A97"/>
<stop offset="0.932292" stop-color="#3A49F7"/>
</linearGradient>
<linearGradient id="paint3_linear_287_349" x1="462.577" y1="414.691" x2="463.521" y2="439.496" gradientUnits="userSpaceOnUse">
<stop offset="0.109375" stop-color="#F4AD77"/>
<stop offset="0.348958" stop-color="#E9565E"/>
<stop offset="0.651042" stop-color="#A64A97"/>
<stop offset="0.932292" stop-color="#3A49F7"/>
</linearGradient>
<linearGradient id="paint4_linear_287_349" x1="466.019" y1="413.115" x2="467.531" y2="438.654" gradientUnits="userSpaceOnUse">
<stop offset="0.109375" stop-color="#F4AD77"/>
<stop offset="0.348958" stop-color="#E9565E"/>
<stop offset="0.651042" stop-color="#A64A97"/>
<stop offset="0.932292" stop-color="#3A49F7"/>
</linearGradient>
<linearGradient id="paint5_linear_287_349" x1="469.48" y1="411.237" x2="471.577" y2="437.494" gradientUnits="userSpaceOnUse">
<stop offset="0.109375" stop-color="#F4AD77"/>
<stop offset="0.348958" stop-color="#E9565E"/>
<stop offset="0.651042" stop-color="#A64A97"/>
<stop offset="0.932292" stop-color="#3A49F7"/>
</linearGradient>
<linearGradient id="paint6_linear_287_349" x1="472.85" y1="409.23" x2="475.553" y2="436.569" gradientUnits="userSpaceOnUse">
<stop offset="0.109375" stop-color="#F4AD77"/>
<stop offset="0.348958" stop-color="#E9565E"/>
<stop offset="0.651042" stop-color="#A64A97"/>
<stop offset="0.932292" stop-color="#3A49F7"/>
</linearGradient>
<linearGradient id="paint7_linear_287_349" x1="476.644" y1="407.001" x2="479.988" y2="435.41" gradientUnits="userSpaceOnUse">
<stop offset="0.109375" stop-color="#F4AD77"/>
<stop offset="0.348958" stop-color="#E9565E"/>
<stop offset="0.651042" stop-color="#A64A97"/>
<stop offset="0.932292" stop-color="#3A49F7"/>
</linearGradient>
<linearGradient id="paint8_linear_287_349" x1="480.515" y1="404.661" x2="484.523" y2="434.128" gradientUnits="userSpaceOnUse">
<stop offset="0.109375" stop-color="#F4AD77"/>
<stop offset="0.348958" stop-color="#E9565E"/>
<stop offset="0.651042" stop-color="#A64A97"/>
<stop offset="0.932292" stop-color="#3A49F7"/>
</linearGradient>
<linearGradient id="paint9_linear_287_349" x1="484.401" y1="402.424" x2="489.101" y2="432.935" gradientUnits="userSpaceOnUse">
<stop offset="0.109375" stop-color="#F4AD77"/>
<stop offset="0.348958" stop-color="#E9565E"/>
<stop offset="0.651042" stop-color="#A64A97"/>
<stop offset="0.932292" stop-color="#3A49F7"/>
</linearGradient>
<linearGradient id="paint10_linear_287_349" x1="488.743" y1="399.48" x2="494.211" y2="431.396" gradientUnits="userSpaceOnUse">
<stop offset="0.109375" stop-color="#F4AD77"/>
<stop offset="0.348958" stop-color="#E9565E"/>
<stop offset="0.651042" stop-color="#A64A97"/>
<stop offset="0.932292" stop-color="#3A49F7"/>
</linearGradient>
<linearGradient id="paint11_linear_287_349" x1="492.529" y1="396.621" x2="498.798" y2="429.923" gradientUnits="userSpaceOnUse">
<stop offset="0.109375" stop-color="#F4AD77"/>
<stop offset="0.348958" stop-color="#E9565E"/>
<stop offset="0.651042" stop-color="#A64A97"/>
<stop offset="0.932292" stop-color="#3A49F7"/>
</linearGradient>
<linearGradient id="paint12_linear_287_349" x1="496.672" y1="393.384" x2="503.789" y2="428.054" gradientUnits="userSpaceOnUse">
<stop offset="0.109375" stop-color="#F4AD77"/>
<stop offset="0.348958" stop-color="#E9565E"/>
<stop offset="0.651042" stop-color="#A64A97"/>
<stop offset="0.932292" stop-color="#3A49F7"/>
</linearGradient>
<linearGradient id="paint13_linear_287_349" x1="501.155" y1="390.099" x2="509.161" y2="426.123" gradientUnits="userSpaceOnUse">
<stop offset="0.109375" stop-color="#F4AD77"/>
<stop offset="0.348958" stop-color="#E9565E"/>
<stop offset="0.651042" stop-color="#A64A97"/>
<stop offset="0.932292" stop-color="#3A49F7"/>
</linearGradient>
<linearGradient id="paint14_linear_287_349" x1="505.612" y1="386.61" x2="514.614" y2="424.339" gradientUnits="userSpaceOnUse">
<stop offset="0.109375" stop-color="#F4AD77"/>
<stop offset="0.348958" stop-color="#E9565E"/>
<stop offset="0.651042" stop-color="#A64A97"/>
<stop offset="0.932292" stop-color="#3A49F7"/>
</linearGradient>
<linearGradient id="paint15_linear_287_349" x1="509.815" y1="382.675" x2="519.937" y2="422.453" gradientUnits="userSpaceOnUse">
<stop offset="0.109375" stop-color="#F4AD77"/>
<stop offset="0.348958" stop-color="#E9565E"/>
<stop offset="0.651042" stop-color="#A64A97"/>
<stop offset="0.932292" stop-color="#3A49F7"/>
</linearGradient>
<linearGradient id="paint16_linear_287_349" x1="514.304" y1="378.553" x2="525.612" y2="420.358" gradientUnits="userSpaceOnUse">
<stop offset="0.109375" stop-color="#F4AD77"/>
<stop offset="0.348958" stop-color="#E9565E"/>
<stop offset="0.651042" stop-color="#A64A97"/>
<stop offset="0.932292" stop-color="#3A49F7"/>
</linearGradient>
<linearGradient id="paint17_linear_287_349" x1="518.645" y1="374.264" x2="531.205" y2="418.066" gradientUnits="userSpaceOnUse">
<stop offset="0.109375" stop-color="#F4AD77"/>
<stop offset="0.348958" stop-color="#E9565E"/>
<stop offset="0.651042" stop-color="#A64A97"/>
<stop offset="0.932292" stop-color="#3A49F7"/>
</linearGradient>
<linearGradient id="paint18_linear_287_349" x1="522.889" y1="369.705" x2="536.856" y2="415.836" gradientUnits="userSpaceOnUse">
<stop offset="0.109375" stop-color="#F4AD77"/>
<stop offset="0.348958" stop-color="#E9565E"/>
<stop offset="0.651042" stop-color="#A64A97"/>
<stop offset="0.932292" stop-color="#3A49F7"/>
</linearGradient>
<linearGradient id="paint19_linear_287_349" x1="527.164" y1="364.906" x2="542.617" y2="413.336" gradientUnits="userSpaceOnUse">
<stop offset="0.109375" stop-color="#F4AD77"/>
<stop offset="0.348958" stop-color="#E9565E"/>
<stop offset="0.651042" stop-color="#A64A97"/>
<stop offset="0.932292" stop-color="#3A49F7"/>
</linearGradient>
<linearGradient id="paint20_linear_287_349" x1="531.32" y1="359.463" x2="548.539" y2="410.877" gradientUnits="userSpaceOnUse">
<stop offset="0.109375" stop-color="#F4AD77"/>
<stop offset="0.348958" stop-color="#E9565E"/>
<stop offset="0.651042" stop-color="#A64A97"/>
<stop offset="0.932292" stop-color="#3A49F7"/>
</linearGradient>
<linearGradient id="paint21_linear_287_349" x1="535.427" y1="354.244" x2="554.409" y2="408.236" gradientUnits="userSpaceOnUse">
<stop offset="0.109375" stop-color="#F4AD77"/>
<stop offset="0.348958" stop-color="#E9565E"/>
<stop offset="0.651042" stop-color="#A64A97"/>
<stop offset="0.932292" stop-color="#3A49F7"/>
</linearGradient>
<linearGradient id="paint22_linear_287_349" x1="539.213" y1="348.273" x2="560.271" y2="405.514" gradientUnits="userSpaceOnUse">
<stop offset="0.109375" stop-color="#F4AD77"/>
<stop offset="0.348958" stop-color="#E9565E"/>
<stop offset="0.651042" stop-color="#A64A97"/>
<stop offset="0.932292" stop-color="#3A49F7"/>
</linearGradient>
<linearGradient id="paint23_linear_287_349" x1="542.956" y1="342.387" x2="566.316" y2="403.181" gradientUnits="userSpaceOnUse">
<stop offset="0.109375" stop-color="#F4AD77"/>
<stop offset="0.348958" stop-color="#E9565E"/>
<stop offset="0.651042" stop-color="#A64A97"/>
<stop offset="0.932292" stop-color="#3A49F7"/>
</linearGradient>
<linearGradient id="paint24_linear_287_349" x1="546.213" y1="336.065" x2="572.008" y2="400.342" gradientUnits="userSpaceOnUse">
<stop offset="0.109375" stop-color="#F4AD77"/>
<stop offset="0.348958" stop-color="#E9565E"/>
<stop offset="0.651042" stop-color="#A64A97"/>
<stop offset="0.932292" stop-color="#3A49F7"/>
</linearGradient>
<linearGradient id="paint25_linear_287_349" x1="549.517" y1="329.084" x2="578.135" y2="397.485" gradientUnits="userSpaceOnUse">
<stop offset="0.109375" stop-color="#F4AD77"/>
<stop offset="0.348958" stop-color="#E9565E"/>
<stop offset="0.651042" stop-color="#A64A97"/>
<stop offset="0.932292" stop-color="#3A49F7"/>
</linearGradient>
<linearGradient id="paint26_linear_287_349" x1="552.236" y1="322.177" x2="583.953" y2="394.971" gradientUnits="userSpaceOnUse">
<stop offset="0.109375" stop-color="#F4AD77"/>
<stop offset="0.348958" stop-color="#E9565E"/>
<stop offset="0.651042" stop-color="#A64A97"/>
<stop offset="0.932292" stop-color="#3A49F7"/>
</linearGradient>
<linearGradient id="paint27_linear_287_349" x1="554.514" y1="314.844" x2="589.766" y2="392.636" gradientUnits="userSpaceOnUse">
<stop offset="0.109375" stop-color="#F4AD77"/>
<stop offset="0.348958" stop-color="#E9565E"/>
<stop offset="0.651042" stop-color="#A64A97"/>
<stop offset="0.932292" stop-color="#3A49F7"/>
</linearGradient>
<linearGradient id="paint28_linear_287_349" x1="556.362" y1="307.22" x2="595.35" y2="389.897" gradientUnits="userSpaceOnUse">
<stop offset="0.109375" stop-color="#F4AD77"/>
<stop offset="0.348958" stop-color="#E9565E"/>
<stop offset="0.651042" stop-color="#A64A97"/>
<stop offset="0.932292" stop-color="#3A49F7"/>
</linearGradient>
<linearGradient id="paint29_linear_287_349" x1="557.604" y1="299.07" x2="600.955" y2="387.55" gradientUnits="userSpaceOnUse">
<stop offset="0.109375" stop-color="#F4AD77"/>
<stop offset="0.348958" stop-color="#E9565E"/>
<stop offset="0.651042" stop-color="#A64A97"/>
<stop offset="0.932292" stop-color="#3A49F7"/>
</linearGradient>
<linearGradient id="paint30_linear_287_349" x1="558.48" y1="290.568" x2="606.728" y2="385.401" gradientUnits="userSpaceOnUse">
<stop offset="0.109375" stop-color="#F4AD77"/>
<stop offset="0.348958" stop-color="#E9565E"/>
<stop offset="0.651042" stop-color="#A64A97"/>
<stop offset="0.932292" stop-color="#3A49F7"/>
</linearGradient>
<linearGradient id="paint31_linear_287_349" x1="558.734" y1="281.934" x2="612.297" y2="383.291" gradientUnits="userSpaceOnUse">
<stop offset="0.109375" stop-color="#F4AD77"/>
<stop offset="0.348958" stop-color="#E9565E"/>
<stop offset="0.651042" stop-color="#A64A97"/>
<stop offset="0.932292" stop-color="#3A49F7"/>
</linearGradient>
<linearGradient id="paint32_linear_287_349" x1="557.793" y1="272.83" x2="617.555" y2="381.886" gradientUnits="userSpaceOnUse">
<stop offset="0.109375" stop-color="#F4AD77"/>
<stop offset="0.348958" stop-color="#E9565E"/>
<stop offset="0.651042" stop-color="#A64A97"/>
<stop offset="0.932292" stop-color="#3A49F7"/>
</linearGradient>
<linearGradient id="paint33_linear_287_349" x1="556.23" y1="263.658" x2="622.687" y2="380.522" gradientUnits="userSpaceOnUse">
<stop offset="0.109375" stop-color="#F4AD77"/>
<stop offset="0.348958" stop-color="#E9565E"/>
<stop offset="0.651042" stop-color="#A64A97"/>
<stop offset="0.932292" stop-color="#3A49F7"/>
</linearGradient>
<linearGradient id="paint34_linear_287_349" x1="553.43" y1="253.788" x2="627.579" y2="379.54" gradientUnits="userSpaceOnUse">
<stop offset="0.109375" stop-color="#F4AD77"/>
<stop offset="0.348958" stop-color="#E9565E"/>
<stop offset="0.651042" stop-color="#A64A97"/>
<stop offset="0.932292" stop-color="#3A49F7"/>
</linearGradient>
<linearGradient id="paint35_linear_287_349" x1="549.853" y1="243.858" x2="632.737" y2="379.561" gradientUnits="userSpaceOnUse">
<stop offset="0.109375" stop-color="#F4AD77"/>
<stop offset="0.348958" stop-color="#E9565E"/>
<stop offset="0.651042" stop-color="#A64A97"/>
<stop offset="0.932292" stop-color="#3A49F7"/>
</linearGradient>
<linearGradient id="paint36_linear_287_349" x1="545.095" y1="233.518" x2="637.667" y2="379.816" gradientUnits="userSpaceOnUse">
<stop offset="0.109375" stop-color="#F4AD77"/>
<stop offset="0.348958" stop-color="#E9565E"/>
<stop offset="0.651042" stop-color="#A64A97"/>
<stop offset="0.932292" stop-color="#3A49F7"/>
</linearGradient>
<linearGradient id="paint37_linear_287_349" x1="538.981" y1="222.758" x2="642.566" y2="380.905" gradientUnits="userSpaceOnUse">
<stop offset="0.109375" stop-color="#F4AD77"/>
<stop offset="0.348958" stop-color="#E9565E"/>
<stop offset="0.651042" stop-color="#A64A97"/>
<stop offset="0.932292" stop-color="#3A49F7"/>
</linearGradient>
<linearGradient id="paint38_linear_287_349" x1="531.253" y1="211.854" x2="647.058" y2="382.688" gradientUnits="userSpaceOnUse">
<stop offset="0.109375" stop-color="#F4AD77"/>
<stop offset="0.348958" stop-color="#E9565E"/>
<stop offset="0.651042" stop-color="#A64A97"/>
<stop offset="0.932292" stop-color="#3A49F7"/>
</linearGradient>
<linearGradient id="paint39_linear_287_349" x1="521.953" y1="200.805" x2="651.722" y2="386.11" gradientUnits="userSpaceOnUse">
<stop offset="0.109375" stop-color="#F4AD77"/>
<stop offset="0.348958" stop-color="#E9565E"/>
<stop offset="0.651042" stop-color="#A64A97"/>
<stop offset="0.932292" stop-color="#3A49F7"/>
</linearGradient>
<linearGradient id="paint40_linear_287_349" x1="511.111" y1="189.454" x2="656.334" y2="390.246" gradientUnits="userSpaceOnUse">
<stop offset="0.109375" stop-color="#F4AD77"/>
<stop offset="0.348958" stop-color="#E9565E"/>
<stop offset="0.651042" stop-color="#A64A97"/>
<stop offset="0.932292" stop-color="#3A49F7"/>
</linearGradient>
<linearGradient id="paint41_linear_287_349" x1="498.291" y1="178.101" x2="660.951" y2="396.295" gradientUnits="userSpaceOnUse">
<stop offset="0.109375" stop-color="#F4AD77"/>
<stop offset="0.348958" stop-color="#E9565E"/>
<stop offset="0.651042" stop-color="#A64A97"/>
<stop offset="0.932292" stop-color="#3A49F7"/>
</linearGradient>
<linearGradient id="paint42_linear_287_349" x1="483.473" y1="166.532" x2="665.59" y2="403.932" gradientUnits="userSpaceOnUse">
<stop offset="0.109375" stop-color="#F4AD77"/>
<stop offset="0.348958" stop-color="#E9565E"/>
<stop offset="0.651042" stop-color="#A64A97"/>
<stop offset="0.932292" stop-color="#3A49F7"/>
</linearGradient>
<linearGradient id="paint43_linear_287_349" x1="466.316" y1="154.861" x2="670.061" y2="413.446" gradientUnits="userSpaceOnUse">
<stop offset="0.109375" stop-color="#F4AD77"/>
<stop offset="0.348958" stop-color="#E9565E"/>
<stop offset="0.651042" stop-color="#A64A97"/>
<stop offset="0.932292" stop-color="#3A49F7"/>
</linearGradient>
<linearGradient id="paint44_linear_287_349" x1="447.092" y1="143.442" x2="674.697" y2="425.472" gradientUnits="userSpaceOnUse">
<stop offset="0.109375" stop-color="#F4AD77"/>
<stop offset="0.348958" stop-color="#E9565E"/>
<stop offset="0.651042" stop-color="#A64A97"/>
<stop offset="0.932292" stop-color="#3A49F7"/>
</linearGradient>
<linearGradient id="paint45_linear_287_349" x1="425.118" y1="132.172" x2="678.843" y2="440.047" gradientUnits="userSpaceOnUse">
<stop offset="0.109375" stop-color="#F4AD77"/>
<stop offset="0.348958" stop-color="#E9565E"/>
<stop offset="0.651042" stop-color="#A64A97"/>
<stop offset="0.932292" stop-color="#3A49F7"/>
</linearGradient>
<linearGradient id="paint46_linear_287_349" x1="400.328" y1="120.991" x2="682.742" y2="457.917" gradientUnits="userSpaceOnUse">
<stop offset="0.109375" stop-color="#F4AD77"/>
<stop offset="0.348958" stop-color="#E9565E"/>
<stop offset="0.651042" stop-color="#A64A97"/>
<stop offset="0.932292" stop-color="#3A49F7"/>
</linearGradient>
<linearGradient id="paint47_linear_287_349" x1="372.891" y1="110.095" x2="686.092" y2="478.841" gradientUnits="userSpaceOnUse">
<stop offset="0.109375" stop-color="#F4AD77"/>
<stop offset="0.348958" stop-color="#E9565E"/>
<stop offset="0.651042" stop-color="#A64A97"/>
<stop offset="0.932292" stop-color="#3A49F7"/>
</linearGradient>
<linearGradient id="paint48_linear_287_349" x1="341.993" y1="99.9515" x2="687.966" y2="504.007" gradientUnits="userSpaceOnUse">
<stop offset="0.109375" stop-color="#F4AD77"/>
<stop offset="0.348958" stop-color="#E9565E"/>
<stop offset="0.651042" stop-color="#A64A97"/>
<stop offset="0.932292" stop-color="#3A49F7"/>
</linearGradient>
<linearGradient id="paint49_linear_287_349" x1="308.34" y1="90.1734" x2="688.858" y2="533.16" gradientUnits="userSpaceOnUse">
<stop offset="0.109375" stop-color="#F4AD77"/>
<stop offset="0.348958" stop-color="#E9565E"/>
<stop offset="0.651042" stop-color="#A64A97"/>
<stop offset="0.932292" stop-color="#3A49F7"/>
</linearGradient>
<linearGradient id="paint50_linear_287_349" x1="759.389" y1="273.622" x2="288.457" y2="706.525" gradientUnits="userSpaceOnUse">
<stop offset="0.109375" stop-color="#F4AD77"/>
<stop offset="0.348958" stop-color="#E9565E"/>
<stop offset="0.651042" stop-color="#A64A97"/>
<stop offset="0.932292" stop-color="#3A49F7"/>
</linearGradient>
</defs>
</svg>
