<svg width="500" height="78" viewBox="0 0 500 78" fill="none" xmlns="http://www.w3.org/2000/svg">
<path d="M8.15667 24.6719L8.02241 24.6182C7.9329 24.6003 7.81654 24.5466 7.67333 24.4571C7.53012 24.3675 7.38691 24.2333 7.2437 24.0543C7.10048 23.8574 6.98412 23.6157 6.89462 23.3293C6.80511 23.0249 6.76035 22.6401 6.76035 22.1746V6.27807C6.76035 5.81263 6.80511 5.4367 6.89462 5.15028C6.98412 4.84595 7.10048 4.60428 7.2437 4.42527C7.38691 4.24625 7.53012 4.11199 7.67333 4.02248C7.81654 3.93297 7.9329 3.87032 8.02241 3.83452L8.15667 3.80767H3.51123C3.52913 3.80767 3.60074 3.84347 3.72605 3.91507C3.85136 3.98668 3.99457 4.12094 4.15568 4.31786C4.3347 4.49687 4.49581 4.74749 4.63903 5.06972C4.78224 5.37405 4.87175 5.76788 4.90755 6.25122V22.2283C4.87175 22.7117 4.78224 23.1144 4.63903 23.4367C4.49581 23.741 4.3347 23.9916 4.15568 24.1885C3.99457 24.3675 3.84241 24.4929 3.6992 24.5645L3.51123 24.6719H8.15667Z" fill="black"/>
<path d="M7.32798 48.7693C7.05946 51.186 6.17333 52.7703 2.92421 52.7703V54.5157C4.58905 54.5157 5.66314 54.5157 6.79093 53.4416V67.3242H9.20764V48.7693H7.32798Z" fill="black"/>
<line x1="22.3657" y1="0.5" x2="22.3657" y2="77.5" stroke="#C4C4C4" stroke-linecap="round"/>
<line x1="22.3657" y1="0.5" x2="22.3657" y2="77.5" stroke="black" stroke-opacity="0.2" stroke-linecap="round"/>
<path d="M36.3661 24.6719L36.2319 24.6182C36.1424 24.6003 36.026 24.5466 35.8828 24.4571C35.7396 24.3675 35.5964 24.2333 35.4532 24.0543C35.31 23.8574 35.1936 23.6157 35.1041 23.3293C35.0146 23.0249 34.9698 22.6401 34.9698 22.1746V6.27807C34.9698 5.81263 35.0146 5.4367 35.1041 5.15028C35.1936 4.84595 35.31 4.60428 35.4532 4.42527C35.5964 4.24625 35.7396 4.11199 35.8828 4.02248C36.026 3.93297 36.1424 3.87032 36.2319 3.83452L36.3661 3.80767H31.7207C31.7386 3.80767 31.8102 3.84347 31.9355 3.91507C32.0608 3.98668 32.204 4.12094 32.3652 4.31786C32.5442 4.49687 32.7053 4.74749 32.8485 5.06972C32.9917 5.37405 33.0812 5.76788 33.117 6.25122V22.2283C33.0812 22.7117 32.9917 23.1144 32.8485 23.4367C32.7053 23.741 32.5442 23.9916 32.3652 24.1885C32.204 24.3675 32.0519 24.4929 31.9087 24.5645L31.7207 24.6719H36.3661ZM46.6195 24.6719L39.7722 6.25122C39.4858 5.60677 39.1635 5.10552 38.8055 4.74749C38.4475 4.38946 38.1431 4.13884 37.8925 3.99563L37.4897 3.80767H42.1352L42.0278 3.83452C41.8309 3.90612 41.6697 4.03143 41.5444 4.21045C41.4191 4.38946 41.3565 4.63113 41.3565 4.93546C41.3565 5.31139 41.446 5.76788 41.625 6.30493L46.9686 20.832L52.3122 6.30493C52.4912 5.80368 52.5807 5.39195 52.5807 5.06972C52.5807 4.51477 52.4375 4.13884 52.1511 3.94193L51.8289 3.80767H55.5076L55.1317 3.99563C54.8632 4.13884 54.5499 4.38946 54.1919 4.74749C53.8338 5.10552 53.5116 5.60677 53.2252 6.25122L46.6195 24.6719Z" fill="black"/>
<path d="M48.7774 67.3242V62.9742H51.3283V60.826H48.7774V48.7693H46.3607L37.4189 60.826V62.9742H46.3607V67.3242H48.7774ZM46.3607 52.1258V60.826H39.8893L46.3607 52.1258Z" fill="black"/>
<line x1="68.0752" y1="0.5" x2="68.0752" y2="77.5" stroke="#C4C4C4" stroke-linecap="round"/>
<line x1="68.0752" y1="0.5" x2="68.0752" y2="77.5" stroke="black" stroke-opacity="0.2" stroke-linecap="round"/>
<path d="M86.5595 24.6719L79.7121 6.25122C79.4257 5.60677 79.1035 5.10552 78.7454 4.74749C78.3874 4.38946 78.0831 4.13884 77.8325 3.99563L77.4297 3.80767H82.0751L81.9677 3.83452C81.7708 3.90612 81.6097 4.03143 81.4844 4.21045C81.3591 4.38946 81.2964 4.63113 81.2964 4.93546C81.2964 5.31139 81.3859 5.76788 81.5649 6.30493L86.9085 20.832L92.2521 6.30493C92.4312 5.80368 92.5207 5.39195 92.5207 5.06972C92.5207 4.51477 92.3774 4.13884 92.091 3.94193L91.7688 3.80767H95.4476L95.0716 3.99563C94.8031 4.13884 94.4898 4.38946 94.1318 4.74749C93.7738 5.10552 93.4515 5.60677 93.1651 6.25122L86.5595 24.6719Z" fill="black"/>
<path d="M87.9854 54.8648C85.9177 54.8648 84.5214 55.5092 83.5816 56.5833V56.5296L84.6825 50.9175H92.9262V48.7693H82.7223L80.789 58.7583H83.3668C84.3066 57.55 85.7566 57.0129 87.4215 57.0129C89.8113 57.0129 91.503 58.1944 91.503 60.9871C91.503 63.9677 89.7039 65.552 87.1529 65.552C84.2529 65.552 83.1788 63.7797 82.964 61.9806H80.5473C80.6547 64.9612 83.0177 67.7002 87.2604 67.7002C90.9928 67.7002 93.9197 64.9881 93.9197 60.9871C93.9197 57.55 91.4762 54.8648 87.9854 54.8648Z" fill="black"/>
<line x1="107.785" y1="0.5" x2="107.785" y2="77.5" stroke="#C4C4C4" stroke-linecap="round"/>
<line x1="107.785" y1="0.5" x2="107.785" y2="77.5" stroke="black" stroke-opacity="0.2" stroke-linecap="round"/>
<path d="M126.269 24.6719L119.422 6.25122C119.135 5.60677 118.813 5.10552 118.455 4.74749C118.097 4.38946 117.793 4.13884 117.542 3.99563L117.139 3.80767H121.785L121.677 3.83452C121.48 3.90612 121.319 4.03143 121.194 4.21045C121.069 4.38946 121.006 4.63113 121.006 4.93546C121.006 5.31139 121.095 5.76788 121.274 6.30493L126.618 20.832L131.962 6.30493C132.141 5.80368 132.23 5.39195 132.23 5.06972C132.23 4.51477 132.087 4.13884 131.8 3.94193L131.478 3.80767H135.157L134.781 3.99563C134.513 4.13884 134.199 4.38946 133.841 4.74749C133.483 5.10552 133.161 5.60677 132.875 6.25122L126.269 24.6719ZM141.268 24.6719L141.134 24.6182C141.044 24.6003 140.928 24.5466 140.785 24.4571C140.642 24.3675 140.498 24.2333 140.355 24.0543C140.212 23.8574 140.096 23.6157 140.006 23.3293C139.917 23.0249 139.872 22.6401 139.872 22.1746V6.27807C139.872 5.81263 139.917 5.4367 140.006 5.15028C140.096 4.84595 140.212 4.60428 140.355 4.42527C140.498 4.24625 140.642 4.11199 140.785 4.02248C140.928 3.93297 141.044 3.87032 141.134 3.83452L141.268 3.80767H136.623C136.641 3.80767 136.712 3.84347 136.838 3.91507C136.963 3.98668 137.106 4.12094 137.267 4.31786C137.446 4.49687 137.607 4.74749 137.751 5.06972C137.894 5.37405 137.983 5.76788 138.019 6.25122V22.2283C137.983 22.7117 137.894 23.1144 137.751 23.4367C137.607 23.741 137.446 23.9916 137.267 24.1885C137.106 24.3675 136.954 24.4929 136.811 24.5645L136.623 24.6719H141.268Z" fill="black"/>
<path d="M125.737 57.9796V57.9259C125.791 54.1935 126.516 50.5416 130.356 50.5416C132.45 50.5416 133.578 51.6693 133.82 53.4684H136.237C135.968 50.7564 133.82 48.3934 130.356 48.3934C125.737 48.3934 123.321 51.8573 123.321 58.0333C123.321 63.9408 125.2 67.7002 130.275 67.7002C134.303 67.7002 136.72 64.7733 136.72 61.3362C136.72 57.6574 134.25 55.2138 130.705 55.2138C128.53 55.2138 126.65 56.2342 125.737 57.9796ZM130.275 65.552C127.59 65.552 126.006 63.9408 126.006 61.551C126.006 59.0537 127.805 57.362 130.49 57.362C132.692 57.362 134.303 58.8389 134.303 61.4973C134.303 63.9677 132.826 65.552 130.275 65.552Z" fill="black"/>
<line x1="153.494" y1="0.5" x2="153.494" y2="77.5" stroke="#C4C4C4" stroke-linecap="round"/>
<line x1="153.494" y1="0.5" x2="153.494" y2="77.5" stroke="black" stroke-opacity="0.2" stroke-linecap="round"/>
<path d="M167.494 24.6719L167.36 24.6182C167.27 24.6003 167.154 24.5466 167.011 24.4571C166.868 24.3675 166.724 24.2333 166.581 24.0543C166.438 23.8574 166.322 23.6157 166.232 23.3293C166.143 23.0249 166.098 22.6401 166.098 22.1746V6.27807C166.098 5.81263 166.143 5.4367 166.232 5.15028C166.322 4.84595 166.438 4.60428 166.581 4.42527C166.724 4.24625 166.868 4.11199 167.011 4.02248C167.154 3.93297 167.27 3.87032 167.36 3.83452L167.494 3.80767H162.849C162.867 3.80767 162.938 3.84347 163.063 3.91507C163.189 3.98668 163.332 4.12094 163.493 4.31786C163.672 4.49687 163.833 4.74749 163.976 5.06972C164.12 5.37405 164.209 5.76788 164.245 6.25122V22.2283C164.209 22.7117 164.12 23.1144 163.976 23.4367C163.833 23.741 163.672 23.9916 163.493 24.1885C163.332 24.3675 163.18 24.4929 163.037 24.5645L162.849 24.6719H167.494ZM186.432 24.6719L186.19 24.5913C186.011 24.5555 185.778 24.4571 185.492 24.2959C185.223 24.1348 184.919 23.8932 184.579 23.5709C184.257 23.2308 183.935 22.7833 183.612 22.2283L178.698 13.743L183.532 6.30493C184.033 5.55306 184.507 5.00707 184.955 4.66694C185.42 4.30891 185.796 4.07619 186.083 3.96878C186.387 3.86137 186.548 3.80767 186.566 3.80767H182.834L182.914 3.86137C182.95 3.89717 182.986 3.95088 183.022 4.02248C183.075 4.09409 183.111 4.1836 183.129 4.291C183.165 4.39841 183.183 4.50582 183.183 4.61323C183.183 5.06077 183.004 5.61572 182.646 6.27807L178.269 13.018C175.458 8.16668 174.017 5.64257 173.946 5.44565C173.838 5.14133 173.784 4.88175 173.784 4.66694L173.811 4.34471C173.847 4.14779 173.937 4.01353 174.08 3.94193C174.223 3.85242 174.313 3.80767 174.348 3.80767H169.676C169.694 3.80767 169.846 3.87927 170.133 4.02248C170.419 4.16569 170.777 4.41632 171.207 4.77435C171.636 5.13238 172.075 5.63362 172.522 6.27807L177.275 14.4949L172.254 22.2283C171.824 22.8907 171.377 23.4009 170.911 23.7589C170.464 24.1169 170.088 24.3586 169.783 24.4839C169.497 24.6092 169.327 24.6719 169.273 24.6719H171.153C172.388 24.6719 172.988 24.6629 172.952 24.645C172.648 24.5913 172.496 24.3496 172.496 23.92C172.496 23.5083 172.728 22.9444 173.194 22.2283L177.732 15.2467L181.76 22.2283C182.064 22.837 182.216 23.3382 182.216 23.732C182.216 24.0364 182.144 24.287 182.001 24.4839L181.786 24.6719H186.432Z" fill="black"/>
<path d="M179.905 58.1139V58.1676C179.852 61.9001 179.127 65.552 175.287 65.552C173.192 65.552 172.064 64.4242 171.823 62.6251H169.406C169.675 65.3372 171.823 67.7002 175.287 67.7002C179.905 67.7002 182.322 64.2362 182.322 58.0602C182.322 52.1527 180.442 48.3934 175.367 48.3934C171.339 48.3934 168.923 51.3203 168.923 54.7574C168.923 58.4361 171.393 60.8797 174.938 60.8797C177.113 60.8797 178.992 59.8593 179.905 58.1139ZM175.367 50.5416C178.052 50.5416 179.637 52.1527 179.637 54.5425C179.637 57.0398 177.838 58.7315 175.152 58.7315C172.951 58.7315 171.339 57.2546 171.339 54.5962C171.339 52.1258 172.816 50.5416 175.367 50.5416Z" fill="black"/>
<line x1="199.203" y1="0.5" x2="199.203" y2="77.5" stroke="#C4C4C4" stroke-linecap="round"/>
<line x1="199.203" y1="0.5" x2="199.203" y2="77.5" stroke="black" stroke-opacity="0.2" stroke-linecap="round"/>
<path d="M229.216 24.6719L228.975 24.5913C228.796 24.5555 228.563 24.4571 228.276 24.2959C228.008 24.1348 227.704 23.8932 227.363 23.5709C227.041 23.2308 226.719 22.7833 226.397 22.2283L221.483 13.743L226.316 6.30493C226.817 5.55306 227.292 5.00707 227.739 4.66694C228.205 4.30891 228.581 4.07619 228.867 3.96878C229.171 3.86137 229.333 3.80767 229.35 3.80767H225.618L225.699 3.86137C225.734 3.89717 225.77 3.95088 225.806 4.02248C225.86 4.09409 225.895 4.1836 225.913 4.291C225.949 4.39841 225.967 4.50582 225.967 4.61323C225.967 5.06077 225.788 5.61572 225.43 6.27807L221.053 13.018C218.243 8.16668 216.802 5.64257 216.73 5.44565C216.623 5.14133 216.569 4.88175 216.569 4.66694L216.596 4.34471C216.631 4.14779 216.721 4.01353 216.864 3.94193C217.007 3.85242 217.097 3.80767 217.133 3.80767H212.46C212.478 3.80767 212.63 3.87927 212.917 4.02248C213.203 4.16569 213.561 4.41632 213.991 4.77435C214.421 5.13238 214.859 5.63362 215.307 6.27807L220.06 14.4949L215.038 22.2283C214.609 22.8907 214.161 23.4009 213.696 23.7589C213.248 24.1169 212.872 24.3586 212.568 24.4839C212.281 24.6092 212.111 24.6719 212.058 24.6719H213.937C215.172 24.6719 215.772 24.6629 215.736 24.645C215.432 24.5913 215.28 24.3496 215.28 23.92C215.28 23.5083 215.513 22.9444 215.978 22.2283L220.516 15.2467L224.544 22.2283C224.848 22.837 225 23.3382 225 23.732C225 24.0364 224.929 24.287 224.786 24.4839L224.571 24.6719H229.216Z" fill="black"/>
<path d="M213.874 48.7693C213.606 51.186 212.72 52.7703 209.471 52.7703V54.5157C211.135 54.5157 212.21 54.5157 213.337 53.4416V67.3242H215.754V48.7693H213.874ZM226.165 67.7002C231.24 67.7002 233.307 63.3232 233.307 58.0602C233.307 52.7971 231.24 48.3934 226.165 48.3934C221.09 48.3934 219.022 52.7971 219.022 58.0602C219.022 63.3232 221.09 67.7002 226.165 67.7002ZM226.165 65.552C222.62 65.552 221.439 62.0075 221.439 58.0602C221.439 54.1129 222.62 50.5416 226.165 50.5416C229.709 50.5416 230.891 54.1129 230.891 58.0602C230.891 62.0075 229.709 65.552 226.165 65.552Z" fill="black"/>
<line x1="244.913" y1="0.5" x2="244.913" y2="77.5" stroke="#C4C4C4" stroke-linecap="round"/>
<line x1="244.913" y1="0.5" x2="244.913" y2="77.5" stroke="black" stroke-opacity="0.2" stroke-linecap="round"/>
<path d="M276.069 24.6719H262.267L262.455 24.5645C262.58 24.4929 262.733 24.3675 262.912 24.1885C263.091 23.9916 263.252 23.741 263.395 23.4367C263.538 23.1144 263.628 22.7117 263.663 22.2283V6.25122C263.628 5.76788 263.538 5.37405 263.395 5.06972C263.252 4.74749 263.091 4.49687 262.912 4.31786C262.733 4.12094 262.58 3.98668 262.455 3.91507L262.267 3.80767H266.913L266.778 3.86137C266.671 3.87927 266.546 3.94193 266.402 4.04934C266.277 4.13884 266.143 4.2731 266 4.45212C265.856 4.63113 265.731 4.8728 265.624 5.17713C265.534 5.46355 265.489 5.83949 265.489 6.30493V22.2283C265.489 23.1055 265.695 23.7589 266.107 24.1885H273.599C273.921 24.1885 274.189 24.1259 274.404 24.0006C274.619 23.8753 274.78 23.7231 274.888 23.5441C275.013 23.3651 275.102 23.186 275.156 23.007C275.21 22.828 275.237 22.6759 275.237 22.5505L275.264 22.3626L276.069 24.6719Z" fill="black"/>
<path d="M262.323 54.8648C260.255 54.8648 258.859 55.5092 257.919 56.5833V56.5296L259.02 50.9175H267.264V48.7693H257.06L255.126 58.7583H257.704C258.644 57.55 260.094 57.0129 261.759 57.0129C264.149 57.0129 265.84 58.1944 265.84 60.9871C265.84 63.9677 264.041 65.552 261.49 65.552C258.59 65.552 257.516 63.7797 257.301 61.9806H254.885C254.992 64.9612 257.355 67.7002 261.598 67.7002C265.33 67.7002 268.257 64.9881 268.257 60.9871C268.257 57.55 265.814 54.8648 262.323 54.8648ZM277.433 67.7002C282.509 67.7002 284.576 63.3232 284.576 58.0602C284.576 52.7971 282.509 48.3934 277.433 48.3934C272.358 48.3934 270.291 52.7971 270.291 58.0602C270.291 63.3232 272.358 67.7002 277.433 67.7002ZM277.433 65.552C273.889 65.552 272.707 62.0075 272.707 58.0602C272.707 54.1129 273.889 50.5416 277.433 50.5416C280.978 50.5416 282.159 54.1129 282.159 58.0602C282.159 62.0075 280.978 65.552 277.433 65.552Z" fill="black"/>
<line x1="296.622" y1="0.5" x2="296.622" y2="77.5" stroke="#C4C4C4" stroke-linecap="round"/>
<line x1="296.622" y1="0.5" x2="296.622" y2="77.5" stroke="black" stroke-opacity="0.2" stroke-linecap="round"/>
<path d="M327.627 24.5376C329.238 24.5376 330.527 24.3675 331.493 24.0274C332.478 23.6873 333.293 23.2487 333.937 22.7117C334.599 22.1567 335.217 21.5481 335.79 20.8857L335.924 20.7246L335.682 19.9459L335.306 20.3755C334.877 20.9305 334.358 21.4765 333.749 22.0135C333.158 22.5505 332.38 23.007 331.413 23.383C330.446 23.7589 329.184 23.9469 327.627 23.9469C326.141 23.9469 324.78 23.5083 323.545 22.6311C322.328 21.736 321.352 20.5456 320.618 19.0598C319.902 17.5739 319.544 15.9359 319.544 14.1458C319.544 12.3377 319.902 10.6908 320.618 9.20497C321.352 7.71914 322.328 6.53765 323.545 5.66047C324.78 4.7833 326.141 4.34471 327.627 4.34471C329.023 4.34471 330.196 4.61323 331.144 5.15028C332.093 5.66942 332.773 6.27807 333.185 6.97623C333.489 7.49538 333.642 7.98767 333.642 8.45311C333.642 8.63212 333.624 8.80219 333.588 8.9633L336.327 7.59383C336.184 7.54013 336.049 7.46852 335.924 7.37902C335.817 7.27161 335.718 7.1642 335.629 7.05679C334.698 5.9827 333.534 5.16818 332.138 4.61323C330.759 4.05829 329.256 3.78081 327.627 3.78081C325.765 3.78081 324.064 4.24625 322.525 5.17713C321.003 6.10801 319.786 7.36111 318.873 8.93645C317.96 10.5118 317.503 12.2482 317.503 14.1458C317.503 16.0612 317.96 17.8066 318.873 19.382C319.786 20.9573 321.003 22.2104 322.525 23.1413C324.064 24.0722 325.765 24.5376 327.627 24.5376Z" fill="black"/>
<path d="M311.293 48.7693C311.025 51.186 310.139 52.7703 306.89 52.7703V54.5157C308.554 54.5157 309.628 54.5157 310.756 53.4416V67.3242H313.173V48.7693H311.293ZM323.584 67.7002C328.659 67.7002 330.726 63.3232 330.726 58.0602C330.726 52.7971 328.659 48.3934 323.584 48.3934C318.509 48.3934 316.441 52.7971 316.441 58.0602C316.441 63.3232 318.509 67.7002 323.584 67.7002ZM323.584 65.552C320.039 65.552 318.858 62.0075 318.858 58.0602C318.858 54.1129 320.039 50.5416 323.584 50.5416C327.128 50.5416 328.31 54.1129 328.31 58.0602C328.31 62.0075 327.128 65.552 323.584 65.552ZM340.235 67.7002C345.31 67.7002 347.378 63.3232 347.378 58.0602C347.378 52.7971 345.31 48.3934 340.235 48.3934C335.16 48.3934 333.093 52.7971 333.093 58.0602C333.093 63.3232 335.16 67.7002 340.235 67.7002ZM340.235 65.552C336.691 65.552 335.509 62.0075 335.509 58.0602C335.509 54.1129 336.691 50.5416 340.235 50.5416C343.78 50.5416 344.961 54.1129 344.961 58.0602C344.961 62.0075 343.78 65.552 340.235 65.552Z" fill="black"/>
<line x1="359.331" y1="0.5" x2="359.331" y2="77.5" stroke="#C4C4C4" stroke-linecap="round"/>
<line x1="359.331" y1="0.5" x2="359.331" y2="77.5" stroke="black" stroke-opacity="0.2" stroke-linecap="round"/>
<path d="M390.217 24.7256C392.544 24.7256 394.415 24.2333 395.829 23.2487C397.261 22.2462 398.3 20.9215 398.944 19.2746C399.606 17.6097 399.938 15.7927 399.938 13.8236C399.938 12.105 399.615 10.4939 398.971 8.99015C397.575 5.64257 394.361 3.91507 389.331 3.80767H384.686L384.874 3.91507C384.999 3.98668 385.151 4.12094 385.33 4.31786C385.509 4.49687 385.67 4.74749 385.813 5.06972C385.957 5.37405 386.046 5.76788 386.082 6.25122V22.2283C386.046 22.7117 385.957 23.1144 385.813 23.4367C385.67 23.741 385.509 23.9916 385.33 24.1885C385.151 24.3675 384.999 24.4929 384.874 24.5645L384.686 24.6719L390.217 24.7256ZM389.385 24.2691H388.606C388.141 23.8395 387.908 23.1413 387.908 22.1746V6.27807C387.908 5.32929 388.132 4.64904 388.579 4.2373L389.761 4.21045C392.786 4.21045 394.961 5.19503 396.286 7.1642C397.378 8.79324 397.924 11.0041 397.924 13.7967C397.924 16.7863 397.324 19.194 396.125 21.02C394.71 23.186 392.464 24.2691 389.385 24.2691Z" fill="black"/>
<path d="M376.741 54.8648C374.674 54.8648 373.277 55.5092 372.337 56.5833V56.5296L373.438 50.9175H381.682V48.7693H371.478L369.545 58.7583H372.123C373.062 57.55 374.512 57.0129 376.177 57.0129C378.567 57.0129 380.259 58.1944 380.259 60.9871C380.259 63.9677 378.46 65.552 375.909 65.552C373.009 65.552 371.935 63.7797 371.72 61.9806H369.303C369.411 64.9612 371.774 67.7002 376.016 67.7002C379.749 67.7002 382.676 64.9881 382.676 60.9871C382.676 57.55 380.232 54.8648 376.741 54.8648ZM391.852 67.7002C396.927 67.7002 398.995 63.3232 398.995 58.0602C398.995 52.7971 396.927 48.3934 391.852 48.3934C386.777 48.3934 384.709 52.7971 384.709 58.0602C384.709 63.3232 386.777 67.7002 391.852 67.7002ZM391.852 65.552C388.307 65.552 387.126 62.0075 387.126 58.0602C387.126 54.1129 388.307 50.5416 391.852 50.5416C395.396 50.5416 396.578 54.1129 396.578 58.0602C396.578 62.0075 395.396 65.552 391.852 65.552ZM408.503 67.7002C413.579 67.7002 415.646 63.3232 415.646 58.0602C415.646 52.7971 413.579 48.3934 408.503 48.3934C403.428 48.3934 401.361 52.7971 401.361 58.0602C401.361 63.3232 403.428 67.7002 408.503 67.7002ZM408.503 65.552C404.959 65.552 403.777 62.0075 403.777 58.0602C403.777 54.1129 404.959 50.5416 408.503 50.5416C412.048 50.5416 413.229 54.1129 413.229 58.0602C413.229 62.0075 412.048 65.552 408.503 65.552Z" fill="black"/>
<line x1="428.041" y1="0.5" x2="428.041" y2="77.5" stroke="#C4C4C4" stroke-linecap="round"/>
<line x1="428.041" y1="0.5" x2="428.041" y2="77.5" stroke="black" stroke-opacity="0.2" stroke-linecap="round"/>
<path d="M477.172 24.6719L477.038 24.6182C476.948 24.6003 476.832 24.5466 476.689 24.4571C476.546 24.3675 476.402 24.2333 476.259 24.0543C476.116 23.8574 476 23.6157 475.91 23.3293C475.821 23.0249 475.776 22.6401 475.776 22.1746V6.27807C475.776 5.81263 475.821 5.4367 475.91 5.15028C476 4.84595 476.116 4.60428 476.259 4.42527C476.402 4.24625 476.546 4.11199 476.689 4.02248C476.832 3.93297 476.948 3.87032 477.038 3.83452L477.172 3.80767H472.231L472.339 3.83452C472.5 3.88822 472.643 3.99563 472.768 4.15674C472.894 4.31786 472.956 4.55953 472.956 4.88175C472.956 5.27559 472.84 5.74103 472.607 6.27807L466.163 21.5033L459.745 6.27807C459.512 5.74103 459.396 5.29349 459.396 4.93546C459.396 4.81015 459.405 4.68484 459.423 4.55953C459.441 4.41632 459.486 4.29101 459.557 4.1836C459.629 4.07619 459.709 3.99563 459.799 3.94193C459.888 3.88822 459.969 3.85242 460.04 3.83452L460.121 3.80767H455.395L455.583 3.91507C455.708 3.98668 455.852 4.12094 456.013 4.31786C456.192 4.49687 456.353 4.74749 456.496 5.06972C456.639 5.37405 456.738 5.76788 456.791 6.25122V22.2283C456.738 22.7117 456.639 23.1144 456.496 23.4367C456.353 23.741 456.192 23.9916 456.013 24.1885C455.852 24.3675 455.708 24.4929 455.583 24.5645L455.395 24.6719H459.074L458.913 24.6182C458.626 24.5466 458.376 24.3496 458.161 24.0274C457.821 23.5799 457.651 22.9623 457.651 22.1746C457.651 11.4158 457.66 5.97375 457.677 5.84844C457.785 6.04535 460.461 12.3198 465.706 24.6719L473.467 6.25122C473.574 6.0185 473.699 5.80368 473.843 5.60677C473.878 5.80368 473.905 6.0185 473.923 6.25122V22.2283C473.887 22.7117 473.798 23.1144 473.655 23.4367C473.511 23.741 473.35 23.9916 473.171 24.1885C473.01 24.3675 472.867 24.4929 472.742 24.5645L472.527 24.6719H477.172Z" fill="black"/>
<path d="M442.712 48.7693C442.443 51.186 441.557 52.7703 438.308 52.7703V54.5157C439.973 54.5157 441.047 54.5157 442.175 53.4416V67.3242H444.591V48.7693H442.712ZM455.002 67.7002C460.077 67.7002 462.145 63.3232 462.145 58.0602C462.145 52.7971 460.077 48.3934 455.002 48.3934C449.927 48.3934 447.859 52.7971 447.859 58.0602C447.859 63.3232 449.927 67.7002 455.002 67.7002ZM455.002 65.552C451.458 65.552 450.276 62.0075 450.276 58.0602C450.276 54.1129 451.458 50.5416 455.002 50.5416C458.547 50.5416 459.728 54.1129 459.728 58.0602C459.728 62.0075 458.547 65.552 455.002 65.552ZM471.654 67.7002C476.729 67.7002 478.796 63.3232 478.796 58.0602C478.796 52.7971 476.729 48.3934 471.654 48.3934C466.579 48.3934 464.511 52.7971 464.511 58.0602C464.511 63.3232 466.579 67.7002 471.654 67.7002ZM471.654 65.552C468.109 65.552 466.928 62.0075 466.928 58.0602C466.928 54.1129 468.109 50.5416 471.654 50.5416C475.198 50.5416 476.38 54.1129 476.38 58.0602C476.38 62.0075 475.198 65.552 471.654 65.552ZM488.305 67.7002C493.38 67.7002 495.448 63.3232 495.448 58.0602C495.448 52.7971 493.38 48.3934 488.305 48.3934C483.23 48.3934 481.163 52.7971 481.163 58.0602C481.163 63.3232 483.23 67.7002 488.305 67.7002ZM488.305 65.552C484.761 65.552 483.579 62.0075 483.579 58.0602C483.579 54.1129 484.761 50.5416 488.305 50.5416C491.85 50.5416 493.031 54.1129 493.031 58.0602C493.031 62.0075 491.85 65.552 488.305 65.552Z" fill="black"/>
</svg>
