<svg width="287" height="65" viewBox="0 0 287 65" fill="none" xmlns="http://www.w3.org/2000/svg">
<path d="M6.24592 0.386856C3.8578 -0.301247 1.36402 1.07689 0.675919 3.46502C-0.0121849 5.85314 1.36595 8.34692 3.75408 9.03502L6.24592 0.386856ZM103.666 44.1544L102.135 48.3861L103.666 44.1544ZM194.786 58.7885L194.438 54.302L194.786 58.7885ZM286.935 18.0874L235.014 20.1463L262.758 64.0815L286.935 18.0874ZM3.75408 9.03502C20.5945 13.8874 36.6687 20.6193 52.8469 27.7237C68.9494 34.7948 85.2349 42.2732 102.135 48.3861L105.196 39.9227C88.6608 33.9417 72.7625 26.6397 56.4656 19.4832C40.2443 12.3599 23.7036 5.41703 6.24592 0.386856L3.75408 9.03502ZM102.135 48.3861C131.657 59.0642 163.196 65.7518 195.134 63.275L194.438 54.302C164.186 56.6481 133.976 50.3324 105.196 39.9227L102.135 48.3861ZM195.134 63.275C216.475 61.62 236.451 53.7279 254.85 43.6594L250.53 35.7642C232.735 45.5018 214.032 52.7825 194.438 54.302L195.134 63.275Z" fill="#FCFCFC"/>
</svg>
