<svg width="339" height="73" viewBox="0 0 339 73" fill="none" xmlns="http://www.w3.org/2000/svg">
<path d="M4.84019 6.01211C9.94836 3.58087 13.1991 5.36668 18.2235 6.98102C25.5387 9.33136 32.315 11.5984 38.5481 16.0096C43.646 19.6174 49.2608 22.2732 52.3851 27.9504C54.3268 31.4789 57.6139 35.4599 61.5908 36.7377C63.484 37.346 70.8702 37.8396 71.985 39.5221C75.7702 45.2348 67.6158 54.5546 71.7433 59.5701C73.6349 61.8686 76.2433 62.2651 79.012 63.1546C83.646 64.6436 89.8935 67.9397 94.8879 67.8854C100.2 67.8277 105.399 65.5549 110.334 63.8728C115.466 62.1237 118.936 57.6747 123.899 55.9245C128.219 54.4013 131.718 51.2676 136.401 50.133C140.623 49.1104 145.171 45.3824 149.314 44.936C164.134 43.339 176.796 32.3951 189.6 25.8179C192.721 24.2148 195.762 23.0609 199.145 22.1759C203.325 21.0825 206.057 22.3612 210.264 23.7127C217.256 25.9592 219.957 27.4665 225.387 32.2267C228.082 34.5895 230.707 36.7989 233.18 39.2184C235.542 41.5293 242.056 42.2553 245.204 43.2667C250.718 45.0383 253.001 42.5016 257.955 39.8684C260.449 38.5423 265.394 36.7796 267.006 34.4488C268.972 31.6064 273.851 25.8676 277.283 25.2129C284.345 23.866 289.391 17.7681 296.625 16.8535C302.34 16.131 307.806 17.5776 313.187 19.3063C317.115 20.5686 322.544 21.2045 325.429 24.2576C328.343 27.3414 333.532 32.4392 333.147 37.1008C332.745 41.9599 334.746 47.1002 333.183 51.9637C331.197 58.1439 331.764 64.0212 323.924 65.2282" stroke="white" stroke-width="9" stroke-linecap="round"/>
</svg>
