<svg width="817" height="815" viewBox="0 0 817 815" fill="none" xmlns="http://www.w3.org/2000/svg">
<path d="M571.116 5.20909C562.926 8.21209 555.828 10.9421 555.419 11.3516C555.146 11.6246 557.739 17.6306 561.288 24.8651L567.704 37.6961V59.2631V80.6936L553.371 89.8391L539.039 98.9846V105.537C539.039 111.406 539.721 112.908 544.908 118.914L550.778 125.602L567.977 127.104L585.039 128.605L596.915 138.024C603.33 143.074 608.654 147.715 608.654 148.261C608.654 148.807 607.971 151.128 607.152 153.585L605.651 157.953L596.505 156.997L587.496 156.178L574.529 169.009C567.431 176.107 556.374 185.253 550.095 189.484L538.766 197.265L531.531 194.125L524.433 190.849L520.475 193.989L516.653 196.992L521.84 210.778C527.846 226.885 527.709 230.298 520.202 238.624C510.647 249.271 505.323 251.728 484.848 255.55C465.738 258.963 462.189 260.464 439.394 274.251C437.756 275.206 425.607 271.521 396.806 261.693L356.265 247.77L337.019 251.046L317.772 254.322L306.306 237.805C294.84 221.425 294.567 221.152 276.549 208.731L258.258 196.173L247.611 199.449L236.964 202.725L226.044 194.944L214.988 187.164L202.703 161.092L190.418 135.157L177.587 130.38L164.756 125.739L153.017 112.362C146.601 105.127 140.868 99.2576 140.322 99.3941C139.776 99.6671 136.5 103.353 132.951 107.721L126.399 115.774L128.72 130.107C131.177 146.487 131.586 145.531 120.12 151.128C116.025 153.039 112.203 153.858 108.108 153.448L102.239 153.039L97.3245 166.962L92.274 181.021L81.627 188.802C75.621 193.033 70.8435 197.401 70.8435 198.493C70.8435 199.585 74.802 208.185 79.716 217.603C88.5885 234.529 88.725 234.939 87.36 241.218C83.6745 258.417 71.799 277.663 59.6505 285.99C54.873 289.266 46.5465 294.999 41.0865 298.821L31.122 305.646L27.9825 302.643L24.7065 299.503L12.285 308.103L0 316.566L12.6945 331.035L25.389 345.504L26.0715 357.789C26.6175 369.528 26.8905 370.074 31.122 373.486C33.579 375.397 43.68 383.451 53.508 391.504C74.6655 408.703 79.443 411.297 91.3185 412.389L100.191 413.208L107.426 423.036L114.797 432.864L113.841 447.196C112.749 466.306 110.702 483.369 109.064 487.191C108.108 489.375 108.381 492.514 110.156 498.384L112.613 506.574L130.904 519.268L149.058 531.826H160.388H171.581L183.866 544.794C196.014 557.625 196.151 557.761 210.074 562.675L223.997 567.726L230.276 564.586L236.691 561.583L249.386 574.96L262.08 588.337L268.223 585.198L274.502 582.195L279.552 587.928L284.466 593.797L286.65 586.29L288.834 578.919L296.205 578.509L303.576 578.1L312.449 587.791L321.321 597.483L327.464 595.026C330.876 593.797 334.016 592.159 334.425 591.613C334.835 590.931 335.927 586.563 336.882 581.785C338.52 573.459 338.93 572.776 345.618 568.272C355.446 561.583 363.636 557.761 367.731 557.761C372.645 557.761 376.877 560.082 402.675 577.827L425.471 593.251L429.566 603.898C437.892 625.602 437.619 621.916 431.204 642.937L425.471 661.774L427.791 671.329C430.112 680.748 430.248 680.748 437.619 684.433L445.127 688.119L455.637 712.552C467.376 740.125 465.465 738.351 483.347 740.125L492.902 741.081L492.492 728.25L492.083 715.419L496.041 715.009C503.412 714.19 518.973 709.14 532.623 702.997C539.858 699.721 546.41 696.991 547.092 696.991C549.549 696.991 561.288 708.594 566.339 716.101C572.208 724.701 585.995 737.941 588.998 737.941C590.09 737.941 593.366 736.713 596.232 735.348L601.419 732.618L608.517 735.894C612.339 737.668 615.752 739.989 616.161 740.944C616.434 741.9 618.072 747.633 619.847 753.639L623.123 764.559L630.63 751.318C638.001 738.214 638.547 737.668 652.197 728.386L666.257 718.695L673.764 720.333L681.272 722.107L702.839 711.324L724.406 700.677L736.554 679.929L748.839 659.044L759.35 608.539C765.083 580.83 769.724 556.942 769.724 555.441C769.724 554.076 769.041 550.663 768.222 547.797C766.857 542.746 766.857 542.746 759.35 542.746C752.115 542.746 751.842 542.61 749.658 537.832L747.201 532.918L753.207 527.868L759.077 522.817L756.893 515.446C754.845 508.621 753.617 507.12 743.243 498.93L731.913 489.784L723.996 467.671L716.079 445.558L706.661 439.552C701.61 436.276 697.379 433.41 697.379 433.273C697.379 433 698.607 426.448 699.972 418.668L702.566 404.472L717.99 389.047C726.453 380.584 733.142 373.35 732.869 373.077C730.821 371.166 700.928 361.201 700.245 362.293C699.836 362.839 697.379 366.252 694.785 369.801L690.144 376.08L681.818 369.801C666.803 358.335 656.156 348.37 651.515 341.545L647.147 334.993L654.927 327.622C659.295 323.664 668.577 312.334 675.402 302.506L688.097 284.761L692.328 287.764C701.883 294.18 702.839 295.681 702.839 303.325C702.839 309.468 707.753 326.94 710.073 329.26C710.483 329.67 716.898 325.165 724.542 319.296L738.192 308.649L749.385 288.583L760.442 268.381L764.264 270.429C766.448 271.521 768.768 272.476 769.451 272.476C770.133 272.476 775.593 265.651 781.736 257.461C792.656 242.719 792.929 242.446 798.389 242.446C803.576 242.446 803.849 242.173 803.849 238.351C803.849 233.028 799.344 219.787 794.021 209.277C789.243 199.585 788.288 202.042 804.668 181.021L816.27 166.143L809.855 153.585L803.576 140.89L806.169 134.611L808.899 128.196L803.849 123.964L798.798 119.869L786.104 129.97C779.142 135.567 773.273 140.071 773 140.071C772.59 140.071 769.724 138.843 766.448 137.205C760.169 134.338 750.204 126.148 739.557 115.365C733.961 109.632 732.186 108.813 715.26 103.762L696.969 98.4386L684.684 85.4711C673.355 73.4591 649.058 42.3371 634.589 21.0431L628.446 12.0341L608.654 6.16459C597.734 3.02509 588.315 0.295088 587.496 0.0220884C586.814 -0.250912 579.443 2.06959 571.116 5.20909ZM365.411 310.15L369.096 311.106L365.411 312.471C362.408 313.699 361.589 314.791 361.589 318.067V322.299L358.995 319.023C356.948 316.429 355.719 316.02 352.716 316.702C348.894 317.658 348.894 317.658 350.942 314.518C352.853 311.788 352.853 311.106 351.078 308.376C349.031 305.373 349.167 305.236 353.126 306.055C356.402 306.738 357.63 306.328 359.132 304.008C360.906 301.141 360.906 301.141 361.316 305.1C361.589 308.103 362.681 309.331 365.411 310.15ZM283.238 324.073L287.606 335.949L302.348 336.631L317.226 337.314L305.351 345.913L293.475 354.376L298.116 368.026C300.71 375.534 301.938 381.267 301.119 380.721C300.164 380.038 294.567 376.353 288.698 372.394L278.051 365.023L269.724 370.893C265.083 374.032 259.76 377.854 257.985 379.219C256.211 380.584 254.436 381.54 254.3 381.267C254.027 380.994 255.665 375.397 257.849 368.709C260.169 362.02 261.944 355.878 261.944 355.059C261.944 354.24 256.62 349.872 250.205 345.367L238.329 337.314L253.481 336.904L268.496 336.495L273 323.664C275.457 316.566 277.778 311.106 278.187 311.515C278.597 311.925 280.917 317.658 283.238 324.073ZM383.429 346.596C386.432 344.412 386.568 344.412 385.613 347.961C384.93 350.691 385.34 352.056 387.524 353.284C391.346 355.741 390.936 357.106 386.295 357.106C383.156 357.106 382.2 357.925 381.381 360.792L380.426 364.614L379.061 360.792C377.969 357.789 376.877 357.106 373.464 357.106H369.096L372.372 354.513C374.966 352.465 375.375 351.237 374.693 348.234C373.737 344.412 373.737 344.412 377.013 346.596C380.016 348.507 380.562 348.507 383.429 346.596ZM378.788 389.866C382.746 389.866 383.019 391.368 379.334 393.688C377.15 395.053 376.877 396.009 377.969 398.739C379.47 402.561 379.061 402.834 375.239 400.513C373.055 399.148 371.963 399.148 369.779 400.513C365.957 402.834 365.547 402.561 367.049 398.739C368.141 396.009 367.868 395.053 365.411 393.825C362.544 392.323 362.681 392.187 366.776 390.412C369.369 389.457 371.144 387.546 371.28 386.181C371.28 383.997 371.553 384.133 373.464 386.727C374.693 388.501 377.013 389.866 378.788 389.866ZM344.117 429.042L348.348 429.861L344.663 431.772C342.206 433 341.114 434.775 341.114 437.232C341.114 440.644 340.977 440.644 338.52 438.46C336.746 436.822 334.835 436.413 332.241 437.095C328.692 437.914 328.692 437.778 330.194 435.048C331.422 432.591 331.286 431.362 329.648 428.769C327.464 425.493 327.464 425.493 331.422 426.175C334.698 426.858 335.79 426.448 337.292 423.855L339.066 420.579L339.476 424.401C339.885 427.404 340.841 428.359 344.117 429.042Z" fill="#E64456"/>
<path d="M616.161 784.897C607.971 789.401 607.971 789.538 608.108 795.544C608.381 801.823 612.339 811.241 616.025 814.244C619.164 816.838 624.215 810.968 630.357 797.591C638.684 779.71 638.684 780.256 630.903 780.256C625.989 780.256 622.304 781.484 616.161 784.897Z" fill="#E64456"/>
</svg>
