<svg width="613" height="158" viewBox="0 0 613 158" fill="none" xmlns="http://www.w3.org/2000/svg">
<path fill-rule="evenodd" clip-rule="evenodd" d="M78.0613 146.748C39.7364 146.748 8.62109 115.633 8.62109 77.3074C8.62109 38.9825 39.7364 7.86719 78.0613 7.86719C116.387 7.86719 147.501 38.9825 147.501 77.3074C147.501 77.388 147.501 77.4687 147.501 77.5444C147.501 102.457 140.484 119.703 143.9 144.38C119.303 140.432 103.638 146.675 78.7262 146.747L78.0613 146.748ZM78.1148 56.1016C89.9771 56.1016 99.6085 65.7322 99.6085 77.5954C99.6085 89.4586 89.9771 99.09 78.1148 99.09C66.2516 99.09 56.6202 89.4586 56.6202 77.5954C56.6202 65.7322 66.2516 56.1016 78.1148 56.1016Z" fill="url(#paint0_linear_287_405)"/>
<path d="M185.892 130.955V131.455H186.392H203.167H203.667V130.955V99.9212C203.667 96.2685 204.516 93.7309 205.929 92.1114C207.332 90.503 209.354 89.7273 211.869 89.7273C214.791 89.7273 216.497 90.3927 217.525 91.8833C218.595 93.4336 219.022 95.9878 219.022 100.026V130.955V131.455H219.522H236.297H236.797V130.955V99.9212C236.797 96.2649 237.622 93.7279 239.021 92.1098C240.409 90.5043 242.43 89.7273 244.999 89.7273C247.921 89.7273 249.627 90.3927 250.655 91.8833C251.725 93.4336 252.153 95.9878 252.153 100.026V130.955V131.455H252.653H269.637H270.137V130.955V94.6791C270.137 88.4635 268.516 83.5579 265.459 80.2017C262.396 76.839 257.951 75.0977 252.443 75.0977C248.006 75.0977 244.562 76.1422 241.638 77.8807C238.889 79.5149 236.62 81.7503 234.426 84.2526C232.135 78.8315 227.133 75.0977 220.151 75.0977C212.513 75.0977 206.79 79.0385 203.667 83.6292V77.2752V76.7752H203.167H186.392H185.892V77.2752V130.955ZM339.265 130.955V131.455H339.765H356.54H357.04V130.955V99.9212C357.04 96.2746 357.939 93.7496 359.53 92.1337C361.121 90.5191 363.486 89.7273 366.605 89.7273C369.307 89.7273 371.228 90.3883 372.497 91.9185C373.787 93.4732 374.492 96.0272 374.492 100.026V130.955V131.455H374.992H391.767H392.267V130.955V94.6791C392.267 88.4515 390.483 83.5468 387.321 80.1953C384.157 76.8411 379.665 75.0977 374.363 75.0977C365.382 75.0977 360.092 79.0279 357.04 83.6143V77.2752V76.7752H356.54H339.765H339.265V77.2752V130.955ZM436.687 81.4831C434.112 78.6284 428.663 75.0977 421.46 75.0977C414.193 75.0977 408.202 77.8821 404.038 82.9332C399.882 87.9738 397.581 95.2267 397.581 104.115C397.581 113.003 399.882 120.256 404.038 125.297C408.202 130.348 414.193 133.132 421.46 133.132C428.663 133.132 434.112 129.601 436.687 126.747V130.955V131.455H437.187H453.962H454.462V130.955V55.9922V55.4922H453.962H437.187H436.687V55.9922V81.4831ZM515.852 114.838L516.029 114.204H515.371H498.281H497.938L497.815 114.524C497.319 115.813 496.484 117.085 495.078 118.038C493.671 118.993 491.652 119.656 488.741 119.656C485.703 119.656 482.974 118.669 480.997 116.816C479.117 115.055 477.88 112.477 477.723 109.123H515.79H516.29V108.623V106.107C516.29 96.1304 513.968 88.3389 509.271 83.0376C504.564 77.7256 497.543 74.9929 488.321 74.9929C479.178 74.9929 472.066 78.2665 467.245 83.5702C462.429 88.8672 459.933 96.1496 459.933 104.115C459.933 112.606 462.588 119.893 467.488 125.06C472.391 130.232 479.501 133.237 488.321 133.237C495.948 133.237 502.057 131.436 506.654 128.219C511.254 125 514.304 120.389 515.852 114.838ZM522.523 76.7752H522.023V77.2752V130.955V131.455H522.523H539.298H539.798V130.955V106.002C539.798 101.308 541.476 97.858 544.034 95.5764C546.6 93.2868 550.092 92.1386 553.766 92.1386C554.883 92.1386 555.798 92.2394 557.15 92.4473L557.726 92.536V91.9532V77.2752V76.8741L557.334 76.7871C555.393 76.3558 554.09 76.3558 552.619 76.3558H552.613C547.033 76.3558 542.573 79.4593 539.798 84.413V77.2752V76.7752H539.298H522.523ZM590.116 96.6029L590.112 96.6022C589.349 96.4338 588.634 96.279 587.963 96.1339C585.047 95.5033 582.976 95.0554 581.56 94.4664C580.703 94.11 580.149 93.7247 579.803 93.2658C579.464 92.8162 579.286 92.2432 579.286 91.429C579.286 90.2635 579.719 89.3507 580.644 88.7073C581.599 88.0436 583.132 87.6304 585.391 87.6304C588.11 87.6304 589.941 88.1957 591.152 89.2051C592.357 90.2089 593.029 91.7203 593.283 93.796L593.336 94.2355H593.779H609.505H610.034L610.004 93.7078C609.736 88.8781 607.881 84.2076 603.869 80.7494C599.86 77.2945 593.756 75.0977 585.077 75.0977C577.461 75.0977 571.472 76.8158 567.375 79.862C563.261 82.9199 561.092 87.2898 561.092 92.4774C561.092 98.112 563.626 101.925 567.356 104.587C571.058 107.229 575.936 108.741 580.665 109.844L580.666 109.844C581.602 110.059 582.497 110.255 583.348 110.441C586.065 111.035 588.331 111.531 590.049 112.243C591.164 112.706 591.991 113.239 592.541 113.906C593.081 114.561 593.384 115.382 593.384 116.486C593.384 117.866 592.896 118.85 591.891 119.516C590.846 120.209 589.182 120.599 586.754 120.599C583.616 120.599 581.249 119.955 579.612 118.721C577.99 117.499 577.019 115.648 576.768 113.083L576.724 112.631H576.27H560.544H560.023L560.044 113.151C560.258 118.508 562.245 123.525 566.604 127.196C570.955 130.86 577.61 133.132 587.069 133.132C594.882 133.132 601.004 131.576 605.186 128.542C609.392 125.489 611.578 120.98 611.578 115.228C611.578 108.814 608.866 104.732 604.793 101.971C600.76 99.2382 595.404 97.8072 590.116 96.6029ZM304.452 133.237C313.582 133.237 320.926 130.235 325.988 125.039C331.049 119.845 333.784 112.504 333.784 103.905C333.784 95.3578 331.048 88.1207 326.026 83.0184C321.003 77.9148 313.737 74.9929 304.767 74.9929C295.637 74.9929 288.293 77.9945 283.231 83.1771C278.171 88.3577 275.435 95.6727 275.435 104.22C275.435 112.819 278.17 120.082 283.192 125.198C288.216 130.315 295.481 133.237 304.452 133.237ZM304.662 119.656C301.028 119.656 298.25 118.302 296.363 115.732C294.458 113.138 293.419 109.249 293.419 104.115C293.419 98.9813 294.458 95.0919 296.363 92.4981C298.25 89.9278 301.028 88.574 304.662 88.574C308.241 88.574 310.993 89.9259 312.868 92.4968C314.76 95.0911 315.799 98.9814 315.799 104.115C315.799 109.248 314.76 113.139 312.868 115.733C310.993 118.304 308.241 119.656 304.662 119.656ZM426.073 119.551C422.82 119.551 420.278 118.26 418.53 115.73C416.763 113.174 415.775 109.306 415.775 104.115C415.775 98.9241 416.763 95.056 418.53 92.4996C420.278 89.9697 422.82 88.6788 426.073 88.6788C429.327 88.6788 431.868 89.9697 433.617 92.4996C435.384 95.056 436.372 98.9241 436.372 104.115C436.372 109.306 435.384 113.174 433.617 115.73C431.868 118.26 429.327 119.551 426.073 119.551ZM488.321 88.1546C491.48 88.1546 493.988 89.0448 495.705 90.713C497.334 92.295 498.309 94.6335 498.403 97.7437H477.852C478.137 94.6444 479.227 92.3052 480.918 90.719C482.705 89.043 485.219 88.1546 488.321 88.1546Z" fill="#FCFCFC" stroke="black"/>
<defs>
<linearGradient id="paint0_linear_287_405" x1="134.425" y1="11.9254" x2="78.0613" y2="146.748" gradientUnits="userSpaceOnUse">
<stop offset="0.109375" stop-color="#F4AD77"/>
<stop offset="0.348958" stop-color="#E9565E"/>
<stop offset="0.651042" stop-color="#A64A97"/>
<stop offset="0.932292" stop-color="#3A49F7"/>
</linearGradient>
</defs>
</svg>
