<svg width="1545" height="1607" viewBox="0 0 1545 1607" fill="none" xmlns="http://www.w3.org/2000/svg">
<path fill-rule="evenodd" clip-rule="evenodd" d="M33.6922 629.571C24.6722 631.465 15.397 638.202 11.207 645.661C7.01841 653.121 5.62441 665.189 8.55525 674.326C12.1103 685.409 22.0271 704.028 32.5389 712.161C43.0521 720.292 59.5698 723.118 71.6291 723.118C83.3036 723.118 99.1203 710.978 104.896 712.161C110.67 713.343 110.226 725.646 106.279 730.212C101.619 735.605 86.6576 742.429 76.934 744.515C67.4643 746.546 54.8707 745.121 47.9338 742.727C42.3181 740.791 39.6213 729.068 35.3071 730.154C30.9928 731.24 21.9636 741.497 22.0469 749.244C22.1421 758.28 29.2536 775.679 35.8837 784.368C42.1567 792.589 56.1682 793.961 61.8275 801.382C67.4881 808.803 63.8722 821.436 69.8423 828.893C77.1059 837.967 95.6618 851.039 105.414 855.826C112.301 859.206 124.863 860.643 128.361 857.614C131.858 854.587 121.576 839.61 126.401 837.659C131.225 835.708 147.502 848.819 157.303 845.907C167.105 842.994 179.549 831.296 185.208 820.184C190.868 809.071 188.234 788.958 191.262 779.235C193.361 772.493 200.593 759.632 203.369 761.853C206.146 764.073 205.06 784.518 207.924 792.558C210.34 799.342 221.366 802.935 220.55 810.091C219.494 819.357 206.148 834.735 201.582 848.156C196.759 862.334 193.818 881.914 191.608 895.161C189.818 905.891 188.127 916.753 188.322 927.63C188.552 940.549 191.43 957.661 192.992 972.675C194.654 988.659 196.505 1006.59 198.295 1023.54C200.304 1042.55 203.639 1069.14 205.042 1086.7C206.162 1100.72 204.125 1115.03 206.714 1128.86C209.519 1143.84 216.486 1161.03 221.877 1176.61C227.2 1192 233.186 1207.15 239.057 1222.35C245.428 1238.83 253.689 1257.57 260.101 1275.52C266.597 1293.71 273.89 1314.17 278.031 1331.47C281.782 1347.13 279.967 1363.96 284.95 1379.28C291.349 1398.94 307.723 1427.65 316.43 1449.47C324.357 1469.34 331.555 1491.48 337.185 1510.2C342.293 1527.17 340.922 1547.18 350.215 1561.76C359.507 1576.34 380.618 1592.36 392.937 1597.69C402.557 1601.85 415.166 1599.15 424.127 1593.71C435.332 1586.91 448.669 1566.22 460.161 1556.91C470.013 1548.94 485.76 1547.48 493.083 1537.88C500.405 1528.28 498.55 1509.43 504.095 1499.3C509.124 1490.1 518.767 1482.25 526.348 1477.09C533.191 1472.43 546.555 1476.03 549.583 1468.33C554.359 1456.18 551.111 1423.18 555.003 1404.19C558.544 1386.92 567.399 1368.51 572.934 1354.42C577.563 1342.63 586.348 1332.17 588.212 1319.64C590.787 1302.33 589.095 1269.49 588.385 1250.55C587.824 1235.62 580.915 1220.59 583.945 1205.97C587 1191.22 594.957 1171.66 606.719 1162.08C618.481 1152.49 640.466 1151.84 654.514 1148.47C666.537 1145.58 680.932 1149 691.01 1141.83C703.328 1133.08 713.869 1109.26 728.427 1095.92C751.873 1074.45 804.502 1036.47 831.686 1012.99C852.702 994.834 874.85 968.243 891.531 955.026C903.432 945.596 922.03 941.146 931.774 933.686C939.627 927.675 942.296 916.482 949.992 910.271C957.699 904.051 973.631 905.033 978.012 896.371C982.394 887.711 972.247 866.621 976.282 858.306C980.319 849.992 994.223 851.472 1002.23 846.483C1010.23 841.494 1015.06 830.611 1024.31 828.373C1035.08 825.769 1054.63 832.535 1066.86 830.853C1077.84 829.343 1088.05 823.83 1097.64 818.28C1108.35 812.091 1118.85 800.157 1131.09 793.711C1144.15 786.828 1163.51 776.476 1176.06 776.986C1188.1 777.475 1195.05 792.511 1206.32 796.767C1220.74 802.208 1244.93 807.688 1262.54 809.63C1278.91 811.436 1303.59 822.615 1311.95 808.418C1322.57 790.367 1320.13 719.177 1326.3 701.329C1328.77 694.191 1341.88 703.949 1348.96 701.329C1358.42 697.828 1375.14 690.977 1383.09 680.323C1391.05 669.671 1396.16 649.007 1396.7 637.415C1397.14 627.892 1384.88 620.191 1386.32 610.769C1388.27 598.013 1399.58 574.194 1408.4 560.881C1416.32 548.926 1428.1 539.167 1439.25 530.89C1450.23 522.733 1463.36 514.001 1475.28 511.224C1486.85 508.528 1503.53 519.125 1510.8 514.222C1518.06 509.32 1514.43 491.999 1518.87 481.809C1523.31 471.62 1539.54 460.364 1537.43 453.088C1535.33 445.811 1515.28 440.505 1506.24 438.15C1498.8 436.211 1486.79 445.751 1483.18 438.958C1479.01 431.104 1485.34 402.228 1481.22 391.03C1477.79 381.699 1467.41 373.257 1458.45 371.767C1449.48 370.278 1433.37 377.064 1427.43 382.091C1422.25 386.478 1427.75 400.739 1422.82 401.931C1417.89 403.122 1406.79 391.945 1397.85 389.242C1388.1 386.291 1374.66 379.704 1364.3 384.225C1353.56 388.906 1343.13 406.496 1333.45 417.33C1324.14 427.753 1316.87 442.255 1306.24 449.224C1295.68 456.146 1279.8 455.625 1269.69 459.143C1261.3 462.058 1247.7 463.546 1245.53 470.332C1243.36 477.118 1257.7 492.163 1256.66 499.861C1255.61 507.561 1246.31 512.709 1239.24 516.53C1231.13 520.913 1218.88 526.634 1208 526.161C1194.5 525.575 1171.57 515.386 1158.3 513.012C1148.47 511.254 1136.59 509.733 1128.38 511.915C1120.64 513.969 1114.58 527.958 1109 526.103C1103.43 524.248 1099.26 509.418 1094.94 500.784C1089.91 490.739 1085.7 471.812 1078.85 465.834C1072.56 460.347 1060.42 459.787 1053.83 464.911C1046.88 470.314 1039 485.961 1037.17 498.246C1034.9 513.406 1043.92 543.771 1040.22 555.863C1037.36 565.215 1023.49 570.156 1014.97 570.801C1006.45 571.445 998.463 560.025 989.082 559.728C979.396 559.42 966.444 570.166 956.854 568.956C947.264 567.744 938.923 557.517 931.543 552.46C925.087 548.036 919.869 541.458 912.575 538.618C905.166 535.735 894.182 539.976 887.091 535.158C879.54 530.025 876.426 513.983 867.258 507.821C858.091 501.659 840.978 496.776 832.089 498.19C823.646 499.531 820.924 514.857 813.929 516.298C806.933 517.74 798.456 508.683 790.117 506.841C781.678 504.976 770.634 509.109 763.293 505.109C755.951 501.111 753.783 488.188 746.069 482.848C737.463 476.888 721.634 476.575 711.65 469.352C701.272 461.845 694.968 445.647 683.803 437.805C672.636 429.96 652.237 428.49 644.656 422.289C638.826 417.523 636.862 407.054 638.314 400.604C639.765 394.154 648.327 389.246 653.361 383.591C659.049 377.199 669.708 371.392 672.445 362.251C675.76 351.178 676.952 327.656 673.251 317.149C670.023 307.979 658.405 301.741 650.248 299.213C642.09 296.685 631.549 306.077 624.304 301.982C617.059 297.886 614.05 280.152 606.777 274.644C599.672 269.264 586.427 275.728 580.659 268.935C574.702 261.917 573.605 242.712 571.03 232.541C568.961 224.365 563.258 214.356 565.208 207.915C567.158 201.475 577.536 191.084 582.735 193.899C587.933 196.717 587.635 224.372 596.399 224.813C605.162 225.255 630.558 204.455 635.316 196.553C639.06 190.334 629.286 183.218 624.937 177.406C619.393 169.994 605.633 161.651 602.049 152.086C598.465 142.522 598.868 127.345 603.432 120.02C607.996 112.694 621.448 113.337 629.434 108.138C637.823 102.678 647.769 94.7971 653.764 87.2611C659.364 80.2223 663.673 71.7459 665.411 62.9216C667.342 53.1173 670.1 36.9594 665.353 28.4327C660.606 19.9073 646.904 15.2452 636.929 11.7655C626.956 8.28582 615.939 5.85624 605.509 7.55443C587.444 10.4959 543.857 29.0966 528.54 29.4127C520.234 29.586 520.919 9.96814 513.607 9.45763C506.294 8.94843 495.433 23.3818 484.665 26.3562C469.319 30.5951 439.147 30.9231 421.534 34.8922C406.832 38.2066 386.585 41.919 378.984 50.1759C371.384 58.4328 379.1 74.8698 375.929 84.4347C372.98 93.3264 361.096 98.2623 359.958 107.561C358.719 117.694 363.513 136.735 368.492 145.223C372.727 152.446 384.685 151.876 389.824 158.489C395.992 166.428 404.199 182.75 405.505 192.863C406.677 201.934 403.613 212.789 397.664 219.161C391.716 225.534 373.738 222.689 369.817 231.1C365.897 239.511 376.784 260.005 374.142 269.626C371.682 278.58 361.352 284.073 353.962 288.832C346.703 293.506 334.882 291.192 329.805 298.174C324.319 305.721 326.903 326.906 321.041 334.106C315.278 341.186 302.035 337.778 294.636 341.372C287.745 344.721 280.753 349.209 276.648 355.676C270.43 365.471 267.749 387.787 257.334 400.143C245.437 414.253 219.061 433.123 205.272 440.341C196.167 445.108 184.093 446.762 174.6 443.456C165.107 440.149 156.92 422.213 148.31 420.503C139.7 418.791 129.475 426.356 122.941 433.19C115.178 441.313 108.192 458.625 101.724 469.237C96.044 478.558 81.9968 487.933 84.1407 496.863C86.2833 505.792 110.641 513.463 114.581 522.816C118.521 532.169 105.29 542.977 107.778 552.979C110.411 563.562 124.624 574.963 130.379 586.316C135.921 597.247 142.457 612.758 142.313 621.093C142.198 627.722 135.913 634.582 129.515 636.319C123.105 638.059 110.949 630.061 103.858 631.532C96.7767 633 92.7494 644.816 86.9658 645.143C81.1808 645.469 75.9606 635.483 69.1506 633.492C60.2708 630.897 43.3497 627.542 33.6922 629.571V629.571Z" stroke="#FCFCFC" stroke-width="14" stroke-miterlimit="1.5" stroke-linecap="round" stroke-linejoin="round"/>
</svg>
