<svg width="190" height="190" viewBox="0 0 190 190" fill="none" xmlns="http://www.w3.org/2000/svg">
<path d="M90.5472 0.66795C87.4671 1.48436 85.3148 2.78318 82.9027 5.19529C79.7113 8.3867 77.93 12.6172 77.93 16.959V18.8887L76.557 19.1113C68.0589 20.5586 61.0824 26.9043 59.1898 34.957C56.7035 45.4961 62.4925 55.9238 72.9574 59.8203C74.7757 60.5254 75.889 60.6367 79.6 60.6367C84.016 60.6367 84.6468 60.4883 88.8031 58.8183C89.3968 58.5586 89.4339 58.9668 89.4339 64.1621V69.7656H85.3519H81.2699V75.332V80.8984H85.3519H89.4339V135.449V190H95.0004H100.567V185.547V181.094H112.813H125.059V175.527V169.961H112.813H100.567V165.137V160.312H109.102H117.637V154.746V149.18H109.102H100.567V144.355V139.531H112.813H125.059V133.965V128.398H112.813H100.567V104.648V80.8984H104.649H108.731V75.332V69.7656H104.649H100.567V64.1621C100.567 58.9668 100.604 58.5586 101.235 58.8183C105.911 60.7109 110.364 61.3047 114.371 60.4883C124.168 58.5957 131.368 49.8379 131.368 39.8926C131.368 29.6133 123.834 20.8555 113.481 19.1113L112.071 18.8887V16.959C112.071 7.68162 104.092 -0.111347 94.6664 0.0370903C93.7386 0.0370903 91.8832 0.333965 90.5472 0.66795ZM98.266 12.1347C100.159 13.5449 100.752 14.7324 100.752 17.0703C100.752 18.7031 100.567 19.5195 99.973 20.2988C97.4125 23.75 93.1078 23.9726 90.4359 20.7812C87.9867 17.9238 89.1 13.2109 92.5882 11.6523C94.0726 10.9472 97.0414 11.207 98.266 12.1347ZM82.9398 30.6894C84.0902 31.0605 85.4261 31.9512 86.4652 33.0273C90.3988 36.9238 90.3988 42.8613 86.4652 46.7949C80.5648 52.6953 70.6195 49.1328 69.8773 40.8574C69.2093 33.5469 75.9632 28.2773 82.9398 30.6894ZM114.557 30.9492C116.412 31.914 118.342 33.7324 119.233 35.4023C120.309 37.4433 120.383 42.2305 119.344 44.1601C116.116 50.2832 108.323 51.582 103.536 46.7949C99.6019 42.8613 99.6019 36.9238 103.536 32.9902C104.463 32.0625 105.985 31.0234 106.912 30.6894C108.953 29.9101 112.887 30.0586 114.557 30.9492Z" fill="#F48E6B"/>
</svg>
