<svg width="82" height="133" viewBox="0 0 82 133" fill="none" xmlns="http://www.w3.org/2000/svg">
<path d="M36.7494 0.273012C24.017 2.13252 13.9963 11.1201 10.5872 23.7234C9.96736 25.9962 9.91571 26.616 9.91571 31.3681C9.91571 36.1718 9.96736 36.7141 10.613 39.0385C12.4984 45.8309 16.863 52.5458 21.7184 56.0323C22.3899 56.4972 22.9322 56.9879 22.9322 57.0912C22.9322 57.2204 17.8703 71.1666 11.6719 88.1088C5.47356 105.051 0.28244 119.591 0.127482 120.418C-0.595659 124.369 1.83203 129.147 5.52521 131.007C8.03038 132.272 7.5655 132.246 41.9147 132.169L74.1978 132.091L75.9281 131.265C80.112 129.302 82.6172 124.679 81.8682 120.392C81.7132 119.591 76.548 105.051 70.3496 88.1088C64.1513 71.1925 59.0893 57.2204 59.0893 57.117C59.0893 56.9879 59.6058 56.523 60.1998 56.084C63.6606 53.6046 67.8186 48.2586 69.7039 43.8681C71.3827 39.9941 72.0283 37.1015 72.1833 32.7627C72.4674 25.4022 70.8661 19.6687 66.9405 13.7544C64.0996 9.46723 58.7535 4.92177 54.1306 2.85566C48.7329 0.453798 42.2504 -0.527608 36.7494 0.273012ZM45.892 9.69967C59.1409 12.7214 66.5789 26.7451 61.6461 39.5034C60.0965 43.5582 56.5066 47.8712 52.9942 49.9631C49.611 51.9518 48.4488 53.708 48.9911 55.9549C49.0944 56.4972 54.518 71.4249 61.0004 89.1418C67.4829 106.859 72.7773 121.657 72.7773 121.993C72.7773 122.38 72.5707 122.768 72.2866 122.923C71.5893 123.284 10.4322 123.284 9.73492 122.923C9.45083 122.768 9.24422 122.38 9.24422 121.993C9.24422 121.657 14.6161 106.678 21.176 88.7544C30.5769 63.0571 33.082 55.9032 33.082 54.9734C33.0562 53.0106 32.2298 51.8743 29.8537 50.5313C26.3413 48.5168 22.9581 44.8753 21.1244 41.1821C15.83 30.3867 20.0913 17.2668 30.6802 11.7658C35.613 9.20897 40.7267 8.51165 45.892 9.69967Z" fill="#E64456"/>
</svg>
