<svg width="1005" height="158" viewBox="0 0 1005 158" fill="none" xmlns="http://www.w3.org/2000/svg">
<path d="M15.9752 50.6758L15.7034 50.5671C15.5222 50.5308 15.2866 50.4221 14.9967 50.2409C14.7068 50.0597 14.4169 49.7879 14.127 49.4256C13.8371 49.0269 13.6016 48.5377 13.4204 47.9579C13.2392 47.3418 13.1486 46.5627 13.1486 45.6205V13.4408C13.1486 12.4986 13.2392 11.7376 13.4204 11.1577C13.6016 10.5417 13.8371 10.0525 14.127 9.69008C14.4169 9.32769 14.7068 9.0559 14.9967 8.87471C15.2866 8.69352 15.5222 8.56669 15.7034 8.49421L15.9752 8.43985H6.57129C6.60753 8.43985 6.75248 8.51233 7.00615 8.65728C7.25982 8.80224 7.54973 9.07402 7.87587 9.47265C8.23826 9.83503 8.5644 10.3424 8.85431 10.9947C9.14422 11.6107 9.32541 12.408 9.39789 13.3864V45.7292C9.32541 46.7077 9.14422 47.523 8.85431 48.1753C8.5644 48.7914 8.23826 49.2987 7.87587 49.6973C7.54973 50.0597 7.2417 50.3134 6.95179 50.4584L6.57129 50.6758H15.9752Z" fill="white"/>
<path d="M14.8341 98.6576C14.2905 103.55 12.4967 106.757 5.91945 106.757V110.29C9.28963 110.29 11.4639 110.29 13.747 108.116V136.219H18.6392V98.6576H14.8341Z" fill="white"/>
<line x1="44.0327" y1="1.01216" x2="44.0327" y2="156.885" stroke="#C4C4C4" stroke-width="2.02432" stroke-linecap="round"/>
<line x1="44.0327" y1="1.01216" x2="44.0327" y2="156.885" stroke="black" stroke-opacity="0.2" stroke-width="2.02432" stroke-linecap="round"/>
<path d="M72.3736 50.6758L72.1018 50.5671C71.9206 50.5308 71.6851 50.4221 71.3952 50.2409C71.1053 50.0597 70.8154 49.7879 70.5254 49.4256C70.2355 49.0269 70 48.5377 69.8188 47.9579C69.6376 47.3418 69.547 46.5627 69.547 45.6205V13.4408C69.547 12.4986 69.6376 11.7376 69.8188 11.1577C70 10.5417 70.2355 10.0525 70.5254 9.69008C70.8154 9.32769 71.1053 9.0559 71.3952 8.87471C71.6851 8.69352 71.9206 8.56669 72.1018 8.49421L72.3736 8.43985H62.9697C63.006 8.43985 63.1509 8.51233 63.4046 8.65728C63.6583 8.80224 63.9482 9.07402 64.2743 9.47265C64.6367 9.83503 64.9628 10.3424 65.2527 10.9947C65.5427 11.6107 65.7238 12.408 65.7963 13.3864V45.7292C65.7238 46.7077 65.5427 47.523 65.2527 48.1753C64.9628 48.7914 64.6367 49.2987 64.2743 49.6973C63.9482 50.0597 63.6401 50.3134 63.3502 50.4584L62.9697 50.6758H72.3736ZM93.1298 50.6758L79.2685 13.3864C78.6887 12.0818 78.0364 11.0671 77.3117 10.3424C76.5869 9.6176 75.9708 9.11026 75.4635 8.82036L74.6481 8.43985H84.052L83.8346 8.49421C83.436 8.63916 83.1098 8.89283 82.8561 9.25522C82.6025 9.6176 82.4756 10.1068 82.4756 10.7229C82.4756 11.4839 82.6568 12.408 83.0192 13.4951L93.8364 42.9026L104.654 13.4951C105.016 12.4804 105.197 11.647 105.197 10.9947C105.197 9.87127 104.907 9.11026 104.327 8.71164L103.675 8.43985H111.122L110.361 8.82036C109.818 9.11026 109.183 9.6176 108.459 10.3424C107.734 11.0671 107.082 12.0818 106.502 13.3864L93.1298 50.6758Z" fill="white"/>
<path d="M97.8763 136.219V127.413H103.04V123.064H97.8763V98.6576H92.9841L74.883 123.064V127.413H92.9841V136.219H97.8763ZM92.9841 105.452V123.064H79.8839L92.9841 105.452Z" fill="white"/>
<line x1="135.93" y1="1.01216" x2="135.93" y2="156.885" stroke="#C4C4C4" stroke-width="2.02432" stroke-linecap="round"/>
<line x1="135.93" y1="1.01216" x2="135.93" y2="156.885" stroke="black" stroke-opacity="0.2" stroke-width="2.02432" stroke-linecap="round"/>
<path d="M173.349 50.6758L159.488 13.3864C158.908 12.0818 158.255 11.0671 157.531 10.3424C156.806 9.6176 156.19 9.11026 155.683 8.82036L154.867 8.43985H164.271L164.054 8.49421C163.655 8.63916 163.329 8.89283 163.075 9.25522C162.822 9.6176 162.695 10.1068 162.695 10.7229C162.695 11.4839 162.876 12.408 163.238 13.4951L174.055 42.9026L184.873 13.4951C185.235 12.4804 185.416 11.647 185.416 10.9947C185.416 9.87127 185.126 9.11026 184.546 8.71164L183.894 8.43985H191.341L190.58 8.82036C190.037 9.11026 189.402 9.6176 188.678 10.3424C187.953 11.0671 187.301 12.0818 186.721 13.3864L173.349 50.6758Z" fill="white"/>
<path d="M175.674 110.997C171.489 110.997 168.662 112.301 166.76 114.476V114.367L168.988 103.006H185.676V98.6576H165.02L161.107 118.879H166.325C168.227 116.433 171.163 115.345 174.533 115.345C179.371 115.345 182.795 117.737 182.795 123.39C182.795 129.424 179.153 132.631 173.989 132.631C168.119 132.631 165.944 129.044 165.51 125.402H160.617C160.835 131.435 165.618 136.98 174.207 136.98C181.763 136.98 187.688 131.49 187.688 123.39C187.688 116.433 182.741 110.997 175.674 110.997Z" fill="white"/>
<line x1="215.829" y1="1.01216" x2="215.829" y2="156.885" stroke="#C4C4C4" stroke-width="2.02432" stroke-linecap="round"/>
<line x1="215.829" y1="1.01216" x2="215.829" y2="156.885" stroke="black" stroke-opacity="0.2" stroke-width="2.02432" stroke-linecap="round"/>
<path d="M253.247 50.6758L239.386 13.3864C238.806 12.0818 238.154 11.0671 237.429 10.3424C236.704 9.6176 236.088 9.11026 235.581 8.82036L234.766 8.43985H244.17L243.952 8.49421C243.553 8.63916 243.227 8.89283 242.974 9.25522C242.72 9.6176 242.593 10.1068 242.593 10.7229C242.593 11.4839 242.774 12.408 243.137 13.4951L253.954 42.9026L264.771 13.4951C265.133 12.4804 265.315 11.647 265.315 10.9947C265.315 9.87127 265.025 9.11026 264.445 8.71164L263.793 8.43985H271.24L270.479 8.82036C269.935 9.11026 269.301 9.6176 268.576 10.3424C267.851 11.0671 267.199 12.0818 266.619 13.3864L253.247 50.6758ZM283.611 50.6758L283.339 50.5671C283.158 50.5308 282.922 50.4221 282.632 50.2409C282.342 50.0597 282.052 49.7879 281.763 49.4256C281.473 49.0269 281.237 48.5377 281.056 47.9579C280.875 47.3418 280.784 46.5627 280.784 45.6205V13.4408C280.784 12.4986 280.875 11.7376 281.056 11.1577C281.237 10.5417 281.473 10.0525 281.763 9.69008C282.052 9.32769 282.342 9.0559 282.632 8.87471C282.922 8.69352 283.158 8.56669 283.339 8.49421L283.611 8.43985H274.207C274.243 8.43985 274.388 8.51233 274.642 8.65728C274.895 8.80224 275.185 9.07402 275.511 9.47265C275.874 9.83503 276.2 10.3424 276.49 10.9947C276.78 11.6107 276.961 12.408 277.033 13.3864V45.7292C276.961 46.7077 276.78 47.523 276.49 48.1753C276.2 48.7914 275.874 49.2987 275.511 49.6973C275.185 50.0597 274.877 50.3134 274.587 50.4584L274.207 50.6758H283.611Z" fill="white"/>
<path d="M252.55 117.302V117.194C252.658 109.638 254.126 102.245 261.899 102.245C266.139 102.245 268.422 104.528 268.911 108.17H273.803C273.26 102.68 268.911 97.8966 261.899 97.8966C252.55 97.8966 247.657 104.909 247.657 117.411C247.657 129.37 251.462 136.98 261.736 136.98C269.89 136.98 274.782 131.055 274.782 124.097C274.782 116.65 269.781 111.703 262.606 111.703C258.203 111.703 254.398 113.769 252.55 117.302ZM261.736 132.631C256.3 132.631 253.093 129.37 253.093 124.532C253.093 119.477 256.735 116.052 262.171 116.052C266.628 116.052 269.89 119.042 269.89 124.423C269.89 129.424 266.9 132.631 261.736 132.631Z" fill="white"/>
<line x1="308.727" y1="1.01216" x2="308.727" y2="156.885" stroke="#C4C4C4" stroke-width="2.02432" stroke-linecap="round"/>
<line x1="308.727" y1="1.01216" x2="308.727" y2="156.885" stroke="black" stroke-opacity="0.2" stroke-width="2.02432" stroke-linecap="round"/>
<path d="M337.067 50.6758L336.795 50.5671C336.614 50.5308 336.378 50.4221 336.089 50.2409C335.799 50.0597 335.509 49.7879 335.219 49.4256C334.929 49.0269 334.693 48.5377 334.512 47.9579C334.331 47.3418 334.24 46.5627 334.24 45.6205V13.4408C334.24 12.4986 334.331 11.7376 334.512 11.1577C334.693 10.5417 334.929 10.0525 335.219 9.69008C335.509 9.32769 335.799 9.0559 336.089 8.87471C336.378 8.69352 336.614 8.56669 336.795 8.49421L337.067 8.43985H327.663C327.699 8.43985 327.844 8.51233 328.098 8.65728C328.352 8.80224 328.642 9.07402 328.968 9.47265C329.33 9.83503 329.656 10.3424 329.946 10.9947C330.236 11.6107 330.417 12.408 330.49 13.3864V45.7292C330.417 46.7077 330.236 47.523 329.946 48.1753C329.656 48.7914 329.33 49.2987 328.968 49.6973C328.642 50.0597 328.333 50.3134 328.044 50.4584L327.663 50.6758H337.067ZM375.403 50.6758L374.914 50.5127C374.552 50.4402 374.08 50.2409 373.501 49.9148C372.957 49.5886 372.341 49.0994 371.652 48.4471C371 47.7586 370.348 46.8526 369.696 45.7292L359.748 28.5522L369.533 13.4951C370.547 11.9731 371.508 10.8678 372.413 10.1793C373.356 9.45453 374.117 8.98343 374.697 8.766C375.313 8.54857 375.639 8.43985 375.675 8.43985H368.119L368.282 8.54857C368.355 8.62104 368.427 8.72976 368.5 8.87471C368.608 9.01967 368.681 9.20086 368.717 9.41829C368.79 9.63572 368.826 9.85315 368.826 10.0706C368.826 10.9765 368.463 12.0999 367.739 13.4408L358.878 27.0845C353.189 17.2639 350.272 12.1543 350.127 11.7557C349.909 11.1396 349.801 10.6142 349.801 10.1793L349.855 9.52701C349.928 9.12838 350.109 8.8566 350.399 8.71164C350.689 8.53045 350.87 8.43985 350.942 8.43985H341.484C341.52 8.43985 341.828 8.58481 342.408 8.87471C342.988 9.16462 343.713 9.67196 344.582 10.3967C345.452 11.1215 346.34 12.1362 347.246 13.4408L356.867 30.0742L346.702 45.7292C345.833 47.0701 344.927 48.1029 343.984 48.8276C343.078 49.5524 342.317 50.0416 341.701 50.2953C341.122 50.5489 340.777 50.6758 340.669 50.6758H344.474C346.974 50.6758 348.188 50.6577 348.116 50.6214C347.5 50.5127 347.192 50.0235 347.192 49.1538C347.192 48.3203 347.663 47.1788 348.605 45.7292L357.791 31.5962L365.945 45.7292C366.561 46.9613 366.869 47.976 366.869 48.7733C366.869 49.3893 366.724 49.8967 366.434 50.2953L365.999 50.6758H375.403Z" fill="white"/>
<path d="M361.57 117.574V117.683C361.461 125.238 359.993 132.631 352.22 132.631C347.98 132.631 345.697 130.348 345.208 126.706H340.316C340.859 132.196 345.208 136.98 352.22 136.98C361.57 136.98 366.462 129.968 366.462 117.465C366.462 105.507 362.657 97.8966 352.383 97.8966C344.23 97.8966 339.337 103.822 339.337 110.779C339.337 118.226 344.338 123.173 351.514 123.173C355.916 123.173 359.722 121.107 361.57 117.574ZM352.383 102.245C357.819 102.245 361.026 105.507 361.026 110.344C361.026 115.4 357.384 118.824 351.948 118.824C347.491 118.824 344.23 115.835 344.23 110.453C344.23 105.452 347.219 102.245 352.383 102.245Z" fill="white"/>
<line x1="399.624" y1="1.01216" x2="399.624" y2="156.885" stroke="#C4C4C4" stroke-width="2.02432" stroke-linecap="round"/>
<line x1="399.624" y1="1.01216" x2="399.624" y2="156.885" stroke="black" stroke-opacity="0.2" stroke-width="2.02432" stroke-linecap="round"/>
<path d="M460.796 50.6758L460.307 50.5127C459.944 50.4402 459.473 50.2409 458.894 49.9148C458.35 49.5886 457.734 49.0994 457.045 48.4471C456.393 47.7586 455.741 46.8526 455.089 45.7292L445.141 28.5522L454.925 13.4951C455.94 11.9731 456.9 10.8678 457.806 10.1793C458.749 9.45453 459.51 8.98343 460.089 8.766C460.705 8.54857 461.032 8.43985 461.068 8.43985H453.512L453.675 8.54857C453.748 8.62104 453.82 8.72976 453.893 8.87471C454.001 9.01967 454.074 9.20086 454.11 9.41829C454.183 9.63572 454.219 9.85315 454.219 10.0706C454.219 10.9765 453.856 12.0999 453.132 13.4408L444.271 27.0845C438.582 17.2639 435.665 12.1543 435.52 11.7557C435.302 11.1396 435.194 10.6142 435.194 10.1793L435.248 9.52701C435.32 9.12838 435.502 8.8566 435.792 8.71164C436.081 8.53045 436.263 8.43985 436.335 8.43985H426.877C426.913 8.43985 427.221 8.58481 427.801 8.87471C428.381 9.16462 429.106 9.67196 429.975 10.3967C430.845 11.1215 431.733 12.1362 432.639 13.4408L442.26 30.0742L432.095 45.7292C431.226 47.0701 430.32 48.1029 429.377 48.8276C428.471 49.5524 427.71 50.0416 427.094 50.2953C426.515 50.5489 426.17 50.6758 426.062 50.6758H429.867C432.367 50.6758 433.581 50.6577 433.509 50.6214C432.892 50.5127 432.584 50.0235 432.584 49.1538C432.584 48.3203 433.056 47.1788 433.998 45.7292L443.184 31.5962L451.338 45.7292C451.954 46.9613 452.262 47.976 452.262 48.7733C452.262 49.3893 452.117 49.8967 451.827 50.2953L451.392 50.6758H460.796Z" fill="white"/>
<path d="M429.324 98.6576C428.781 103.55 426.987 106.757 420.41 106.757V110.29C423.78 110.29 425.954 110.29 428.237 108.116V136.219H433.129V98.6576H429.324ZM454.204 136.98C464.478 136.98 468.663 128.119 468.663 117.465C468.663 106.811 464.478 97.8966 454.204 97.8966C443.93 97.8966 439.745 106.811 439.745 117.465C439.745 128.119 443.93 136.98 454.204 136.98ZM454.204 132.631C447.029 132.631 444.637 125.456 444.637 117.465C444.637 109.475 447.029 102.245 454.204 102.245C461.379 102.245 463.771 109.475 463.771 117.465C463.771 125.456 461.379 132.631 454.204 132.631Z" fill="white"/>
<line x1="492.523" y1="1.01216" x2="492.523" y2="156.885" stroke="#C4C4C4" stroke-width="2.02432" stroke-linecap="round"/>
<line x1="492.523" y1="1.01216" x2="492.523" y2="156.885" stroke="black" stroke-opacity="0.2" stroke-width="2.02432" stroke-linecap="round"/>
<path d="M555.4 50.6758H527.46L527.84 50.4584C528.094 50.3134 528.402 50.0597 528.765 49.6973C529.127 49.2987 529.453 48.7914 529.743 48.1753C530.033 47.523 530.214 46.7077 530.287 45.7292V13.3864C530.214 12.408 530.033 11.6107 529.743 10.9947C529.453 10.3424 529.127 9.83503 528.765 9.47265C528.402 9.07402 528.094 8.80224 527.84 8.65728L527.46 8.43985H536.864L536.592 8.54857C536.375 8.58481 536.121 8.71164 535.831 8.92907C535.577 9.11027 535.306 9.38205 535.016 9.74444C534.726 10.1068 534.472 10.596 534.255 11.2121C534.073 11.7919 533.983 12.5529 533.983 13.4951V45.7292C533.983 47.5049 534.4 48.8276 535.233 49.6973H550.399C551.051 49.6973 551.595 49.5705 552.03 49.3168C552.465 49.0632 552.791 48.7551 553.008 48.3928C553.262 48.0304 553.443 47.668 553.552 47.3056C553.66 46.9432 553.715 46.6352 553.715 46.3815L553.769 46.001L555.4 50.6758Z" fill="white"/>
<path d="M527.767 110.997C523.582 110.997 520.755 112.301 518.853 114.476V114.367L521.081 103.006H537.769V98.6576H517.113L513.199 118.879H518.418C520.32 116.433 523.256 115.345 526.626 115.345C531.464 115.345 534.888 117.737 534.888 123.39C534.888 129.424 531.246 132.631 526.082 132.631C520.212 132.631 518.037 129.044 517.602 125.402H512.71C512.928 131.435 517.711 136.98 526.3 136.98C533.855 136.98 539.78 131.49 539.78 123.39C539.78 116.433 534.834 110.997 527.767 110.997ZM558.356 136.98C568.63 136.98 572.815 128.119 572.815 117.465C572.815 106.811 568.63 97.8966 558.356 97.8966C548.083 97.8966 543.897 106.811 543.897 117.465C543.897 128.119 548.083 136.98 558.356 136.98ZM558.356 132.631C551.181 132.631 548.789 125.456 548.789 117.465C548.789 109.475 551.181 102.245 558.356 102.245C565.531 102.245 567.923 109.475 567.923 117.465C567.923 125.456 565.531 132.631 558.356 132.631Z" fill="white"/>
<line x1="596.42" y1="1.01216" x2="596.42" y2="156.885" stroke="#C4C4C4" stroke-width="2.02432" stroke-linecap="round"/>
<line x1="596.42" y1="1.01216" x2="596.42" y2="156.885" stroke="black" stroke-opacity="0.2" stroke-width="2.02432" stroke-linecap="round"/>
<path d="M659.405 50.404C662.666 50.404 665.275 50.0597 667.232 49.3712C669.225 48.6827 670.874 47.7948 672.179 46.7077C673.52 45.5843 674.77 44.3522 675.929 43.0113L676.201 42.6852L675.712 41.1088L674.951 41.9785C674.081 43.1019 673.03 44.2072 671.798 45.2944C670.602 46.3815 669.026 47.3056 667.069 48.0666C665.112 48.8276 662.557 49.2081 659.405 49.2081C656.397 49.2081 653.643 48.3203 651.142 46.5446C648.678 44.7327 646.703 42.3228 645.217 39.315C643.768 36.3072 643.043 32.9914 643.043 29.3676C643.043 25.7075 643.768 22.3735 645.217 19.3657C646.703 16.358 648.678 13.9662 651.142 12.1905C653.643 10.4148 656.397 9.52701 659.405 9.52701C662.231 9.52701 664.605 10.0706 666.525 11.1577C668.446 12.2087 669.823 13.4408 670.657 14.8541C671.273 15.905 671.581 16.9015 671.581 17.8437C671.581 18.2061 671.545 18.5504 671.472 18.8765L677.017 16.1043C676.727 15.9956 676.455 15.8506 676.201 15.6694C675.984 15.452 675.784 15.2346 675.603 15.0171C673.719 12.8428 671.363 11.194 668.537 10.0706C665.746 8.94719 662.702 8.38549 659.405 8.38549C655.636 8.38549 652.193 9.32769 649.077 11.2121C645.996 13.0965 643.532 15.6332 641.684 18.8222C639.836 22.0112 638.912 25.5263 638.912 29.3676C638.912 33.2451 639.836 36.7783 641.684 39.9673C643.532 43.1563 645.996 45.693 649.077 47.5774C652.193 49.4618 655.636 50.404 659.405 50.404Z" fill="white"/>
<path d="M626.12 98.6576C625.577 103.55 623.783 106.757 617.206 106.757V110.29C620.576 110.29 622.75 110.29 625.033 108.116V136.219H629.925V98.6576H626.12ZM651 136.98C661.274 136.98 665.459 128.119 665.459 117.465C665.459 106.811 661.274 97.8966 651 97.8966C640.726 97.8966 636.541 106.811 636.541 117.465C636.541 128.119 640.726 136.98 651 136.98ZM651 132.631C643.825 132.631 641.433 125.456 641.433 117.465C641.433 109.475 643.825 102.245 651 102.245C658.175 102.245 660.567 109.475 660.567 117.465C660.567 125.456 658.175 132.631 651 132.631ZM684.708 136.98C694.982 136.98 699.167 128.119 699.167 117.465C699.167 106.811 694.982 97.8966 684.708 97.8966C674.434 97.8966 670.249 106.811 670.249 117.465C670.249 128.119 674.434 136.98 684.708 136.98ZM684.708 132.631C677.533 132.631 675.141 125.456 675.141 117.465C675.141 109.475 677.533 102.245 684.708 102.245C691.883 102.245 694.275 109.475 694.275 117.465C694.275 125.456 691.883 132.631 684.708 132.631Z" fill="white"/>
<line x1="723.319" y1="1.01216" x2="723.319" y2="156.885" stroke="#C4C4C4" stroke-width="2.02432" stroke-linecap="round"/>
<line x1="723.319" y1="1.01216" x2="723.319" y2="156.885" stroke="black" stroke-opacity="0.2" stroke-width="2.02432" stroke-linecap="round"/>
<path d="M785.954 50.7845C790.665 50.7845 794.451 49.7879 797.314 47.7948C800.213 45.7655 802.315 43.0838 803.62 39.7499C804.961 36.3797 805.631 32.7015 805.631 28.7153C805.631 25.2364 804.979 21.9749 803.674 18.9309C800.848 12.1543 794.343 8.65728 784.16 8.43985H774.756L775.136 8.65728C775.39 8.80224 775.698 9.07402 776.06 9.47265C776.423 9.83503 776.749 10.3424 777.039 10.9947C777.329 11.6107 777.51 12.408 777.582 13.3864V45.7292C777.51 46.7077 777.329 47.523 777.039 48.1753C776.749 48.7914 776.423 49.2987 776.06 49.6973C775.698 50.0597 775.39 50.3134 775.136 50.4584L774.756 50.6758L785.954 50.7845ZM784.268 49.8604H782.692C781.75 48.9907 781.279 47.5774 781.279 45.6205V13.4408C781.279 11.5201 781.732 10.1431 782.638 9.30958L785.029 9.25522C791.154 9.25522 795.557 11.2483 798.238 15.2346C800.449 18.5323 801.554 23.0077 801.554 28.6609C801.554 34.7127 800.34 39.5868 797.912 43.2831C795.049 47.668 790.501 49.8604 784.268 49.8604Z" fill="white"/>
<path d="M758.563 110.997C754.378 110.997 751.551 112.301 749.649 114.476V114.367L751.877 103.006H768.565V98.6576H747.909L743.995 118.879H749.214C751.116 116.433 754.051 115.345 757.422 115.345C762.259 115.345 765.684 117.737 765.684 123.39C765.684 129.424 762.042 132.631 756.878 132.631C751.007 132.631 748.833 129.044 748.398 125.402H743.506C743.724 131.435 748.507 136.98 757.096 136.98C764.651 136.98 770.576 131.49 770.576 123.39C770.576 116.433 765.63 110.997 758.563 110.997ZM789.152 136.98C799.426 136.98 803.611 128.119 803.611 117.465C803.611 106.811 799.426 97.8966 789.152 97.8966C778.879 97.8966 774.693 106.811 774.693 117.465C774.693 128.119 778.879 136.98 789.152 136.98ZM789.152 132.631C781.977 132.631 779.585 125.456 779.585 117.465C779.585 109.475 781.977 102.245 789.152 102.245C796.327 102.245 798.719 109.475 798.719 117.465C798.719 125.456 796.327 132.631 789.152 132.631ZM822.86 136.98C833.134 136.98 837.319 128.119 837.319 117.465C837.319 106.811 833.134 97.8966 822.86 97.8966C812.587 97.8966 808.401 106.811 808.401 117.465C808.401 128.119 812.587 136.98 822.86 136.98ZM822.86 132.631C815.685 132.631 813.293 125.456 813.293 117.465C813.293 109.475 815.685 102.245 822.86 102.245C830.035 102.245 832.427 109.475 832.427 117.465C832.427 125.456 830.035 132.631 822.86 132.631Z" fill="white"/>
<line x1="861.217" y1="1.01216" x2="861.217" y2="156.885" stroke="#C4C4C4" stroke-width="2.02432" stroke-linecap="round"/>
<line x1="861.217" y1="1.01216" x2="861.217" y2="156.885" stroke="black" stroke-opacity="0.2" stroke-width="2.02432" stroke-linecap="round"/>
<path d="M960.237 50.6758L959.966 50.5671C959.784 50.5308 959.549 50.4221 959.259 50.2409C958.969 50.0597 958.679 49.7879 958.389 49.4256C958.099 49.0269 957.864 48.5377 957.683 47.9579C957.501 47.3418 957.411 46.5627 957.411 45.6205V13.4408C957.411 12.4986 957.501 11.7376 957.683 11.1577C957.864 10.5417 958.099 10.0525 958.389 9.69008C958.679 9.32769 958.969 9.0559 959.259 8.87471C959.549 8.69352 959.784 8.56669 959.966 8.49421L960.237 8.43985H950.236L950.453 8.49421C950.779 8.60292 951.069 8.82035 951.323 9.1465C951.576 9.47265 951.703 9.96187 951.703 10.6142C951.703 11.4114 951.468 12.3536 950.997 13.4408L937.951 44.2616L924.959 13.4408C924.488 12.3536 924.253 11.4476 924.253 10.7229C924.253 10.4692 924.271 10.2155 924.307 9.96187C924.343 9.67196 924.434 9.41829 924.579 9.20086C924.724 8.98343 924.887 8.82036 925.068 8.71164C925.249 8.60293 925.412 8.53045 925.557 8.49421L925.72 8.43985H916.153L916.534 8.65728C916.787 8.80224 917.077 9.07402 917.404 9.47265C917.766 9.83503 918.092 10.3424 918.382 10.9947C918.672 11.6107 918.871 12.408 918.98 13.3864V45.7292C918.871 46.7077 918.672 47.523 918.382 48.1753C918.092 48.7914 917.766 49.2987 917.404 49.6973C917.077 50.0597 916.787 50.3134 916.534 50.4584L916.153 50.6758H923.6L923.274 50.5671C922.694 50.4221 922.187 50.0235 921.752 49.3712C921.064 48.4652 920.719 47.215 920.719 45.6205C920.719 23.8412 920.737 12.8247 920.774 12.571C920.991 12.9697 926.409 25.6712 937.027 50.6758L952.736 13.3864C952.953 12.9153 953.207 12.4804 953.497 12.0818C953.57 12.4804 953.624 12.9153 953.66 13.3864V45.7292C953.588 46.7077 953.406 47.523 953.117 48.1753C952.827 48.7914 952.501 49.2987 952.138 49.6973C951.812 50.0597 951.522 50.3134 951.268 50.4584L950.834 50.6758H960.237Z" fill="white"/>
<path d="M890.916 98.6576C890.373 103.55 888.579 106.757 882.001 106.757V110.29C885.372 110.29 887.546 110.29 889.829 108.116V136.219H894.721V98.6576H890.916ZM915.796 136.98C926.069 136.98 930.255 128.119 930.255 117.465C930.255 106.811 926.069 97.8966 915.796 97.8966C905.522 97.8966 901.337 106.811 901.337 117.465C901.337 128.119 905.522 136.98 915.796 136.98ZM915.796 132.631C908.621 132.631 906.229 125.456 906.229 117.465C906.229 109.475 908.621 102.245 915.796 102.245C922.971 102.245 925.363 109.475 925.363 117.465C925.363 125.456 922.971 132.631 915.796 132.631ZM949.504 136.98C959.778 136.98 963.963 128.119 963.963 117.465C963.963 106.811 959.778 97.8966 949.504 97.8966C939.23 97.8966 935.045 106.811 935.045 117.465C935.045 128.119 939.23 136.98 949.504 136.98ZM949.504 132.631C942.329 132.631 939.937 125.456 939.937 117.465C939.937 109.475 942.329 102.245 949.504 102.245C956.679 102.245 959.071 109.475 959.071 117.465C959.071 125.456 956.679 132.631 949.504 132.631ZM983.212 136.98C993.486 136.98 997.671 128.119 997.671 117.465C997.671 106.811 993.486 97.8966 983.212 97.8966C972.939 97.8966 968.753 106.811 968.753 117.465C968.753 128.119 972.939 136.98 983.212 136.98ZM983.212 132.631C976.037 132.631 973.645 125.456 973.645 117.465C973.645 109.475 976.037 102.245 983.212 102.245C990.387 102.245 992.779 109.475 992.779 117.465C992.779 125.456 990.387 132.631 983.212 132.631Z" fill="white"/>
</svg>
