<svg width="266" height="259" viewBox="0 0 266 259" fill="none" xmlns="http://www.w3.org/2000/svg">
<rect x="117" y="70" width="32" height="189" fill="#F48E6B"/>
<rect x="2.5" y="2.5" width="261" height="65" fill="#F48E6B" stroke="#E64456" stroke-width="5"/>
<mask id="mask0_600_1044" style="mask-type:alpha" maskUnits="userSpaceOnUse" x="0" y="0" width="266" height="70">
<rect opacity="0.4" x="2.5" y="2.5" width="261" height="65" fill="#F48E6B" stroke="#E64456" stroke-width="5"/>
</mask>
<g mask="url(#mask0_600_1044)">
<mask id="mask1_600_1044" style="mask-type:alpha" maskUnits="userSpaceOnUse" x="0" y="-63" width="288" height="215">
<rect y="-62.7852" width="287.077" height="213.967" fill="#01002D"/>
</mask>
<g mask="url(#mask1_600_1044)">
<path fill-rule="evenodd" clip-rule="evenodd" d="M98.2949 3.86269C98.2755 -1.16891 90.547 -6.82707 87.2457 -9.74419C80.7182 -15.5139 73.9291 -20.8419 67.203 -26.255C60.4769 -31.6681 53.7327 -37.0665 47.3189 -43.0093C43.1545 -46.867 38.2612 -51.2119 35.4369 -56.7204C29.4202 -68.4593 48.3903 -66.7161 53.3041 -66.9729C65.8048 -67.6288 80.1431 -67.3294 91.8605 -73.4425C98.8554 -77.0918 101.645 -83.2122 100.142 -92.1323C99.658 -95.0333 98.2246 -98.3715 99.4389 -101.198C100.735 -104.216 103.718 -105.958 106.194 -107.126C115.224 -111.381 125.606 -111.874 135.16 -112.408C145.462 -112.995 155.861 -112.824 166.091 -112.869C170.428 -112.888 174.958 -114.777 179.089 -116.312C184.504 -118.323 189.855 -120.583 195.225 -122.768C207.039 -127.563 219.213 -132.614 231.713 -133.832C239.54 -134.595 248.096 -133.563 254.176 -126.926C257.23 -123.594 258.828 -118.64 260.593 -114.24C262.729 -108.923 264.781 -103.556 267.056 -98.3231C274.384 -81.4704 284.846 -65.0022 301.827 -64.1746C304.396 -64.0499 306.919 -64.4563 309.475 -64.5326C311.104 -64.5796 312.553 -64.1027 313.158 -62.0381C314.68 -56.8598 309.897 -48.6851 307.936 -44.5765C303.642 -35.583 298.799 -26.9931 294.263 -18.1801C291.262 -12.3517 286.067 -4.38684 286.013 2.69466C285.964 9.00433 292.889 13.5649 296.659 16.6728C300.191 19.5826 306.592 23.6545 306.979 29.5738C307.167 32.444 305.605 34.8226 303.974 36.6685C301.116 39.8968 297.823 42.1741 295.252 45.8572C291.036 51.8998 287.513 60.2139 288.085 68.3563C288.482 73.9983 291.138 77.6931 294.517 81.2251C295.937 82.71 297.09 83.7607 297.165 86.1716C297.286 89.9999 296.049 94.0513 295.029 97.6009C291.383 110.304 286.204 122.587 280.443 134.056C277.564 139.788 274.454 145.501 270.637 150.391C268.137 153.601 264.766 157.422 260.952 157.418C256.537 157.418 251.865 155.487 247.574 154.043C239.558 151.345 231.64 148.225 223.753 145.025C205.513 137.62 187.445 129.616 169.548 121.013C156.942 114.942 144.069 108.863 132.217 100.792C129.906 99.2075 127.724 97.3596 125.702 95.2736C123.541 93.0828 120.859 92.1026 118.14 91.3719C101.264 86.8363 82.7762 90.3183 65.8302 92.5018C61.5289 93.055 57.2277 93.6111 52.9143 93.9985C49.2063 94.3316 44.767 95.2868 41.1631 93.8517C34.0617 91.0271 40.2696 80.6161 42.8942 76.374C52.1347 61.4377 64.0567 48.8007 75.107 35.8996C80.361 29.7558 85.655 23.6281 90.6233 17.1365C93.2103 13.7615 98.3118 8.27358 98.2949 3.86269Z" stroke="#451D73" stroke-width="0.897114"/>
<path fill-rule="evenodd" clip-rule="evenodd" d="M101.479 3.01456C98.6469 -2.30962 93.6776 -6.24482 89.5527 -9.94828C83.6167 -15.2798 77.4941 -20.315 71.4636 -25.4955C65.7614 -30.3943 60.0471 -35.3489 54.7665 -40.9121C51.5465 -44.3046 47.5064 -48.3616 45.9812 -53.3792C42.6728 -64.2549 60.4711 -62.6048 64.865 -62.8894C75.7884 -63.5934 88.1729 -63.7548 98.2786 -69.4808C104.589 -73.0567 107.181 -78.9866 105.835 -87.2193C105.37 -90.0676 104.532 -92.4994 105.593 -95.3331C106.82 -98.6127 109.643 -100.657 112.231 -102.101C120.336 -106.622 129.917 -107.583 138.704 -108.383C147.781 -109.208 157.239 -109.791 166.024 -109.186C169.537 -108.946 173.581 -110.311 177.058 -111.358C182.407 -112.972 187.703 -114.833 193.026 -116.564C203.844 -120.084 214.943 -123.475 226.197 -123.861C234.322 -124.139 242.794 -122.629 249.553 -116.79C256.404 -110.869 259.443 -101.69 263.242 -92.9644C269.804 -77.8792 278.665 -59.5379 293.844 -56.3508C296.146 -55.8667 298.358 -56.1293 300.657 -56.0105C301.84 -55.9503 303.186 -55.7597 303.785 -54.3472C305.342 -50.6804 301.077 -43.9761 299.641 -41.1673C295.675 -33.4055 291.216 -26.0235 287.059 -18.4112C283.758 -12.3669 279.574 -5.6508 278.297 1.51411C276.747 10.2088 286.871 16.3954 290.432 22.5175C296.604 33.1336 284.91 39.1823 279.145 44.2439C272.524 50.0551 267.06 60.6565 272.994 69.6475C275.265 73.0854 278.058 75.1344 279.072 79.6211C280.658 86.6379 279.459 94.6564 278.172 101.593C276.234 112.019 273.166 122.333 268.997 131.757C266.009 138.504 261.053 149.083 253.796 148.29C248.91 147.76 243.943 145.826 239.186 144.116C232.063 141.556 225.029 138.639 218.033 135.609C201.884 128.633 185.912 120.941 170.254 112.481C159.571 106.707 129.77 83.109 127.527 82.2671C120.841 79.759 113.24 80.2005 106.347 80.5892C97.1774 81.1054 88.0541 82.4431 78.9381 83.6825C74.5988 84.2692 70.2377 84.9864 65.8753 85.2753C62.7704 85.4807 58.6927 85.6567 55.9731 83.4698C50.6646 79.2031 56.5788 69.4407 59.0247 65.3104C66.5173 52.6482 75.9956 41.6831 84.8826 30.4715C89.2438 24.9669 93.6715 19.4711 97.6305 13.525C99.2271 11.124 103.23 6.30294 101.479 3.01456Z" stroke="#3E4AF6" stroke-width="0.897114"/>
<path fill-rule="evenodd" clip-rule="evenodd" d="M105.398 0.283665C97.6625 -10.3706 86.9866 -18.2946 77.7726 -27.1927C73.148 -31.6601 68.4944 -36.2493 64.5057 -41.5705C62.4309 -44.3375 59.84 -47.8366 59.4403 -51.6937C58.372 -62.012 74.4138 -60.6168 79.2152 -61.0085C88.4982 -61.7685 98.9852 -62.345 107.407 -67.6105C112.552 -70.8294 115.086 -76.1126 114.125 -83.0565C113.698 -86.1374 113.034 -88.7548 114.125 -91.78C115.229 -94.8448 117.531 -97.0074 119.861 -98.6285C126.558 -103.291 134.881 -104.782 142.421 -105.892C151.266 -107.186 160.178 -107.691 169.084 -107.403C176.884 -107.155 184.647 -109.945 192.264 -111.783C202.353 -114.217 212.626 -116.343 222.951 -116.021C231.105 -115.766 239.323 -113.761 246.294 -108.43C253.377 -103.002 257.636 -94.8771 261.476 -86.1096C267.28 -72.8555 274.514 -55.0945 287.247 -50.0608C289.099 -49.3272 290.826 -49.2465 292.736 -49.1189C293.663 -49.0573 294.861 -49.0382 295.322 -47.866C296.429 -45.0432 292.336 -39.5708 291.194 -37.6636C287.548 -31.575 283.596 -25.7608 279.859 -19.7529C276.37 -14.1441 272.571 -8.29902 270.404 -1.72629C266.955 8.74166 277.98 14.8625 277.671 24.8375C277.479 31.0302 272.584 35.4712 268.708 38.5434C263.936 42.3213 257.064 44.8051 254.676 51.6991C252.896 56.8341 255.688 59.8226 257.838 63.7193C261.482 70.3214 261.73 79.2708 261.351 86.9131C260.84 97.2402 258.842 107.72 255.442 117.212C253.902 121.515 252.015 125.991 249.236 129.334C246.633 132.466 244.169 133.268 240.691 132.627C230.041 130.661 219.289 125.182 209.077 120.287C196.246 114.137 183.592 107.347 171.316 99.7079C162.945 94.4982 154.385 88.9862 147.038 81.7884C145.123 79.912 143.162 77.8727 141.762 75.3976C140.703 73.5373 140.254 72.0012 138.47 70.939C133.181 67.792 125.825 68.6151 120.159 68.9423C111.099 69.4631 102.082 70.8495 93.0779 72.0981C87.8235 72.8316 77.9252 75.1394 73.7294 69.6039C70.1078 64.824 74.478 56.6742 76.7103 52.4635C82.3572 41.8151 89.621 32.4695 96.3604 22.8466C99.4491 18.4364 102.659 13.9925 105.21 9.08937C105.861 7.83937 106.906 6.18299 107.085 4.66451C107.286 2.9245 106.347 1.59674 105.398 0.283665Z" stroke="#451D73" stroke-width="0.897114"/>
<path fill-rule="evenodd" clip-rule="evenodd" d="M106.063 2.76312C98.9152 -6.65721 90.3043 -14.3964 82.6311 -23.2118C79.1906 -27.1644 75.7163 -31.3107 73.0947 -36.1325C71.6846 -38.7254 70.1873 -41.9893 70.5762 -45.2122C71.6919 -54.4622 84.8856 -53.6267 90.2159 -54.1685C98.1362 -54.9643 107.235 -55.766 114.239 -60.7537C118.826 -64.0205 120.547 -68.8452 119.69 -75.0677C118.771 -81.7424 120.826 -86.5876 125.505 -90.3111C131.371 -94.9758 138.775 -96.8772 145.586 -98.228C153.791 -99.8476 162.101 -100.566 170.413 -100.373C178.497 -100.185 186.328 -101.827 194.359 -102.894C205.006 -104.308 215.995 -105.005 226.523 -102.107C235.688 -99.5832 243.967 -94.0214 250.173 -85.4204C256.656 -76.4435 259.865 -65.1335 265.128 -55.2022C268.411 -49.0076 272.989 -40.8133 279.124 -38.4053C281.17 -37.6022 284.899 -38.6858 283.265 -34.7347C282.331 -32.475 280.583 -30.4929 279.202 -28.6458C276.97 -25.6609 274.665 -22.7581 272.396 -19.8143C267.56 -13.5389 262.381 -7.13 258.756 0.300845C254.189 9.65658 260.978 16.8569 260.151 26.3433C259.706 31.4484 256.777 35.5229 253.678 38.7237C251.673 40.7968 249.479 42.5925 247.239 44.2678C244.9 46.018 242.132 47.3511 240.092 49.6137C237.184 52.8336 238.447 56.6452 238.992 60.8077C239.951 68.1229 240.162 75.5536 239.619 82.9314C238.956 91.9744 237.399 101.276 234.119 109.494C232.844 112.693 231.228 116.085 228.828 118.23C226.428 120.375 223.946 120.228 221.196 119.582C213.039 117.673 204.9 113.232 197.162 109.022C187.478 103.753 177.984 97.8636 168.918 91.1639C162.66 86.5389 156.381 81.5424 151.145 75.2715C149.622 73.4465 148.173 71.4922 147.002 69.3104C146.197 67.8142 145.766 65.8835 144.601 64.7588C140.954 61.2482 133.634 62.2965 129.357 62.5006C120.823 62.9073 112.423 64.841 103.899 65.3109C99.2471 65.5678 91.9616 66.2138 88.5453 61.4141C85.3326 56.9021 88.2425 49.7958 90.1626 45.4483C93.9362 36.9001 99.006 29.2842 103.55 21.338C105.418 18.0682 107.465 14.6472 108.676 10.9134C109.751 7.58634 107.894 5.1784 106.063 2.76312Z" stroke="#3E4AF6" stroke-width="0.897114"/>
<path fill-rule="evenodd" clip-rule="evenodd" d="M107.82 2.91467C102.131 -5.37496 95.2723 -12.7336 89.542 -21.1581C86.1878 -26.0917 80.4115 -34.3857 83.0055 -41.3411C85.8513 -48.9842 95.771 -49.1924 101.505 -49.8082C108.329 -50.5412 116.344 -51.5426 122.184 -56.3149C124.032 -57.8236 125.605 -59.8205 126.272 -62.4508C126.986 -65.2658 126.206 -67.7289 126.104 -70.5469C125.891 -76.4584 128.803 -81.2043 132.657 -84.4636C138.104 -89.0717 144.916 -91.2504 151.349 -92.7694C158.638 -94.4825 166.048 -95.3272 173.473 -95.2911C180.568 -95.2618 187.589 -95.4524 194.692 -95.6723C203.981 -95.9656 213.401 -95.492 222.411 -92.5025C231.288 -89.5555 239.358 -84.0325 245.697 -75.9086C251.881 -67.9811 256.054 -58.2913 259.708 -48.4212C261.781 -42.819 265.284 -34.4473 270.23 -31.6176C272.43 -30.3582 274.588 -30.4447 272.249 -27.1693C269.304 -23.045 265.335 -19.7359 261.924 -16.2084C257.004 -11.1179 251.96 -5.9277 247.83 0.124577C245.192 3.98935 244.017 7.73977 244.198 12.7438C244.339 16.5557 244.975 20.3282 244.653 24.1548C243.899 33.1365 238.061 39.2958 232.9 45.0313C229.58 48.7202 226.547 51.5337 224.838 56.7811C222.817 62.9829 221.968 69.7301 220.617 76.1695C219.133 83.2407 217.419 90.5964 214.18 96.8246C211.297 102.37 207.79 104.856 202.542 103.362C194.355 101.034 186.286 95.2984 179.019 89.9924C171.622 84.594 164.352 78.5241 158.222 71.1039C154.913 67.0969 152.654 62.3921 149.715 58.0874C146.018 52.6832 137.655 54.7299 132.685 55.1874C124.435 55.9469 98.474 61.6297 100.869 43.2236C101.869 35.541 105.807 28.4506 108.687 21.6712C109.88 18.8576 111.607 15.4811 111.877 12.257C112.171 8.74556 109.53 5.41006 107.82 2.91467Z" stroke="#E64456" stroke-width="0.897114"/>
<path fill-rule="evenodd" clip-rule="evenodd" d="M110.824 3.62031C106.476 -3.89177 101.273 -10.9887 97.543 -19.1022C95.123 -24.3567 92.7465 -31.3774 95.8683 -36.937C99.3918 -43.211 107.161 -44.6735 112.87 -45.473C118.752 -46.2959 125.773 -46.9883 130.581 -51.7455C132.11 -53.2608 133.371 -55.3043 133.606 -57.7511C133.832 -60.0981 133.193 -62.4452 133.405 -64.8348C133.879 -70.2008 136.564 -74.6221 140.026 -77.8288C150.266 -87.3153 165.507 -89.4247 177.863 -89.6726C184.047 -89.7959 190.412 -89.1489 196.636 -88.6854C204.713 -88.084 212.801 -86.7931 220.504 -83.6817C236.882 -77.0689 247.859 -62.4027 255.525 -44.1528C257.938 -38.4083 259.784 -32.193 263.566 -27.5766C265.515 -25.1929 265.089 -23.481 263.096 -21.307C259.98 -17.9096 256.18 -15.3132 252.722 -12.4776C247.803 -8.44508 242.779 -4.35238 238.429 0.478177C235.431 3.80808 233.302 7.01622 232.656 12.0096C232.195 15.5698 232.303 19.1975 232.026 22.7797C231.498 29.5847 229.692 36.3384 226.494 41.9831C223.953 46.4572 220.928 50.5235 217.801 54.4006C213.737 59.4482 210.299 64.5766 207.212 70.5674C203.12 78.4976 197.37 93.1257 187.731 89.2545C177.1 84.9828 167.136 74.1291 160.315 63.6128C158.025 60.0819 156.144 55.7516 153.055 53.1478C148.431 49.2561 143.738 49.3925 138.238 49.4086C130.002 49.4306 112.082 51.5973 111.889 36.6465C111.812 30.7231 113.928 25.1224 114.94 19.4249C116.083 13.0438 113.793 8.73985 110.824 3.62031Z" stroke="#F1B170" stroke-width="0.897114"/>
<path fill-rule="evenodd" clip-rule="evenodd" d="M114.062 4.28813C109.761 -5.50255 100.118 -21.5907 107.453 -32.4779C111.327 -38.2315 118.179 -40.3937 123.927 -41.6822C128.553 -42.7244 134.132 -43.1158 137.627 -47.534C140.196 -50.7824 139.056 -55.5099 140.04 -59.5763C141.262 -64.6175 144.066 -68.7425 147.511 -71.8429C157.14 -80.5078 170.527 -83.1669 182.11 -83.7327C194.139 -84.3191 207.393 -81.5764 218.713 -76.3007C232.827 -69.7203 243.401 -57.2602 250.796 -41.4814C252.16 -38.5686 253.4 -35.5797 254.71 -32.6318C255.59 -30.6543 256.895 -28.7413 257.589 -26.6612C258.744 -23.1929 257.383 -20.3579 255.201 -18.0975C252.063 -14.8432 248.209 -12.5271 244.631 -10.0849C239.739 -6.74269 234.737 -3.46056 230.187 0.460692C227.128 3.0993 223.927 5.94166 222.833 10.5196C222.086 13.642 221.931 16.949 221.958 20.1828C222.016 27.1164 221.715 32.7235 219.045 39.0737C214.65 49.4991 207.892 58.8735 200.753 66.6735C195.15 72.7951 186.284 82.3043 178.121 78.2115C170.796 74.5468 166.511 65.7749 161.686 58.6829C159.339 55.2352 156.704 52.0864 153.607 49.634C149.703 46.5424 146.027 45.2451 141.401 44.7394C133.615 43.8877 121.875 43.6663 119.469 32.3497C118.58 28.1734 119.087 23.8475 118.621 19.6169C118.012 14.0231 116.231 9.22672 114.062 4.28813Z" stroke="#451D73" stroke-width="0.897114"/>
<path fill-rule="evenodd" clip-rule="evenodd" d="M118.534 4.65518C115.472 -6.05772 111.449 -19.5589 118.845 -29.0802C122.427 -33.6926 127.466 -36.271 132.343 -38.1979C135.836 -39.5788 141.382 -39.9853 143.524 -44.2309C145.097 -47.3552 145.314 -51.6653 146.737 -55.0127C148.692 -59.6149 151.654 -63.4055 155.129 -66.3728C164.181 -74.1052 175.972 -77.093 186.724 -77.9486C210.086 -79.805 233.858 -65.0198 246.36 -40.6941C250.087 -33.4431 254.899 -25.7254 248.875 -18.3174C242.298 -10.2358 232.391 -6.44955 224.541 -0.707139C221.542 1.48534 217.72 4.121 216.046 8.09065C215.04 10.4768 214.971 13.4706 214.925 16.0974C214.804 22.7879 214.345 28.8047 212.125 35.0475C208.696 44.695 203.229 53.5955 197.033 60.8862C191.63 67.2435 183.924 74.7146 176.077 70.1315C170.06 66.6095 166.244 59.1339 161.569 53.6234C156.367 47.4862 149.933 43.3508 142.867 41.33C135.994 39.3694 128.455 38.0471 124.832 29.7175C123.59 26.8602 122.292 23.1606 121.826 19.9981C121.074 14.7838 119.973 9.65254 118.534 4.65518V4.65518Z" stroke="#E64456" stroke-width="0.897114"/>
<path fill-rule="evenodd" clip-rule="evenodd" d="M123.52 4.73193C122.103 -6.08582 121.946 -17.3657 128.528 -25.8917C131.6 -29.8693 135.483 -32.6952 139.41 -35.2554C142.299 -37.1393 145.282 -38.7283 147.44 -41.8168C149.439 -44.6764 150.958 -47.9967 152.888 -50.9311C155.434 -54.8199 158.481 -58.1862 161.91 -60.9008C170.507 -67.6925 180.965 -70.8691 190.97 -71.9709C195.813 -72.5065 201.067 -72.7852 205.878 -71.3254C210.524 -69.9168 215.117 -67.6896 219.389 -65.0926C228.47 -59.5774 236.341 -51.5004 242.046 -41.2886C245.958 -34.2841 248.073 -27.4734 243.007 -20.3677C237.296 -12.3581 228.341 -7.93891 220.96 -2.74058C215.897 0.824743 210.223 4.31964 209.278 11.8963C208.524 17.9251 207.913 23.6472 205.965 29.3459C203.065 37.7515 198.802 45.3657 193.428 51.737C188.513 57.5412 182.296 62.4667 175.266 59.3665C169.696 56.9059 165.374 51.3936 160.508 47.4527C155.085 43.0511 149.126 40.6243 142.852 38.6729C137.213 36.9123 131.904 34.2067 128.259 28.4626C127.513 27.2888 126.73 26.0109 126.155 24.6977C125.421 23.0222 125.478 21.3613 125.334 19.4833C124.958 14.527 124.16 9.62801 123.52 4.73193Z" stroke="#F1B170" stroke-width="0.897114"/>
<path fill-rule="evenodd" clip-rule="evenodd" d="M129.017 3.8486C129.138 -6.42665 131.177 -16.1376 136.763 -24.1453C139.15 -27.5709 142.002 -30.3924 144.629 -33.5315C146.745 -36.0621 148.744 -38.4134 151.177 -40.4987C156.947 -45.4365 161.637 -51.8262 167.769 -56.2231C175.956 -62.1014 185.333 -65.3506 194.637 -66.6497C199.18 -67.2846 203.874 -67.5065 208.47 -66.7893C212.418 -66.1736 216.199 -64.0119 219.706 -61.8002C226.581 -57.4679 233.255 -51.3103 237.719 -43.5201C247.559 -26.3452 228.158 -13.8583 218.2 -6.54568C213.62 -3.18183 206.622 0.714006 204.746 7.37705C203.405 12.137 202.589 16.9778 200.861 21.5908C196.223 33.9793 186.806 48.5501 174.256 46.6102C168.886 45.7814 163.992 42.4146 158.979 40.1544C153.818 37.8266 148.49 36.529 143.125 35.1049C138.111 33.775 134.115 31.8822 130.876 26.8077C129.328 24.3844 129.465 21.4835 129.327 18.5105C129.102 13.6271 128.963 8.71583 129.017 3.8486Z" stroke="#451D73" stroke-width="0.897114"/>
<path fill-rule="evenodd" clip-rule="evenodd" d="M134.023 2.52539C136.039 -12.9842 143.527 -29.9162 154.537 -38.9234C167.487 -49.5188 181.518 -58.4409 196.991 -61.0058C204.165 -62.1951 212.023 -62.7802 218.793 -58.8911C223.944 -55.9332 229.928 -51.5117 232.764 -45.2938C239.7 -30.0849 224.271 -17.9776 215.481 -10.9414C210.749 -7.15343 204.725 -3.46228 201.158 2.06931C199.088 5.27651 198.032 9.51906 196.361 13.0416C191.298 23.7161 182.963 32.3259 172.581 33.8657C167.781 34.5769 162.945 33.697 158.181 32.9975C153.304 32.2819 148.367 31.8932 143.521 30.8946C139.652 30.0968 135.093 28.7462 133.668 23.7293C131.871 17.4073 133.2 8.85914 134.023 2.52539Z" stroke="#3E4AF6" stroke-width="0.897114"/>
<path fill-rule="evenodd" clip-rule="evenodd" d="M138.931 0.039266C141.872 -14.5423 148.098 -28.7658 158.565 -37.4708C164.116 -42.0867 170.559 -45.2731 176.746 -48.4213C183.758 -51.9893 191.085 -54.7588 198.568 -56.1326C207.885 -57.844 222.975 -59.3865 227.843 -46.5221C232.674 -33.7531 220.465 -22.4518 213.245 -16.0115C208.616 -11.8858 203.662 -8.09914 199.24 -3.58889C196.842 -1.1437 194.994 1.68162 192.965 4.54951C187.356 12.4956 179.36 18.7862 171.21 22.1443C163.31 25.3997 153.538 26.841 145.2 25.7651C141.602 25.3028 139.031 23.7426 137.943 19.3073C136.435 13.1414 137.716 6.06271 138.931 0.039266Z" stroke="#F1B170" stroke-width="0.897114"/>
<path fill-rule="evenodd" clip-rule="evenodd" d="M143.809 -3.89C146.73 -16.7286 153.031 -28.4549 162.221 -36.1603C172.522 -44.7983 185.787 -49.5982 197.979 -52.039C204.459 -53.3354 218.503 -56.8505 221.806 -46.7905C225.109 -36.7304 215.56 -26.8164 210.064 -21.3589C203.394 -14.7452 196.202 -8.35953 189.019 -2.42549C182.777 2.7339 176.118 8.00876 169.358 11.993C165.545 14.2533 161.574 16.0988 157.49 17.5076C154.466 18.5424 150.621 20.0858 147.451 19.3156C139.455 17.3702 142.412 2.24865 143.809 -3.89Z" stroke="#E64456" stroke-width="0.897114"/>
<path fill-rule="evenodd" clip-rule="evenodd" d="M149.831 -7.73172C156.24 -32.011 176.545 -43.9519 196.096 -48.114C200.64 -49.0802 213.375 -52.5635 215.915 -45.1468C218.376 -37.9558 210.549 -29.4278 206.885 -25.3873C195.532 -12.8673 181.505 -3.58427 168.213 5.61226C164.064 8.48278 156.581 14.712 151.434 11.8386C145.846 8.71295 148.503 -2.69731 149.831 -7.73172Z" stroke="#3E4AF6" stroke-width="0.897114"/>
<path fill-rule="evenodd" clip-rule="evenodd" d="M156.395 -12.4071C161.969 -30.287 178.18 -40.5417 193.085 -43.9224C196.735 -44.7495 206.007 -47.325 208.772 -42.3354C211.33 -37.7199 205.224 -31.032 202.94 -28.3745C197.854 -22.4566 191.826 -17.5814 185.872 -12.8955C180.366 -8.5601 174.801 -4.11617 169.008 -0.449563C165.957 1.48054 160.234 5.59888 156.766 2.61866C153.033 -0.587427 155.158 -8.4369 156.395 -12.4071Z" stroke="#3E4AF6" stroke-width="0.897114"/>
<path fill-rule="evenodd" clip-rule="evenodd" d="M-22.8125 17.624C-22.966 6.16927 -27.9889 -5.73543 -25.5083 -17.4071C-23.4714 -26.993 -13.2164 -27.7933 -7.06444 -32.1363C-2.17573 -35.5866 0.59865 -41.6987 3.24247 -47.5631C5.61792 -52.8281 7.75159 -58.2513 10.254 -63.4297C11.8739 -66.7775 14.6555 -73.3513 18.1685 -73.47C21.5316 -73.5844 24.6155 -68.4616 26.569 -65.4334C29.1161 -61.4862 31.3743 -57.278 33.8477 -53.2678C38.0159 -46.5034 43.017 -41.4965 48.7435 -36.7577C55.2601 -31.3658 61.8844 -26.158 68.6162 -21.1345C73.5727 -17.4247 78.5629 -13.7428 83.3271 -9.66655C86.3154 -7.10884 92.9111 -2.31001 92.9413 2.40526C92.9558 4.65516 91.1969 7.14691 90.011 8.94537C88.0043 11.9897 85.7171 14.7731 83.4226 17.4965C79.1492 22.5694 74.6945 27.4122 70.2881 32.3136C64.5689 38.6749 59.106 44.9321 54.0783 52.1538C48.8801 59.6291 43.914 67.3506 38.8464 74.9665C35.4144 80.1259 31.986 85.92 27.0356 89.086C20.8353 93.0434 15.7459 88.8705 9.47545 88.8221C4.08143 88.7796 4.47915 73.6298 3.79372 69.4172C3.10587 65.1534 1.58993 61.1842 1.00242 56.9101C0.269835 51.5748 0.260161 46.1164 0.0800377 40.724C-0.138769 34.1282 -0.225807 27.849 -6.04173 25.3338C-9.35164 23.9047 -12.9323 23.6042 -16.3583 22.7482C-18.5778 22.1927 -22.7641 21.2429 -22.8125 17.624Z" stroke="#E64456" stroke-width="0.897114"/>
<path fill-rule="evenodd" clip-rule="evenodd" d="M-20.1607 15.5852C-20.7261 5.98332 -24.0664 -6.30639 -20.9077 -16.218C-18.209 -24.6881 -9.76912 -25.7861 -4.08605 -30.2355C0.605461 -33.9054 2.69394 -39.9108 5.03908 -45.8105C6.92053 -50.5432 8.74507 -55.3214 10.8808 -59.9028C12.4547 -63.2791 14.858 -68.9792 18.1305 -69.678C21.0725 -70.3062 24.2276 -65.2741 25.8791 -62.714C28.2884 -58.9766 30.349 -54.9177 32.4774 -50.9439C36.2173 -43.9638 40.0468 -37.6868 45.5204 -32.5593C51.0183 -27.4097 57.0331 -23.5592 63.1121 -19.5517C67.8677 -16.4162 72.5992 -13.1896 77.1176 -9.56966C80.4834 -6.87449 85.3226 -3.4248 86.8626 1.38128C88.0818 5.18328 81.8987 11.4925 80.0753 13.7194C76.3221 18.298 72.345 22.5961 68.3605 26.8679C63.5031 32.0733 58.4908 36.6254 54.2012 42.5633C46.529 53.1795 40.1158 66.3999 30.2437 74.2901C24.2894 79.0492 17.6632 80.2662 11.0406 79.5542C8.41818 79.2724 7.78861 74.7848 7.45809 72.1675C6.90843 67.8194 6.83941 63.3965 6.41687 59.0308C6.02097 54.944 5.142 51.0612 4.43373 47.0537C3.71699 42.9934 3.51601 38.8332 2.98814 34.7449C2.66125 32.2068 2.33799 29.2533 0.908137 27.2129C-0.571352 25.1005 -3.01215 24.2153 -5.14542 23.543C-9.15167 22.2923 -19.7611 22.3613 -20.1607 15.5852Z" stroke="#451D73" stroke-width="0.897114"/>
<path fill-rule="evenodd" clip-rule="evenodd" d="M-16.7472 11.5638C-17.6981 2.75004 -19.0293 -8.22764 -15.1556 -16.348C-11.9892 -22.9877 -5.2361 -24.42 -0.412642 -28.7463C3.59923 -32.3439 5.11459 -38.0659 7.10599 -43.3832C8.74006 -47.7446 10.3826 -52.1252 12.3631 -56.2755C13.8651 -59.4231 15.8008 -63.6907 18.7831 -64.7888C21.3329 -65.727 24.2134 -61.5239 25.627 -59.4319C28.0339 -55.8665 29.9962 -51.8715 31.9452 -47.9294C35.1334 -41.4788 38.0672 -34.5884 42.6048 -29.3415C47.014 -24.25 52.2517 -21.2446 57.5876 -17.8654C61.6745 -15.2763 65.7361 -12.5876 69.5868 -9.50016C72.5437 -7.13105 76.2079 -4.32358 77.7487 -0.381413C79.0811 3.01833 75.6604 7.0426 73.9512 9.44103C71.1289 13.3993 67.9964 17.0307 64.9075 20.6767C61.574 24.6101 57.8819 28.2385 54.6562 32.2687C47.8728 40.7497 42.4534 50.1397 34.0929 56.6371C28.6783 60.8461 21.3922 64.6695 14.9917 63.982C10.3887 63.4865 10.6915 51.1395 10.2494 47.1944C9.52257 40.7438 8.11865 33.9663 5.88862 28.0245C3.97353 22.933 -0.577378 21.3628 -4.76368 20.2208C-7.38618 19.5039 -10.1347 19.1169 -12.6711 18.0085C-15.6074 16.7243 -16.3487 15.2583 -16.7472 11.5638Z" stroke="#3E4AF6" stroke-width="0.897114"/>
<path fill-rule="evenodd" clip-rule="evenodd" d="M-13.5642 7.43082C-14.1303 -0.0208175 -14.003 -8.83251 -10.3357 -15.2784C-7.12178 -20.9245 -1.39952 -22.411 2.67032 -26.8588C5.84665 -30.3287 7.09415 -35.9866 8.80235 -40.5755C10.89 -46.1862 13.8154 -56.5491 19.0818 -58.6605C23.9809 -60.6234 29.1042 -48.0844 30.8779 -44.3454C33.6857 -38.4273 36.034 -31.9373 39.4395 -26.4721C42.3721 -21.767 46.3013 -19.166 50.4718 -16.3709C55.7891 -12.8009 63.8621 -8.56785 66.7051 -1.61024C68.8242 3.57414 61.9333 11.2816 59.5801 14.8736C57.1191 18.6259 55.2654 23.0737 52.7255 26.6936C48.7175 32.4058 42.223 37.005 36.8608 40.5147C31.6477 43.9288 24.878 47.7076 18.9642 47.4826C15.0774 47.3356 14.3379 40.0604 13.5087 36.5066C12.3206 31.4545 10.7409 26.9274 7.34754 23.4912C3.89357 19.9933 -0.177478 18.3451 -4.45705 16.9027C-6.65381 16.1675 -9.15973 15.5941 -11.1249 14.1091C-13.2962 12.4932 -13.3459 10.295 -13.5642 7.43082Z" stroke="#F1B170" stroke-width="0.897114"/>
<path fill-rule="evenodd" clip-rule="evenodd" d="M-9.68521 3.13763C-9.65379 -3.30003 -8.43934 -10.1649 -4.83827 -15.1307C-1.83899 -19.2669 2.85569 -20.6495 5.72688 -24.8779C8.00111 -28.2255 9.15877 -32.925 10.6814 -36.8124C12.5435 -41.5763 15.1767 -49.8985 19.8073 -51.5518C24.3268 -53.1612 28.3242 -43.9948 30.0571 -40.3678C32.5947 -35.0494 34.649 -29.4121 37.2096 -24.1083C39.2156 -19.9472 41.6687 -17.2654 44.935 -14.5835C48.7693 -11.4334 54.119 -7.94392 56.1672 -2.73235C57.6439 1.041 54.0694 7.07046 52.7716 10.3946C51.9015 12.6273 51.1052 14.8951 50.6677 17.3151C50.327 19.1996 50.2931 20.9436 49.3059 22.5618C46.8201 26.6322 41.3702 27.1633 37.6725 28.5049C32.7615 30.2855 27.5508 32.309 22.4114 32.6953C19.2526 32.9367 17.6406 29.4091 15.8377 26.9277C13.7072 23.9942 10.691 21.8844 8.0567 19.6707C4.5801 16.7445 0.796557 14.9244 -3.11749 13.0604C-4.88298 12.2191 -6.95661 11.3939 -8.32454 9.7216C-9.75288 7.98782 -9.69609 5.46104 -9.68521 3.13763Z" stroke="#E64456" stroke-width="0.897114"/>
<path fill-rule="evenodd" clip-rule="evenodd" d="M-5.61163 -0.684893C-4.98746 -6.09166 -3.04235 -11.2593 0.243047 -15.0814C2.76153 -18.0159 6.1062 -19.668 8.12751 -23.1938C10.0109 -26.4804 11.3234 -30.2174 12.879 -33.7314C14.5253 -37.4465 16.9712 -43.6558 20.7683 -44.6667C24.8605 -45.7554 28.0129 -39.4918 29.7584 -36.0203C31.9636 -31.6333 33.6389 -26.9132 35.6106 -22.375C37.096 -18.9925 38.9908 -15.899 41.2319 -13.1975C43.5822 -10.3496 46.7696 -7.62198 47.9587 -3.70593C49.0099 -0.237385 47.043 3.95891 46.6958 7.47587C46.3245 11.2335 46.9753 15.1803 44.9164 18.4068C40.6706 25.0607 30.0148 23.8267 23.9231 23.9691C17.9123 24.1158 13.0798 20.0442 8.21582 16.1707C5.003 13.6133 1.65712 11.4477 -1.63674 9.06489C-4.99472 6.63368 -6.16081 4.07335 -5.61163 -0.684893Z" stroke="#3E4AF6" stroke-width="0.897114"/>
<path fill-rule="evenodd" clip-rule="evenodd" d="M-1.82607 -3.77803C0.0197545 -11.6109 5.78478 -15.774 9.90612 -21.6934C13.2782 -26.5394 15.8067 -36.5749 21.4858 -37.9024C27.9335 -39.4091 31.7934 -26.1121 34.035 -20.9812C36.5223 -15.2909 40.9523 -10.6622 42.7945 -4.63855C43.7628 -1.47693 42.9313 1.47324 42.4156 4.63339C41.8504 8.1034 41.4255 11.6512 39.4744 14.4443C35.6339 19.9408 28.1332 19.9026 22.7313 20.0538C17.1393 20.211 12.1925 16.4443 7.73712 12.685C3.01181 8.704 -3.71668 4.25453 -1.82607 -3.77803Z" stroke="#3E4AF6" stroke-width="0.897114"/>
<path fill-rule="evenodd" clip-rule="evenodd" d="M1.26598 -5.90137C3.34588 -11.482 7.7166 -16.019 11.2632 -20.3019C14.2233 -23.8725 17.4078 -31.0603 21.9211 -31.5727C27.2257 -32.177 30.4407 -24.5016 32.5279 -19.7954C34.5822 -15.1708 37.5423 -10.2879 38.6798 -5.21236C39.8661 0.0748853 36.7072 7.19559 33.6946 10.937C30.3346 15.1089 24.8374 16.6504 20.1204 16.484C15.1816 16.3147 10.6499 12.8668 6.90951 9.29034C2.91064 5.46724 -1.15285 0.577042 1.26598 -5.90137Z" stroke="#E64456" stroke-width="0.897114"/>
<path fill-rule="evenodd" clip-rule="evenodd" d="M4.13389 -6.95612C6.12063 -11.5977 9.56447 -15.5243 12.7398 -19.0267C15.1903 -21.7306 18.8062 -26.3284 22.3416 -26.441C26.2309 -26.5653 29.527 -22.706 31.0732 -18.7503C32.5975 -14.8486 34.2034 -9.95694 34.4316 -5.67653C34.9271 3.64472 24.8397 14.0862 17.2649 13.2365C10.0831 12.4307 0.172617 2.29201 4.13389 -6.95612Z" stroke="#3E4AF6" stroke-width="0.897114"/>
<path fill-rule="evenodd" clip-rule="evenodd" d="M6.7869 -7.46421C9.52772 -13.5119 16.1852 -22.1336 22.3487 -22.3384C29.4233 -22.5724 31.1993 -12.978 30.2772 -6.02506C29.3404 1.07125 21.1838 11.3428 14.68 9.95479C8.33235 8.60047 3.53866 -0.291854 6.7869 -7.46421Z" stroke="#451D73" stroke-width="0.897114"/>
<path fill-rule="evenodd" clip-rule="evenodd" d="M9.58844 -8.44366C11.909 -13.5073 16.8609 -19.832 22.0256 -20.0235C28.1795 -20.25 28.0634 -12.1497 26.6679 -7.10798C25.2168 -1.8734 18.8259 7.06719 13.4375 5.65551C8.1978 4.27745 7.36463 -3.5905 9.58844 -8.44366Z" stroke="#E64456" stroke-width="0.897114"/>
<path fill-rule="evenodd" clip-rule="evenodd" d="M12.0276 -9.02714C13.5593 -12.6403 17.3929 -17.2068 21.0373 -17.3529C25.4918 -17.5286 24.6258 -11.1038 23.4749 -8.00283C22.1069 -4.31297 17.5214 2.09854 13.6733 1.05947C9.88462 0.0366413 10.7639 -6.05016 12.0276 -9.02714Z" stroke="#3E4AF6" stroke-width="0.897114"/>
</g>
<path d="M0 -62.7852V-67.7852L-5 -62.7852H0ZM287.077 -62.7852H292.077L287.077 -67.7852V-62.7852ZM287.077 151.182V156.182L292.077 151.182H287.077ZM0 151.182H-5L0 156.182V151.182ZM0 -57.7852H287.077V-67.7852H0V-57.7852ZM282.077 -62.7852V151.182H292.077V-62.7852H282.077ZM287.077 146.182H0V156.182H287.077V146.182ZM5 151.182V-62.7852H-5V151.182H5Z" fill="#E64456"/>
</g>
<path d="M108.219 40.3505L108.742 44.4844H112.954L109.605 25.7772H105.445L94.9534 44.4844H99.1397L101.285 40.3505H108.219ZM102.881 37.2108L106.858 29.4924H106.91L107.878 37.2108H102.881ZM127.553 31.821H131.661C131.896 28.3412 129.62 25.3847 124.544 25.3847C118.265 25.3847 113.582 30.7221 113.582 37.4463C113.582 41.9203 115.91 44.8768 120.41 44.8768C123.236 44.8768 125.172 43.7779 126.533 42.025H126.585L126.664 44.4844H129.515L131.452 34.5944H123.001L122.425 37.6294H126.716C126.219 39.9319 123.969 41.554 121.378 41.554C118.527 41.554 117.532 39.801 117.532 37.3155C117.532 32.449 120.253 28.7075 123.995 28.7075C126.69 28.7075 127.501 30.1727 127.553 31.821ZM132.391 44.4844H136.446L137.755 37.6818H141.47C145.604 37.6818 142.752 43.6995 143.432 44.4844H147.671L147.697 44.2489C146.676 43.9349 149.685 36.6875 145.316 35.9026L145.342 35.8503C148.142 35.2747 150.13 32.9984 150.13 30.2774C150.13 27.347 148.011 25.7772 144.191 25.7772H136.028L132.391 44.4844ZM139.403 29.1261H143.04C145.107 29.1261 145.97 29.7279 145.97 31.0623C145.97 32.9722 144.531 34.3328 142.15 34.3328H138.409L139.403 29.1261ZM161.875 40.3505L162.398 44.4844H166.611L163.262 25.7772H159.102L148.61 44.4844H152.796L154.942 40.3505H161.875ZM156.538 37.2108L160.515 29.4924H160.567L161.535 37.2108H156.538Z" fill="white"/>
</svg>
