<svg width="266" height="259" viewBox="0 0 266 259" fill="none" xmlns="http://www.w3.org/2000/svg">
<rect x="117" y="51" width="32" height="208" fill="#F48E6B"/>
<rect x="2.5" y="2.5" width="261" height="65.4973" fill="#F48E6B" stroke="#E64456" stroke-width="5"/>
<mask id="mask0_600_1034" style="mask-type:alpha" maskUnits="userSpaceOnUse" x="0" y="0" width="266" height="71">
<rect opacity="0.4" width="266" height="70.4973" fill="#F48E6B"/>
</mask>
<g mask="url(#mask0_600_1034)">
<mask id="mask1_600_1034" style="mask-type:alpha" maskUnits="userSpaceOnUse" x="0" y="-64" width="288" height="217">
<rect y="-63.2305" width="287.077" height="215.487" fill="#01002D"/>
</mask>
<g mask="url(#mask1_600_1034)">
<path fill-rule="evenodd" clip-rule="evenodd" d="M98.2949 3.89295C98.2755 -1.17439 90.547 -6.87275 87.2457 -9.81059C80.7182 -15.6213 73.9291 -20.9871 67.203 -26.4387C60.4769 -31.8902 53.7327 -37.327 47.3189 -43.3121C43.1545 -47.1972 38.2612 -51.5729 35.4369 -57.1205C29.4202 -68.9428 48.3903 -67.1872 53.3041 -67.4458C65.8048 -68.1064 80.1431 -67.8049 91.8605 -73.9614C98.8554 -77.6366 101.645 -83.8005 100.142 -92.784C99.658 -95.7056 98.2246 -99.0675 99.4389 -101.914C100.735 -104.954 103.718 -106.708 106.194 -107.884C115.224 -112.17 125.606 -112.666 135.16 -113.204C145.462 -113.795 155.861 -113.622 166.091 -113.668C170.428 -113.687 174.958 -115.589 179.089 -117.135C184.504 -119.161 189.855 -121.437 195.225 -123.637C207.039 -128.467 219.213 -133.553 231.713 -134.78C239.54 -135.548 248.096 -134.509 254.176 -127.825C257.23 -124.469 258.828 -119.48 260.593 -115.048C262.729 -109.694 264.781 -104.289 267.056 -99.0188C274.384 -82.0464 284.846 -65.4611 301.827 -64.6277C304.396 -64.5021 306.919 -64.9114 309.475 -64.9882C311.104 -65.0355 312.553 -64.5553 313.158 -62.476C314.68 -57.2609 309.897 -49.0281 307.936 -44.8903C303.642 -35.833 298.799 -27.182 294.263 -18.3064C291.262 -12.4366 286.067 -4.41518 286.013 2.71662C285.964 9.07111 292.889 13.6641 296.659 16.794C300.191 19.7245 306.592 23.8253 306.979 29.7867C307.167 32.6773 305.605 35.0728 303.974 36.9319C301.116 40.183 297.823 42.4765 295.252 46.1858C291.036 52.2713 287.513 60.6444 288.085 68.8447C288.482 74.5268 291.138 78.2479 294.517 81.8049C295.937 83.3004 297.09 84.3585 297.165 86.7865C297.286 90.6421 296.049 94.7222 295.029 98.297C291.383 111.09 286.204 123.461 280.443 135.011C277.564 140.783 274.454 146.538 270.637 151.462C268.137 154.695 264.766 158.543 260.952 158.539C256.537 158.539 251.865 156.594 247.574 155.14C239.558 152.422 231.64 149.281 223.753 146.058C205.513 138.601 187.445 130.54 169.548 121.875C156.942 115.762 144.069 109.639 132.217 101.511C129.906 99.9151 127.724 98.054 125.702 95.9532C123.541 93.7469 120.859 92.7597 118.14 92.0238C101.264 87.456 82.7762 90.9628 65.8302 93.1617C61.5289 93.7188 57.2277 94.2789 52.9143 94.669C49.2063 95.0045 44.767 95.9665 41.1631 94.5213C34.0617 91.6765 40.2696 81.1916 42.8942 76.9193C52.1347 61.8769 64.0567 49.1502 75.107 36.1575C80.361 29.97 85.655 23.7987 90.6233 17.261C93.2103 13.8621 98.3118 8.33518 98.2949 3.89295Z" stroke="#451D73" stroke-width="0.897114"/>
<path fill-rule="evenodd" clip-rule="evenodd" d="M101.479 3.03695C98.6469 -2.32505 93.6776 -6.28821 89.5527 -10.018C83.6167 -15.3874 77.4941 -20.4584 71.4636 -25.6756C65.7614 -30.6092 60.0471 -35.599 54.7665 -41.2018C51.5465 -44.6184 47.5064 -48.7041 45.9812 -53.7574C42.6728 -64.7104 60.4711 -63.0486 64.865 -63.3352C75.7884 -64.0442 88.1729 -64.2067 98.2786 -69.9734C104.589 -73.5747 107.181 -79.5467 105.835 -87.8379C105.37 -90.7065 104.532 -93.1556 105.593 -96.0094C106.82 -99.3123 109.643 -101.371 112.231 -102.825C120.336 -107.379 129.917 -108.346 138.704 -109.151C147.781 -109.983 157.239 -110.57 166.024 -109.961C169.537 -109.719 173.581 -111.094 177.058 -112.149C182.407 -113.773 187.703 -115.648 193.026 -117.391C203.844 -120.936 214.943 -124.351 226.197 -124.74C234.322 -125.02 242.794 -123.499 249.553 -117.618C256.404 -111.655 259.443 -102.411 263.242 -93.6238C269.804 -78.4315 278.665 -59.9599 293.844 -56.7501C296.146 -56.2626 298.358 -56.527 300.657 -56.4074C301.84 -56.3468 303.186 -56.1548 303.785 -54.7323C305.342 -51.0395 301.077 -44.2875 299.641 -41.4588C295.675 -33.6418 291.216 -26.2074 287.059 -18.541C283.758 -12.4538 279.574 -5.68996 278.297 1.52584C276.747 10.2823 286.871 16.5129 290.432 22.6784C296.604 33.3699 284.91 39.4616 279.145 44.5592C272.524 50.4116 267.06 61.0884 272.994 70.1432C275.265 73.6056 278.058 75.6692 279.072 80.1877C280.658 87.2543 279.459 95.3298 278.172 102.315C276.234 112.816 273.166 123.203 268.997 132.694C266.009 139.489 261.053 150.143 253.796 149.344C248.91 148.811 243.943 146.863 239.186 145.14C232.063 142.563 225.029 139.625 218.033 136.573C201.884 129.548 185.912 121.802 170.254 113.281C159.571 107.466 129.77 83.7003 127.527 82.8525C120.841 80.3266 113.24 80.7712 106.347 81.1626C97.1774 81.6826 88.0541 83.0297 78.9381 84.2779C74.5988 84.8688 70.2377 85.5911 65.8753 85.8821C62.7704 86.0889 58.6927 86.2661 55.9731 84.0637C50.6646 79.7667 56.5788 69.9349 59.0247 65.7753C66.5173 53.0232 75.9956 41.9801 84.8826 30.6889C89.2438 25.1452 93.6715 19.6104 97.6305 13.6221C99.2271 11.204 103.23 6.34869 101.479 3.03695Z" stroke="#3E4AF6" stroke-width="0.897114"/>
<path fill-rule="evenodd" clip-rule="evenodd" d="M105.398 0.291303C97.6625 -10.4387 86.9866 -18.4189 77.7726 -27.3802C73.148 -31.8794 68.4944 -36.5011 64.5057 -41.8602C62.4309 -44.6469 59.84 -48.1708 59.4403 -52.0553C58.372 -62.4469 74.4138 -61.0417 79.2152 -61.4362C88.4982 -62.2016 98.9852 -62.7823 107.407 -68.0852C112.552 -71.327 115.086 -76.6476 114.125 -83.6408C113.698 -86.7437 113.034 -89.3796 114.125 -92.4263C115.229 -95.5129 117.531 -97.6909 119.861 -99.3235C126.558 -104.019 134.881 -105.52 142.421 -106.639C151.266 -107.942 160.178 -108.45 169.084 -108.161C176.884 -107.911 184.647 -110.72 192.264 -112.571C202.353 -115.023 212.626 -117.163 222.951 -116.84C231.105 -116.583 239.323 -114.563 246.294 -109.195C253.377 -103.728 257.636 -95.5455 261.476 -86.7156C267.28 -73.3675 274.514 -55.4802 287.247 -50.4108C289.099 -49.672 290.826 -49.5907 292.736 -49.4622C293.663 -49.4001 294.861 -49.3809 295.322 -48.2004C296.429 -45.3576 292.336 -39.8463 291.194 -37.9255C287.548 -31.7937 283.596 -25.9381 279.859 -19.8876C276.37 -14.2389 272.571 -8.35235 270.404 -1.73293C266.955 8.80938 277.98 14.9737 277.671 25.0196C277.479 31.2563 272.584 35.7288 268.708 38.8228C263.936 42.6275 257.064 45.129 254.676 52.072C252.896 57.2434 255.688 60.2532 257.838 64.1776C261.482 70.8265 261.73 79.8396 261.351 87.5361C260.84 97.9366 258.842 108.491 255.442 118.05C253.902 122.384 252.015 126.892 249.236 130.258C246.633 133.413 244.169 134.221 240.691 133.575C230.041 131.595 219.289 126.077 209.077 121.147C196.246 114.954 183.592 108.115 171.316 100.422C162.945 95.1751 154.385 89.6239 147.038 82.3751C145.123 80.4853 143.162 78.4315 141.762 75.9389C140.703 74.0653 140.254 72.5183 138.47 71.4486C133.181 68.2792 125.825 69.1081 120.159 69.4376C111.099 69.9622 102.082 71.3585 93.0779 72.6158C87.8235 73.3546 77.9252 75.6788 73.7294 70.104C70.1078 65.2902 74.478 57.0824 76.7103 52.8418C82.3572 42.1178 89.621 32.7058 96.3604 23.0145C99.4491 18.573 102.659 14.0975 105.21 9.15956C105.861 7.90069 106.906 6.23253 107.085 4.70327C107.286 2.9509 106.347 1.61371 105.398 0.291303Z" stroke="#451D73" stroke-width="0.897114"/>
<path fill-rule="evenodd" clip-rule="evenodd" d="M106.063 2.78574C98.9152 -6.70151 90.3043 -14.4957 82.6311 -23.3737C79.1906 -27.3543 75.7163 -31.5301 73.0947 -36.3862C71.6846 -38.9975 70.1873 -42.2846 70.5762 -45.5304C71.6919 -54.8461 84.8856 -54.0047 90.2159 -54.5503C98.1362 -55.3518 107.235 -56.1592 114.239 -61.1823C118.826 -64.4723 120.547 -69.3313 119.69 -75.598C118.771 -82.3201 120.826 -87.1997 125.505 -90.9497C131.371 -95.6475 138.775 -97.5624 145.586 -98.9228C153.791 -100.554 162.101 -101.277 170.413 -101.083C178.497 -100.894 186.328 -102.547 194.359 -103.622C205.006 -105.046 215.995 -105.748 226.523 -102.829C235.688 -100.288 243.967 -94.6863 250.173 -86.0242C256.656 -76.9835 259.865 -65.5932 265.128 -55.5913C268.411 -49.3528 272.989 -41.1002 279.124 -38.6752C281.17 -37.8663 284.899 -38.9576 283.265 -34.9784C282.331 -32.7027 280.583 -30.7065 279.202 -28.8463C276.97 -25.8402 274.665 -22.9168 272.396 -19.952C267.56 -13.6321 262.381 -7.17766 258.756 0.305973C254.189 9.72816 260.978 16.9796 260.151 26.5334C259.706 31.6748 256.777 35.7782 253.678 39.0017C251.673 41.0896 249.479 42.8981 247.239 44.5853C244.9 46.3478 242.132 47.6905 240.092 49.9692C237.184 53.2119 238.447 57.0506 238.992 61.2427C239.951 68.6098 240.162 76.0933 239.619 83.5235C238.956 92.6307 237.399 101.998 234.119 110.274C232.844 113.496 231.228 116.912 228.828 119.073C226.428 121.233 223.946 121.085 221.196 120.434C213.039 118.512 204.9 114.039 197.162 109.8C187.478 104.493 177.984 98.5618 168.918 91.8145C162.66 87.1566 156.381 82.1247 151.145 75.8092C149.622 73.9712 148.173 72.0031 147.002 69.8057C146.197 68.299 145.766 66.3545 144.601 65.2218C140.954 61.6863 133.634 62.742 129.357 62.9476C120.823 63.3572 112.423 65.3046 103.899 65.7778C99.2471 66.0366 91.9616 66.6872 88.5453 61.8534C85.3326 57.3094 88.2425 50.1525 90.1626 45.7741C93.9362 37.1652 99.006 29.4953 103.55 21.4926C105.418 18.1996 107.465 14.7542 108.676 10.9939C109.751 7.64322 107.894 5.21818 106.063 2.78574Z" stroke="#3E4AF6" stroke-width="0.897114"/>
<path fill-rule="evenodd" clip-rule="evenodd" d="M107.82 2.94027C102.131 -5.40824 95.2723 -12.8191 89.542 -21.3035C86.1878 -26.2721 80.4115 -34.6251 83.0055 -41.6299C85.8513 -49.3273 95.771 -49.5369 101.505 -50.1571C108.329 -50.8954 116.344 -51.9039 122.184 -56.7101C124.032 -58.2295 125.605 -60.2406 126.272 -62.8895C126.986 -65.7245 126.206 -68.2052 126.104 -71.0431C125.891 -76.9967 128.803 -81.7763 132.657 -85.0587C138.104 -89.6996 144.916 -91.8937 151.349 -93.4235C158.638 -95.1488 166.048 -95.9995 173.473 -95.9632C180.568 -95.9336 187.589 -96.1256 194.692 -96.3471C203.981 -96.6424 213.401 -96.1655 222.411 -93.1547C231.288 -90.1868 239.358 -84.6246 245.697 -76.4429C251.881 -68.4591 256.054 -58.7005 259.708 -48.7603C261.781 -43.1183 265.284 -34.6871 270.23 -31.8373C272.43 -30.569 274.588 -30.6561 272.249 -27.3574C269.304 -23.2038 265.335 -19.8712 261.924 -16.3186C257.004 -11.192 251.96 -5.96491 247.83 0.130358C245.192 4.02259 244.017 7.79965 244.198 12.8392C244.339 16.6782 244.975 20.4775 244.653 24.3313C243.899 33.3767 238.061 39.5798 232.9 45.3561C229.58 49.0712 226.547 51.9047 224.838 57.1893C222.817 63.4352 221.968 70.2304 220.617 76.7155C219.133 83.837 217.419 91.2449 214.18 97.5174C211.297 103.102 207.79 105.606 202.542 104.101C194.355 101.757 186.286 95.9802 179.019 90.6365C171.622 85.1998 164.352 79.0868 158.222 71.6139C154.913 67.5785 152.654 62.8402 149.715 58.505C146.018 53.0623 137.655 55.1236 132.685 55.5843C124.435 56.3492 98.474 62.0724 100.869 43.5355C101.869 35.7983 105.807 28.6576 108.687 21.83C109.88 18.9965 111.607 15.5959 111.877 12.349C112.171 8.81258 109.53 5.45338 107.82 2.94027Z" stroke="#E64456" stroke-width="0.897114"/>
<path fill-rule="evenodd" clip-rule="evenodd" d="M110.824 3.65197C106.476 -3.91347 101.273 -11.0608 97.543 -19.232C95.123 -24.5238 92.7465 -31.5943 95.8683 -37.1934C99.3918 -43.512 107.161 -44.9849 112.87 -45.7901C118.752 -46.6189 125.773 -47.3162 130.581 -52.1072C132.11 -53.6333 133.371 -55.6912 133.606 -58.1554C133.832 -60.5191 133.193 -62.8829 133.405 -65.2894C133.879 -70.6935 136.564 -75.1462 140.026 -78.3757C150.266 -87.9296 165.507 -90.054 177.863 -90.3037C184.047 -90.4278 190.412 -89.7763 196.636 -89.3095C204.713 -88.7038 212.801 -87.4037 220.504 -84.2703C236.882 -77.6104 247.859 -62.84 255.525 -44.4605C257.938 -38.6752 259.784 -32.4157 263.566 -27.7666C265.515 -25.3659 265.089 -23.6418 263.096 -21.4524C259.98 -18.0309 256.18 -15.416 252.722 -12.5603C247.803 -8.49913 242.779 -4.37735 238.429 0.487516C235.431 3.84107 233.302 7.07201 232.656 12.1009C232.195 15.6864 232.303 19.3398 232.026 22.9475C231.498 29.8008 229.692 36.6025 226.494 42.2873C223.953 46.7932 220.928 50.8883 217.801 54.7929C213.737 59.8765 210.299 65.0412 207.212 71.0747C203.12 79.0612 197.37 93.7932 187.731 89.8945C177.1 85.5925 167.136 74.6616 160.315 64.0706C158.025 60.5147 156.144 56.1536 153.055 53.5313C148.431 49.6119 143.738 49.7493 138.238 49.7656C130.002 49.7877 112.082 51.9698 111.889 36.9127C111.812 30.9472 113.928 25.3068 114.94 19.5688C116.083 13.1424 113.793 8.80787 110.824 3.65197Z" stroke="#F1B170" stroke-width="0.897114"/>
<path fill-rule="evenodd" clip-rule="evenodd" d="M114.062 4.32627C109.761 -5.53396 100.118 -21.7364 107.453 -32.7009C111.327 -38.4954 118.179 -40.6729 123.927 -41.9706C128.553 -43.0203 134.132 -43.4144 137.627 -47.864C140.196 -51.1355 139.056 -55.8966 140.04 -59.9919C141.262 -65.0689 144.066 -69.2232 147.511 -72.3456C157.14 -81.072 170.527 -83.75 182.11 -84.3199C194.139 -84.9104 207.393 -82.1482 218.713 -76.835C232.827 -70.2079 243.401 -57.6593 250.796 -41.7684C252.16 -38.8349 253.4 -35.8248 254.71 -32.8559C255.59 -30.8644 256.895 -28.9378 257.589 -26.8429C258.744 -23.35 257.383 -20.4948 255.201 -18.2184C252.063 -14.941 248.209 -12.6084 244.631 -10.1489C239.739 -6.78291 234.737 -3.47747 230.187 0.471645C227.128 3.12899 223.927 5.99154 222.833 10.602C222.086 13.7466 221.931 17.0771 221.958 20.3338C222.016 27.3167 221.715 32.9636 219.045 39.359C214.65 49.8584 207.892 59.2994 200.753 67.1548C195.15 73.3198 186.284 82.8966 178.121 78.7748C170.796 75.084 166.511 66.2498 161.686 59.1075C159.339 55.6352 156.704 52.4641 153.607 49.9942C149.703 46.8807 146.027 45.5742 141.401 45.0649C133.615 44.2071 121.875 43.9842 119.469 32.5872C118.58 28.3812 119.087 24.0246 118.621 19.764C118.012 14.1304 116.231 9.29994 114.062 4.32627Z" stroke="#451D73" stroke-width="0.897114"/>
<path fill-rule="evenodd" clip-rule="evenodd" d="M118.534 4.69171C115.472 -6.09729 111.449 -19.6944 118.845 -29.2833C122.427 -33.9285 127.466 -36.5252 132.343 -38.4658C135.836 -39.8565 141.382 -40.2659 143.524 -44.5416C145.097 -47.6881 145.314 -52.0289 146.737 -55.4001C148.692 -60.0349 151.654 -63.8524 155.129 -66.8408C164.181 -74.6281 175.972 -77.6372 186.724 -78.4989C210.086 -80.3685 233.858 -65.4782 246.36 -40.9798C250.087 -33.6772 254.899 -25.9047 248.875 -18.4441C242.298 -10.305 232.391 -6.4919 224.541 -0.708701C221.542 1.49935 217.72 4.15374 216.046 8.15158C215.04 10.5547 214.971 13.5697 214.925 16.2153C214.804 22.9532 214.345 29.0128 212.125 35.3C208.696 45.016 203.229 53.9797 197.033 61.3221C191.63 67.7246 183.924 75.2488 176.077 70.6332C170.06 67.0861 166.244 59.5575 161.569 54.0078C156.367 47.827 149.933 43.6622 142.867 41.627C135.994 39.6525 128.455 38.3209 124.832 29.9321C123.59 27.0545 122.292 23.3286 121.826 20.1436C121.074 14.8923 119.973 9.72457 118.534 4.69171V4.69171Z" stroke="#E64456" stroke-width="0.897114"/>
<path fill-rule="evenodd" clip-rule="evenodd" d="M123.52 4.7667C122.103 -6.1279 121.946 -17.4879 128.528 -26.0745C131.6 -30.0803 135.483 -32.9263 139.41 -35.5047C142.299 -37.402 145.282 -39.0023 147.44 -42.1127C149.439 -44.9926 150.958 -48.3365 152.888 -51.2918C155.434 -55.2081 158.481 -58.5984 161.91 -61.3323C170.507 -68.1723 180.965 -71.3713 190.97 -72.481C195.813 -73.0204 201.067 -73.3011 205.878 -71.8309C210.524 -70.4124 215.117 -68.1693 219.389 -65.5539C228.47 -59.9995 236.341 -51.8651 242.046 -41.5808C245.958 -34.5265 248.073 -27.6674 243.007 -20.5112C237.296 -12.4448 228.341 -7.99415 220.96 -2.75889C215.897 0.831756 210.223 4.35148 209.278 11.982C208.524 18.0536 207.913 23.8163 205.965 29.5555C203.065 38.0208 198.802 45.6892 193.428 52.1056C188.513 57.9512 182.296 62.9116 175.266 59.7893C169.696 57.3114 165.374 51.7599 160.508 47.791C155.085 43.3581 149.126 40.914 142.852 38.9488C137.213 37.1756 131.904 34.4509 128.259 28.6659C127.513 27.4838 126.73 26.1968 126.155 24.8743C125.421 23.1869 125.478 21.5142 125.334 19.6228C124.958 14.6314 124.16 9.69756 123.52 4.7667Z" stroke="#F1B170" stroke-width="0.897114"/>
<path fill-rule="evenodd" clip-rule="evenodd" d="M129.017 3.87562C129.138 -6.47263 131.177 -16.2525 136.763 -24.3171C139.15 -27.767 142.002 -30.6087 144.629 -33.77C146.745 -36.3186 148.744 -38.6866 151.177 -40.7867C156.947 -45.7596 161.637 -52.1947 167.769 -56.6228C175.956 -62.5429 185.333 -65.8152 194.637 -67.1235C199.18 -67.7629 203.874 -67.9864 208.47 -67.2641C212.418 -66.644 216.199 -64.4669 219.706 -62.2395C226.581 -57.8764 233.255 -51.6752 237.719 -43.8296C247.559 -26.5327 228.158 -13.957 218.2 -6.59251C213.62 -3.20476 206.622 0.718755 204.746 7.42913C203.405 12.2229 202.589 17.098 200.861 21.7438C196.223 34.2203 186.806 48.8946 174.256 46.941C168.886 46.1063 163.992 42.7156 158.979 40.4393C153.818 38.095 148.49 36.7881 143.125 35.354C138.111 34.0146 134.115 32.1083 130.876 26.9979C129.328 24.5573 129.465 21.6358 129.327 18.6417C129.102 13.7236 128.963 8.77742 129.017 3.87562Z" stroke="#451D73" stroke-width="0.897114"/>
<path fill-rule="evenodd" clip-rule="evenodd" d="M134.023 2.55088C136.039 -13.0689 143.527 -30.1212 154.537 -39.1924C167.487 -49.863 181.518 -58.8485 196.991 -61.4316C204.165 -62.6293 212.023 -63.2186 218.793 -59.3019C223.944 -56.323 229.928 -51.8701 232.764 -45.608C239.7 -30.291 224.271 -18.0977 215.481 -11.0115C210.749 -7.19669 204.725 -3.47933 201.158 2.09156C199.088 5.32155 198.032 9.59423 196.361 13.1418C191.298 23.8921 182.963 32.5631 172.581 34.1138C167.781 34.8301 162.945 33.944 158.181 33.2395C153.304 32.5187 148.367 32.1274 143.521 31.1216C139.652 30.3182 135.093 28.9579 133.668 23.9054C131.871 17.5385 133.2 8.92963 134.023 2.55088Z" stroke="#3E4AF6" stroke-width="0.897114"/>
<path fill-rule="evenodd" clip-rule="evenodd" d="M138.931 0.041517C141.872 -14.6437 148.098 -28.9682 158.565 -37.735C164.116 -42.3837 170.559 -45.5927 176.746 -48.7633C183.758 -52.3566 191.085 -55.1459 198.568 -56.5294C207.885 -58.2529 222.975 -59.8064 227.843 -46.8506C232.674 -33.9909 220.465 -22.6093 213.245 -16.1233C208.616 -11.9683 203.662 -8.1547 199.24 -3.61242C196.842 -1.14985 194.994 1.69554 192.965 4.5838C187.356 12.5864 179.36 18.9216 171.21 22.3036C163.31 25.5821 153.538 27.0336 145.2 25.9501C141.602 25.4845 139.031 23.9133 137.943 19.4464C136.435 13.2368 137.716 6.10775 138.931 0.041517Z" stroke="#F1B170" stroke-width="0.897114"/>
<path fill-rule="evenodd" clip-rule="evenodd" d="M143.809 -3.9157C146.73 -16.8455 153.031 -28.6551 162.221 -36.4153C172.522 -45.1146 185.787 -49.9486 197.979 -52.4067C204.459 -53.7124 218.503 -57.2525 221.806 -47.1209C225.109 -36.9893 215.56 -27.005 210.064 -21.5087C203.394 -14.848 196.202 -8.41698 189.019 -2.44079C182.777 2.75526 176.118 8.06759 169.358 12.0802C165.545 14.3565 161.574 16.2151 157.49 17.6339C154.466 18.6761 150.621 20.2305 147.451 19.4547C139.455 17.4955 142.412 2.26656 143.809 -3.9157Z" stroke="#E64456" stroke-width="0.897114"/>
<path fill-rule="evenodd" clip-rule="evenodd" d="M149.831 -7.78225C156.24 -32.234 176.545 -44.2598 196.096 -48.4514C200.64 -49.4244 213.375 -52.9325 215.915 -45.4631C218.376 -38.221 210.549 -29.6324 206.885 -25.5633C195.532 -12.9543 181.505 -3.60533 168.213 5.65652C164.064 8.54744 156.581 14.8209 151.434 11.9271C145.846 8.77924 148.503 -2.71207 149.831 -7.78225Z" stroke="#3E4AF6" stroke-width="0.897114"/>
<path fill-rule="evenodd" clip-rule="evenodd" d="M156.395 -12.4901C161.969 -30.4969 178.18 -40.8245 193.085 -44.2292C196.735 -45.0622 206.007 -47.656 208.772 -42.631C211.33 -37.9827 205.224 -31.2473 202.94 -28.5708C197.854 -22.6109 191.826 -17.7011 185.872 -12.9819C180.366 -8.61572 174.801 -4.14022 169.008 -0.447563C165.957 1.49625 160.234 5.64384 156.766 2.64245C153.033 -0.586407 155.158 -8.49165 156.395 -12.4901Z" stroke="#3E4AF6" stroke-width="0.897114"/>
<path fill-rule="evenodd" clip-rule="evenodd" d="M-22.8125 17.7488C-22.966 6.21268 -27.9889 -5.77659 -25.5083 -17.5312C-23.4714 -27.1852 -13.2164 -27.9912 -7.06444 -32.365C-2.17573 -35.8398 0.59865 -41.9954 3.24247 -47.9014C5.61792 -53.2038 7.75159 -58.6655 10.254 -63.8807C11.8739 -67.2523 14.6555 -73.8728 18.1685 -73.9924C21.5316 -74.1075 24.6155 -68.9484 26.569 -65.8986C29.1161 -61.9234 31.3743 -57.6853 33.8477 -53.6466C38.0159 -46.8342 43.017 -41.7917 48.7435 -37.0193C55.2601 -31.589 61.8844 -26.3443 68.6162 -21.285C73.5727 -17.5489 78.5629 -13.8408 83.3271 -9.73563C86.3154 -7.15975 92.9111 -2.32683 92.9413 2.42193C92.9558 4.68782 91.1969 7.19727 90.011 9.00851C88.0043 12.0745 85.7171 14.8777 83.4226 17.6204C79.1492 22.7293 74.6945 27.6065 70.2881 32.5427C64.5689 38.9492 59.106 45.2509 54.0783 52.5239C48.8801 60.0522 43.914 67.8286 38.8464 75.4987C35.4144 80.6947 31.986 86.5299 27.0356 89.7184C20.8353 93.704 15.7459 89.5014 9.47545 89.4527C4.08143 89.4099 4.47915 74.1524 3.79372 69.91C3.10587 65.6158 1.58993 61.6184 1.00242 57.314C0.269835 51.9408 0.260161 46.4436 0.0800377 41.0129C-0.138769 34.3702 -0.225807 28.0464 -6.04173 25.5133C-9.35164 24.0741 -12.9323 23.7715 -16.3583 22.9094C-18.5778 22.3499 -22.7641 21.3934 -22.8125 17.7488Z" stroke="#E64456" stroke-width="0.897114"/>
<path fill-rule="evenodd" clip-rule="evenodd" d="M-20.1607 15.6998C-20.7261 6.02967 -24.0664 -6.34734 -20.9077 -16.3294C-18.209 -24.8596 -9.76912 -25.9655 -4.08605 -30.4464C0.605461 -34.1424 2.69394 -40.1905 5.03908 -46.1321C6.92053 -50.8984 8.74507 -55.7105 10.8808 -60.3245C12.4547 -63.7248 14.858 -69.4654 18.1305 -70.1691C21.0725 -70.8018 24.2276 -65.7339 25.8791 -63.1556C28.2884 -59.3917 30.349 -55.304 32.4774 -51.302C36.2173 -44.2723 40.0468 -37.9507 45.5204 -32.7867C51.0183 -27.6006 57.0331 -23.7228 63.1121 -19.6868C67.8677 -16.529 72.5992 -13.2795 77.1176 -9.63378C80.4834 -6.91948 85.3226 -3.44528 86.8626 1.39494C88.0818 5.22395 81.8987 11.578 80.0753 13.8207C76.3221 18.4318 72.345 22.7605 68.3605 27.0626C63.5031 32.3049 58.4908 36.8894 54.2012 42.8695C46.529 53.5611 40.1158 66.8754 30.2437 74.8217C24.2894 79.6146 17.6632 80.8402 11.0406 80.1232C8.41818 79.8393 7.78861 75.3199 7.45809 72.684C6.90843 68.305 6.83941 63.8507 6.41687 59.4539C6.02097 55.3381 5.142 51.4278 4.43373 47.3918C3.71699 43.3026 3.51601 39.1129 2.98814 34.9956C2.66125 32.4395 2.33799 29.465 0.908137 27.41C-0.571352 25.2826 -3.01215 24.3912 -5.14542 23.7141C-9.15167 22.4545 -19.7611 22.524 -20.1607 15.6998Z" stroke="#451D73" stroke-width="0.897114"/>
<path fill-rule="evenodd" clip-rule="evenodd" d="M-16.7472 11.6518C-17.6981 2.77543 -19.0293 -8.28023 -15.1556 -16.4583C-11.9892 -23.1451 -5.2361 -24.5876 -0.412642 -28.9446C3.59923 -32.5678 5.11459 -38.3304 7.10599 -43.6855C8.74006 -48.078 10.3826 -52.4896 12.3631 -56.6694C13.8651 -59.8394 15.8008 -64.1373 18.7831 -65.2432C21.3329 -66.1881 24.2134 -61.9551 25.627 -59.8482C28.0339 -56.2575 29.9962 -52.2342 31.9452 -48.264C35.1334 -41.7676 38.0672 -34.8283 42.6048 -29.5441C47.014 -24.4164 52.2517 -21.3896 57.5876 -17.9864C61.6745 -15.379 65.7361 -12.6712 69.5868 -9.56179C72.5437 -7.17585 76.2079 -4.34844 77.7487 -0.378269C79.0811 3.04562 75.6604 7.09848 73.9512 9.51395C71.1289 13.5004 67.9964 17.1575 64.9075 20.8295C61.574 24.7908 57.8819 28.445 54.6562 32.5038C47.8728 41.045 42.4534 50.5017 34.0929 57.0453C28.6783 61.2842 21.3922 65.1348 14.9917 64.4423C10.3887 63.9433 10.6915 51.5086 10.2494 47.5355C9.52257 41.0391 8.11865 34.2135 5.88862 28.2294C3.97353 23.1017 -0.577378 21.5204 -4.76368 20.3703C-7.38618 19.6483 -10.1347 19.2585 -12.6711 18.1423C-15.6074 16.849 -16.3487 15.3725 -16.7472 11.6518Z" stroke="#3E4AF6" stroke-width="0.897114"/>
<path fill-rule="evenodd" clip-rule="evenodd" d="M-13.5642 7.48998C-14.1303 -0.0145883 -14.003 -8.88887 -10.3357 -15.3806C-7.12178 -21.0668 -1.39952 -22.5638 2.67032 -27.0432C5.84665 -30.5378 7.09415 -36.2358 8.80235 -40.8573C10.89 -46.508 13.8154 -56.9445 19.0818 -59.0709C23.9809 -61.0477 29.1042 -48.4196 30.8779 -44.654C33.6857 -38.6939 36.034 -32.1578 39.4395 -26.6537C42.3721 -21.9152 46.3013 -19.2958 50.4718 -16.4808C55.7891 -12.8855 63.8621 -8.62233 66.7051 -1.61531C68.8242 3.60591 61.9333 11.3681 59.5801 14.9857C57.1191 18.7646 55.2654 23.2439 52.7255 26.8896C48.7175 32.6424 42.223 37.2743 36.8608 40.8089C31.6477 44.2473 24.878 48.0528 18.9642 47.8263C15.0774 47.6782 14.3379 40.3513 13.5087 36.7723C12.3206 31.6844 10.7409 27.1251 7.34754 23.6645C3.89357 20.1417 -0.177478 18.4818 -4.45705 17.0291C-6.65381 16.2887 -9.15973 15.7112 -11.1249 14.2157C-13.2962 12.5883 -13.3459 10.3745 -13.5642 7.48998Z" stroke="#F1B170" stroke-width="0.897114"/>
<path fill-rule="evenodd" clip-rule="evenodd" d="M-9.68521 3.16585C-9.65379 -3.31754 -8.43934 -10.2312 -4.83827 -15.2322C-1.83899 -19.3978 2.85569 -20.7903 5.72688 -25.0487C8.00111 -28.4201 9.15877 -33.1529 10.6814 -37.068C12.5435 -41.8657 15.1767 -50.247 19.8073 -51.912C24.3268 -53.5329 28.3242 -44.3014 30.0571 -40.6486C32.5947 -35.2925 34.649 -29.6151 37.2096 -24.2736C39.2156 -20.083 41.6687 -17.3821 44.935 -14.6812C48.7693 -11.5087 54.119 -7.99442 56.1672 -2.74582C57.6439 1.05433 54.0694 7.12662 52.7716 10.4744C51.9015 12.723 51.1052 15.0069 50.6677 17.4441C50.327 19.3419 50.2931 21.0983 49.3059 22.728C46.8201 26.8273 41.3702 27.3622 37.6725 28.7134C32.7615 30.5066 27.5508 32.5445 22.4114 32.9335C19.2526 33.1766 17.6406 29.624 15.8377 27.1249C13.7072 24.1706 10.691 22.0458 8.0567 19.8164C4.5801 16.8694 0.796557 15.0364 -3.11749 13.1591C-4.88298 12.3119 -6.95661 11.4808 -8.32454 9.7966C-9.75288 8.0505 -9.69609 5.50577 -9.68521 3.16585Z" stroke="#E64456" stroke-width="0.897114"/>
<path fill-rule="evenodd" clip-rule="evenodd" d="M-5.61163 -0.684303C-4.98746 -6.12948 -3.04235 -11.3338 0.243047 -15.1831C2.76153 -18.1384 6.1062 -19.8023 8.12751 -23.3531C10.0109 -26.663 11.3234 -30.4266 12.879 -33.9656C14.5253 -37.707 16.9712 -43.9605 20.7683 -44.9786C24.8605 -46.075 28.0129 -39.7669 29.7584 -36.2708C31.9636 -31.8526 33.6389 -27.0989 35.6106 -22.5285C37.096 -19.122 38.9908 -16.0065 41.2319 -13.2858C43.5822 -10.4176 46.7696 -7.67067 47.9587 -3.7268C49.0099 -0.233615 47.043 3.99249 46.6958 7.53444C46.3245 11.3187 46.9753 15.2936 44.9164 18.543C40.6706 25.2442 30.0148 24.0015 23.9231 24.1448C17.9123 24.2926 13.0798 20.1921 8.21582 16.291C5.003 13.7155 1.65712 11.5345 -1.63674 9.13474C-4.99472 6.68626 -6.16081 4.10774 -5.61163 -0.684303Z" stroke="#3E4AF6" stroke-width="0.897114"/>
<path fill-rule="evenodd" clip-rule="evenodd" d="M-1.82607 -3.79892C0.0197545 -11.6874 5.78478 -15.8801 9.90612 -21.8416C13.2782 -26.722 15.8067 -36.8288 21.4858 -38.1657C27.9335 -39.6831 31.7934 -26.2916 34.035 -21.1243C36.5223 -15.3935 40.9523 -10.732 42.7945 -4.66556C43.7628 -1.48147 42.9313 1.48965 42.4156 4.67225C41.8504 8.16691 41.4255 11.7399 39.4744 14.5528C35.6339 20.0884 28.1332 20.0499 22.7313 20.2022C17.1393 20.3605 12.1925 16.5671 7.73712 12.7811C3.01181 8.77178 -3.71668 4.2907 -1.82607 -3.79892Z" stroke="#3E4AF6" stroke-width="0.897114"/>
<path fill-rule="evenodd" clip-rule="evenodd" d="M1.26598 -5.93939C3.34588 -11.5597 7.7166 -16.1289 11.2632 -20.4422C14.2233 -24.0382 17.4078 -31.2771 21.9211 -31.7931C27.2257 -32.4017 30.4407 -24.6718 32.5279 -19.9321C34.5822 -15.2747 37.5423 -10.3571 38.6798 -5.24549C39.8661 0.0793226 36.7072 7.25061 33.6946 11.0186C30.3346 15.2202 24.8374 16.7726 20.1204 16.605C15.1816 16.4345 10.6499 12.9621 6.90951 9.36025C2.91064 5.50998 -1.15285 0.585046 1.26598 -5.93939Z" stroke="#E64456" stroke-width="0.897114"/>
<path fill-rule="evenodd" clip-rule="evenodd" d="M4.13389 -6.99835C6.12063 -11.6729 9.56447 -15.6273 12.7398 -19.1546C15.1903 -21.8778 18.8062 -26.5082 22.3416 -26.6216C26.2309 -26.7468 29.527 -22.8602 31.0732 -18.8763C32.5975 -14.9469 34.2034 -10.0205 34.4316 -5.70967C34.9271 3.6778 24.8397 14.1934 17.2649 13.3377C10.0831 12.5262 0.172617 2.31548 4.13389 -6.99835Z" stroke="#3E4AF6" stroke-width="0.897114"/>
<path fill-rule="evenodd" clip-rule="evenodd" d="M6.7869 -7.51464C9.52772 -13.6053 16.1852 -22.2883 22.3487 -22.4945C29.4233 -22.7301 31.1993 -13.0676 30.2772 -6.06527C29.3404 1.08145 21.1838 11.4259 14.68 10.0281C8.33235 8.66416 3.53866 -0.291332 6.7869 -7.51464Z" stroke="#451D73" stroke-width="0.897114"/>
<path fill-rule="evenodd" clip-rule="evenodd" d="M9.58844 -8.50191C11.909 -13.6015 16.8609 -19.9712 22.0256 -20.164C28.1795 -20.3921 28.0634 -12.2342 26.6679 -7.15674C25.2168 -1.88497 18.8259 7.11912 13.4375 5.69742C8.1978 4.30957 7.36463 -3.61427 9.58844 -8.50191Z" stroke="#E64456" stroke-width="0.897114"/>
<path fill-rule="evenodd" clip-rule="evenodd" d="M12.0276 -9.08787C13.5593 -12.7267 17.3929 -17.3257 21.0373 -17.4728C25.4918 -17.6497 24.6258 -11.1793 23.4749 -8.05629C22.1069 -4.34021 17.5214 2.11684 13.6733 1.07039C9.88462 0.0402957 10.7639 -6.08974 12.0276 -9.08787Z" stroke="#3E4AF6" stroke-width="0.897114"/>
</g>
</g>
<path d="M55.9246 25.9139L52.2878 44.6211H56.3432L57.8607 36.7719H65.2913L63.7738 44.6211H67.803L71.4398 25.9139H67.4106L65.9454 33.4229H58.5148L59.98 25.9139H55.9246ZM72.8584 25.9139L77.0969 37.5045L75.7102 44.6211H79.7395L81.1262 37.5045L89.8388 25.9139H85.5217L79.7133 34.234H79.661L77.1493 25.9139H72.8584ZM87.5989 44.6211H95.7359C101.963 44.6211 105.914 39.4145 105.914 33.0305C105.914 28.3471 103.428 25.9139 98.8232 25.9139H91.2357L87.5989 44.6211ZM94.6108 29.2629H97.829C100.942 29.2629 101.858 30.7542 101.858 33.3706C101.858 37.7138 99.3203 41.2721 95.762 41.2721H92.3084L94.6108 29.2629ZM112.555 33.3183L113.314 29.2629H123.125L123.78 25.9139H109.939L106.302 44.6211H120.352L121.006 41.2721H111.012L111.901 36.6673H120.404L121.058 33.3183H112.555ZM122.808 44.6211H126.863L128.171 37.8185H131.887C136.021 37.8185 133.169 43.8362 133.849 44.6211H138.088L138.114 44.3856C137.093 44.0717 140.102 36.8242 135.733 36.0393L135.759 35.987C138.558 35.4114 140.547 33.1351 140.547 30.4141C140.547 27.4837 138.428 25.9139 134.608 25.9139H126.445L122.808 44.6211ZM129.82 29.2629H133.457C135.523 29.2629 136.387 29.8646 136.387 31.199C136.387 33.109 134.948 34.4695 132.567 34.4695H128.825L129.82 29.2629ZM152.292 40.4872L152.815 44.6211H157.028L153.679 25.9139H149.518L139.027 44.6211H143.213L145.358 40.4872H152.292ZM146.954 37.3475L150.931 29.6292H150.984L151.952 37.3475H146.954ZM158.528 44.6211H167.711C172.159 44.6211 175.089 42.0047 175.089 38.3941C175.089 35.987 173.677 35.0451 172.081 34.6788V34.6265C174.252 34.077 175.953 32.3502 175.953 29.917C175.953 27.3791 174.095 25.9139 170.589 25.9139H162.164L158.528 44.6211ZM164.729 33.5537L165.54 29.2629H169.49C171.034 29.2629 171.793 29.7076 171.793 30.9635C171.793 32.6118 170.485 33.5537 168.522 33.5537H164.729ZM163.237 41.2721L164.205 36.1963H168.418C170.223 36.1963 171.113 36.6934 171.113 38.2371C171.113 40.1732 169.647 41.2721 167.162 41.2721H163.237ZM187.756 40.4872L188.28 44.6211H192.492L189.143 25.9139H184.983L174.491 44.6211H178.677L180.823 40.4872H187.756ZM182.419 37.3475L186.396 29.6292H186.448L187.416 37.3475H182.419ZM193.992 44.6211H202.129C208.356 44.6211 212.307 39.4145 212.307 33.0305C212.307 28.3471 209.821 25.9139 205.216 25.9139H197.629L193.992 44.6211ZM201.004 29.2629H204.222C207.336 29.2629 208.251 30.7542 208.251 33.3706C208.251 37.7138 205.714 41.2721 202.155 41.2721H198.702L201.004 29.2629Z" fill="white"/>
</svg>
