<svg width="266" height="259" viewBox="0 0 266 259" fill="none" xmlns="http://www.w3.org/2000/svg">
<rect x="117" y="51" width="32" height="208" fill="#F48E6B"/>
<rect x="2.5" y="2.5" width="261" height="65.4973" fill="#F48E6B" stroke="#E64456" stroke-width="5"/>
<mask id="mask0_600_1014" style="mask-type:alpha" maskUnits="userSpaceOnUse" x="0" y="0" width="266" height="71">
<rect opacity="0.4" width="266" height="70.4973" fill="#F48E6B"/>
</mask>
<g mask="url(#mask0_600_1014)">
<mask id="mask1_600_1014" style="mask-type:alpha" maskUnits="userSpaceOnUse" x="0" y="-64" width="288" height="217">
<rect y="-63.2305" width="287.077" height="215.487" fill="#01002D"/>
</mask>
<g mask="url(#mask1_600_1014)">
<path fill-rule="evenodd" clip-rule="evenodd" d="M98.2939 3.89295C98.2745 -1.17439 90.546 -6.87275 87.2447 -9.81059C80.7172 -15.6213 73.9282 -20.9871 67.2021 -26.4387C60.476 -31.8902 53.7317 -37.327 47.318 -43.3121C43.1535 -47.1972 38.2603 -51.5729 35.4359 -57.1205C29.4193 -68.9428 48.3893 -67.1872 53.3032 -67.4458C65.8038 -68.1064 80.1421 -67.8049 91.8595 -73.9614C98.8544 -77.6366 101.644 -83.8005 100.141 -92.784C99.657 -95.7056 98.2237 -99.0675 99.4379 -101.914C100.734 -104.954 103.717 -106.708 106.193 -107.884C115.223 -112.17 125.605 -112.666 135.159 -113.204C145.461 -113.795 155.86 -113.622 166.09 -113.668C170.427 -113.687 174.958 -115.589 179.088 -117.135C184.503 -119.161 189.854 -121.437 195.224 -123.637C207.038 -128.467 219.212 -133.553 231.712 -134.78C239.539 -135.548 248.095 -134.509 254.175 -127.825C257.229 -124.469 258.827 -119.48 260.592 -115.048C262.728 -109.694 264.78 -104.289 267.055 -99.0188C274.383 -82.0464 284.845 -65.4611 301.826 -64.6277C304.395 -64.5021 306.918 -64.9114 309.474 -64.9882C311.103 -65.0355 312.552 -64.5553 313.157 -62.476C314.679 -57.2609 309.896 -49.0281 307.935 -44.8903C303.641 -35.833 298.798 -27.182 294.262 -18.3064C291.261 -12.4366 286.066 -4.41518 286.012 2.71662C285.963 9.07111 292.888 13.6641 296.658 16.794C300.19 19.7245 306.591 23.8253 306.978 29.7867C307.166 32.6773 305.604 35.0728 303.973 36.9319C301.115 40.183 297.822 42.4765 295.251 46.1858C291.035 52.2713 287.512 60.6444 288.084 68.8447C288.481 74.5268 291.138 78.2479 294.516 81.8049C295.936 83.3004 297.089 84.3585 297.164 86.7865C297.285 90.6421 296.048 94.7222 295.028 98.297C291.382 111.09 286.203 123.461 280.442 135.011C277.563 140.783 274.453 146.538 270.636 151.462C268.136 154.695 264.765 158.543 260.951 158.539C256.536 158.539 251.864 156.594 247.573 155.14C239.558 152.422 231.639 149.281 223.752 146.058C205.512 138.601 187.444 130.54 169.547 121.875C156.941 115.762 144.068 109.639 132.216 101.511C129.905 99.9151 127.723 98.054 125.701 95.9532C123.54 93.7469 120.858 92.7597 118.139 92.0238C101.263 87.456 82.7752 90.9628 65.8292 93.1617C61.528 93.7188 57.2267 94.2789 52.9134 94.669C49.2053 95.0045 44.766 95.9665 41.1621 94.5213C34.0607 91.6765 40.2686 81.1916 42.8932 76.9193C52.1337 61.8769 64.0557 49.1502 75.1061 36.1575C80.3601 29.97 85.654 23.7987 90.6223 17.261C93.2094 13.8621 98.3108 8.33518 98.2939 3.89295Z" stroke="#451D73" stroke-width="0.897114"/>
<path fill-rule="evenodd" clip-rule="evenodd" d="M101.478 3.03695C98.6459 -2.32505 93.6766 -6.28821 89.5517 -10.018C83.6157 -15.3874 77.4931 -20.4584 71.4626 -25.6756C65.7604 -30.6092 60.0461 -35.599 54.7655 -41.2018C51.5455 -44.6184 47.5054 -48.7041 45.9802 -53.7574C42.6718 -64.7104 60.4701 -63.0486 64.864 -63.3352C75.7874 -64.0442 88.1719 -64.2067 98.2776 -69.9734C104.588 -73.5747 107.18 -79.5467 105.835 -87.8379C105.369 -90.7065 104.531 -93.1556 105.592 -96.0094C106.819 -99.3123 109.642 -101.371 112.23 -102.825C120.335 -107.379 129.916 -108.346 138.703 -109.151C147.78 -109.983 157.238 -110.57 166.023 -109.961C169.536 -109.719 173.58 -111.094 177.057 -112.149C182.406 -113.773 187.702 -115.648 193.025 -117.391C203.843 -120.936 214.942 -124.351 226.196 -124.74C234.321 -125.02 242.793 -123.499 249.552 -117.618C256.403 -111.655 259.442 -102.411 263.241 -93.6238C269.803 -78.4315 278.664 -59.9599 293.843 -56.7501C296.145 -56.2626 298.357 -56.527 300.656 -56.4074C301.839 -56.3468 303.185 -56.1548 303.784 -54.7323C305.341 -51.0395 301.076 -44.2875 299.64 -41.4588C295.674 -33.6418 291.215 -26.2074 287.058 -18.541C283.757 -12.4538 279.573 -5.68996 278.296 1.52584C276.746 10.2823 286.87 16.5129 290.431 22.6784C296.603 33.3699 284.909 39.4616 279.144 44.5592C272.523 50.4116 267.059 61.0884 272.993 70.1432C275.264 73.6056 278.057 75.6692 279.071 80.1877C280.657 87.2543 279.458 95.3298 278.171 102.315C276.233 112.816 273.166 123.203 268.996 132.694C266.008 139.489 261.052 150.143 253.795 149.344C248.909 148.811 243.942 146.863 239.185 145.14C232.062 142.563 225.028 139.625 218.032 136.573C201.883 129.548 185.911 121.802 170.253 113.281C159.57 107.466 129.769 83.7003 127.526 82.8525C120.84 80.3266 113.239 80.7712 106.346 81.1626C97.1764 81.6826 88.0532 83.0297 78.9372 84.2779C74.5978 84.8688 70.2367 85.5911 65.8743 85.8821C62.7694 86.0889 58.6918 86.2661 55.9721 84.0637C50.6636 79.7667 56.5778 69.9349 59.0237 65.7753C66.5164 53.0232 75.9946 41.9801 84.8816 30.6889C89.2428 25.1452 93.6706 19.6104 97.6295 13.6221C99.2262 11.204 103.229 6.34869 101.478 3.03695Z" stroke="#3E4AF6" stroke-width="0.897114"/>
<path fill-rule="evenodd" clip-rule="evenodd" d="M105.397 0.291303C97.6615 -10.4387 86.9856 -18.4189 77.7716 -27.3802C73.147 -31.8794 68.4934 -36.5011 64.5048 -41.8602C62.4299 -44.6469 59.839 -48.1708 59.4393 -52.0553C58.371 -62.4469 74.4128 -61.0417 79.2142 -61.4362C88.4972 -62.2016 98.9842 -62.7823 107.406 -68.0852C112.551 -71.327 115.085 -76.6476 114.124 -83.6408C113.697 -86.7437 113.034 -89.3796 114.124 -92.4263C115.228 -95.5129 117.53 -97.6909 119.86 -99.3235C126.557 -104.019 134.88 -105.52 142.42 -106.639C151.265 -107.942 160.177 -108.45 169.083 -108.161C176.883 -107.911 184.646 -110.72 192.263 -112.571C202.352 -115.023 212.625 -117.163 222.95 -116.84C231.104 -116.583 239.322 -114.563 246.293 -109.195C253.376 -103.728 257.635 -95.5455 261.475 -86.7156C267.279 -73.3675 274.513 -55.4802 287.246 -50.4108C289.098 -49.672 290.825 -49.5907 292.735 -49.4622C293.662 -49.4001 294.86 -49.3809 295.321 -48.2004C296.428 -45.3576 292.335 -39.8463 291.193 -37.9255C287.547 -31.7937 283.595 -25.9381 279.858 -19.8876C276.369 -14.2389 272.57 -8.35235 270.403 -1.73293C266.954 8.80938 277.979 14.9737 277.67 25.0196C277.478 31.2563 272.583 35.7288 268.707 38.8228C263.935 42.6275 257.063 45.129 254.675 52.072C252.895 57.2434 255.687 60.2532 257.837 64.1776C261.481 70.8265 261.729 79.8396 261.35 87.5361C260.839 97.9366 258.841 108.491 255.441 118.05C253.901 122.384 252.014 126.892 249.235 130.258C246.632 133.413 244.168 134.221 240.69 133.575C230.04 131.595 219.288 126.077 209.076 121.147C196.245 114.954 183.591 108.115 171.315 100.422C162.944 95.1751 154.384 89.6239 147.037 82.3751C145.122 80.4853 143.161 78.4315 141.761 75.9389C140.702 74.0653 140.253 72.5183 138.469 71.4486C133.18 68.2792 125.824 69.1081 120.158 69.4376C111.098 69.9622 102.081 71.3585 93.0769 72.6158C87.8225 73.3546 77.9242 75.6788 73.7284 70.104C70.1068 65.2902 74.477 57.0824 76.7093 52.8418C82.3562 42.1178 89.6201 32.7058 96.3595 23.0145C99.4481 18.573 102.658 14.0975 105.209 9.15956C105.86 7.90069 106.905 6.23253 107.084 4.70327C107.285 2.9509 106.346 1.61371 105.397 0.291303Z" stroke="#451D73" stroke-width="0.897114"/>
<path fill-rule="evenodd" clip-rule="evenodd" d="M106.062 2.78574C98.9142 -6.70151 90.3033 -14.4957 82.6301 -23.3737C79.1897 -27.3543 75.7153 -31.5301 73.0938 -36.3862C71.6837 -38.9975 70.1863 -42.2846 70.5752 -45.5304C71.6909 -54.8461 84.8846 -54.0047 90.2149 -54.5503C98.1352 -55.3518 107.234 -56.1592 114.238 -61.1823C118.825 -64.4723 120.546 -69.3313 119.689 -75.598C118.77 -82.3201 120.825 -87.1997 125.504 -90.9497C131.37 -95.6475 138.774 -97.5624 145.585 -98.9228C153.79 -100.554 162.1 -101.277 170.412 -101.083C178.496 -100.894 186.328 -102.547 194.358 -103.622C205.005 -105.046 215.994 -105.748 226.522 -102.829C235.687 -100.288 243.966 -94.6863 250.172 -86.0242C256.655 -76.9835 259.864 -65.5932 265.128 -55.5913C268.41 -49.3528 272.988 -41.1002 279.123 -38.6752C281.169 -37.8663 284.898 -38.9576 283.264 -34.9784C282.33 -32.7027 280.582 -30.7065 279.201 -28.8463C276.969 -25.8402 274.664 -22.9168 272.395 -19.952C267.559 -13.6321 262.38 -7.17766 258.755 0.305973C254.188 9.72816 260.977 16.9796 260.15 26.5334C259.705 31.6748 256.776 35.7782 253.677 39.0017C251.672 41.0896 249.478 42.8981 247.238 44.5853C244.899 46.3478 242.131 47.6905 240.091 49.9692C237.183 53.2119 238.446 57.0506 238.991 61.2427C239.95 68.6098 240.161 76.0933 239.618 83.5235C238.955 92.6307 237.398 101.998 234.118 110.274C232.843 113.496 231.227 116.912 228.827 119.073C226.427 121.233 223.945 121.085 221.195 120.434C213.038 118.512 204.899 114.039 197.161 109.8C187.477 104.493 177.983 98.5618 168.917 91.8145C162.659 87.1566 156.38 82.1247 151.144 75.8092C149.621 73.9712 148.172 72.0031 147.001 69.8057C146.196 68.299 145.765 66.3545 144.6 65.2218C140.953 61.6863 133.633 62.742 129.356 62.9476C120.822 63.3572 112.422 65.3046 103.898 65.7778C99.2461 66.0366 91.9606 66.6872 88.5444 61.8534C85.3316 57.3094 88.2415 50.1525 90.1616 45.7741C93.9352 37.1652 99.0051 29.4953 103.549 21.4926C105.417 18.1996 107.464 14.7542 108.675 10.9939C109.75 7.64322 107.893 5.21818 106.062 2.78574Z" stroke="#3E4AF6" stroke-width="0.897114"/>
<path fill-rule="evenodd" clip-rule="evenodd" d="M107.82 2.94027C102.131 -5.40824 95.2723 -12.8191 89.542 -21.3035C86.1878 -26.2721 80.4115 -34.6251 83.0055 -41.6299C85.8513 -49.3273 95.771 -49.5369 101.505 -50.1571C108.329 -50.8954 116.344 -51.9039 122.184 -56.7101C124.032 -58.2295 125.605 -60.2406 126.272 -62.8895C126.986 -65.7245 126.206 -68.2052 126.104 -71.0431C125.891 -76.9967 128.803 -81.7763 132.657 -85.0587C138.104 -89.6996 144.916 -91.8937 151.349 -93.4235C158.638 -95.1488 166.048 -95.9995 173.473 -95.9632C180.568 -95.9336 187.589 -96.1256 194.692 -96.3471C203.981 -96.6424 213.401 -96.1655 222.411 -93.1547C231.288 -90.1868 239.358 -84.6246 245.697 -76.4429C251.881 -68.4591 256.054 -58.7005 259.708 -48.7603C261.781 -43.1183 265.284 -34.6871 270.23 -31.8373C272.43 -30.569 274.588 -30.6561 272.249 -27.3574C269.304 -23.2038 265.335 -19.8712 261.924 -16.3186C257.004 -11.192 251.96 -5.96491 247.83 0.130358C245.192 4.02259 244.017 7.79965 244.198 12.8392C244.339 16.6782 244.975 20.4775 244.653 24.3313C243.899 33.3767 238.061 39.5798 232.9 45.3561C229.58 49.0712 226.547 51.9047 224.838 57.1893C222.817 63.4352 221.968 70.2304 220.617 76.7155C219.133 83.837 217.419 91.2449 214.18 97.5174C211.297 103.102 207.79 105.606 202.542 104.101C194.355 101.757 186.286 95.9802 179.019 90.6365C171.622 85.1998 164.352 79.0868 158.222 71.6139C154.913 67.5785 152.654 62.8402 149.715 58.505C146.018 53.0623 137.655 55.1236 132.685 55.5843C124.435 56.3492 98.474 62.0724 100.869 43.5355C101.869 35.7983 105.807 28.6576 108.687 21.83C109.88 18.9965 111.607 15.5959 111.877 12.349C112.171 8.81258 109.53 5.45338 107.82 2.94027Z" stroke="#E64456" stroke-width="0.897114"/>
<path fill-rule="evenodd" clip-rule="evenodd" d="M110.823 3.65197C106.475 -3.91347 101.272 -11.0608 97.542 -19.232C95.122 -24.5238 92.7456 -31.5943 95.8673 -37.1934C99.3909 -43.512 107.16 -44.9849 112.869 -45.7901C118.751 -46.6189 125.772 -47.3162 130.58 -52.1072C132.109 -53.6333 133.37 -55.6912 133.605 -58.1554C133.831 -60.5191 133.192 -62.8829 133.404 -65.2894C133.878 -70.6935 136.563 -75.1462 140.025 -78.3757C150.265 -87.9296 165.506 -90.054 177.862 -90.3037C184.046 -90.4278 190.411 -89.7763 196.635 -89.3095C204.712 -88.7038 212.8 -87.4037 220.503 -84.2703C236.881 -77.6104 247.858 -62.84 255.524 -44.4605C257.937 -38.6752 259.783 -32.4157 263.565 -27.7666C265.514 -25.3659 265.088 -23.6418 263.095 -21.4524C259.979 -18.0309 256.179 -15.416 252.721 -12.5603C247.802 -8.49913 242.778 -4.37735 238.428 0.487516C235.43 3.84107 233.301 7.07201 232.655 12.1009C232.194 15.6864 232.302 19.3398 232.025 22.9475C231.497 29.8008 229.691 36.6025 226.493 42.2873C223.952 46.7932 220.927 50.8883 217.8 54.7929C213.736 59.8765 210.298 65.0412 207.211 71.0747C203.119 79.0612 197.369 93.7932 187.73 89.8945C177.099 85.5925 167.135 74.6616 160.314 64.0706C158.024 60.5147 156.143 56.1536 153.054 53.5313C148.43 49.6119 143.737 49.7493 138.237 49.7656C130.001 49.7877 112.081 51.9698 111.888 36.9127C111.812 30.9472 113.927 25.3068 114.939 19.5688C116.082 13.1424 113.792 8.80787 110.823 3.65197Z" stroke="#F1B170" stroke-width="0.897114"/>
<path fill-rule="evenodd" clip-rule="evenodd" d="M114.062 4.32627C109.761 -5.53396 100.118 -21.7364 107.453 -32.7009C111.327 -38.4954 118.179 -40.6729 123.927 -41.9706C128.553 -43.0203 134.132 -43.4144 137.627 -47.864C140.196 -51.1355 139.056 -55.8966 140.04 -59.9919C141.262 -65.0689 144.066 -69.2232 147.511 -72.3456C157.14 -81.072 170.527 -83.75 182.11 -84.3199C194.139 -84.9104 207.393 -82.1482 218.713 -76.835C232.827 -70.2079 243.401 -57.6593 250.796 -41.7684C252.16 -38.8349 253.4 -35.8248 254.71 -32.8559C255.59 -30.8644 256.895 -28.9378 257.589 -26.8429C258.744 -23.35 257.383 -20.4948 255.201 -18.2184C252.063 -14.941 248.209 -12.6084 244.631 -10.1489C239.739 -6.78291 234.737 -3.47747 230.187 0.471645C227.128 3.12899 223.927 5.99154 222.833 10.602C222.086 13.7466 221.931 17.0771 221.958 20.3338C222.016 27.3167 221.715 32.9636 219.045 39.359C214.65 49.8584 207.892 59.2994 200.753 67.1548C195.15 73.3198 186.284 82.8966 178.121 78.7748C170.796 75.084 166.511 66.2498 161.686 59.1075C159.339 55.6352 156.704 52.4641 153.607 49.9942C149.703 46.8807 146.027 45.5742 141.401 45.0649C133.615 44.2071 121.875 43.9842 119.469 32.5872C118.58 28.3812 119.087 24.0246 118.621 19.764C118.012 14.1304 116.231 9.29994 114.062 4.32627Z" stroke="#451D73" stroke-width="0.897114"/>
<path fill-rule="evenodd" clip-rule="evenodd" d="M118.533 4.69171C115.471 -6.09729 111.448 -19.6944 118.844 -29.2833C122.426 -33.9285 127.465 -36.5252 132.342 -38.4658C135.835 -39.8565 141.381 -40.2659 143.523 -44.5416C145.096 -47.6881 145.313 -52.0289 146.736 -55.4001C148.691 -60.0349 151.653 -63.8524 155.128 -66.8408C164.18 -74.6281 175.971 -77.6372 186.723 -78.4989C210.086 -80.3685 233.857 -65.4782 246.359 -40.9798C250.087 -33.6772 254.898 -25.9047 248.874 -18.4441C242.297 -10.305 232.39 -6.4919 224.54 -0.708701C221.541 1.49935 217.719 4.15374 216.045 8.15158C215.039 10.5547 214.97 13.5697 214.924 16.2153C214.803 22.9532 214.344 29.0128 212.124 35.3C208.695 45.016 203.228 53.9797 197.032 61.3221C191.629 67.7246 183.923 75.2488 176.076 70.6332C170.059 67.0861 166.243 59.5575 161.568 54.0078C156.366 47.827 149.932 43.6622 142.866 41.627C135.993 39.6525 128.454 38.3209 124.831 29.9321C123.589 27.0545 122.291 23.3286 121.825 20.1436C121.073 14.8923 119.972 9.72457 118.533 4.69171V4.69171Z" stroke="#E64456" stroke-width="0.897114"/>
<path fill-rule="evenodd" clip-rule="evenodd" d="M123.519 4.7667C122.102 -6.1279 121.945 -17.4879 128.527 -26.0745C131.599 -30.0803 135.482 -32.9263 139.409 -35.5047C142.298 -37.402 145.281 -39.0023 147.439 -42.1127C149.438 -44.9926 150.957 -48.3365 152.887 -51.2918C155.433 -55.2081 158.48 -58.5984 161.909 -61.3323C170.506 -68.1723 180.964 -71.3713 190.969 -72.481C195.812 -73.0204 201.066 -73.3011 205.877 -71.8309C210.523 -70.4124 215.116 -68.1693 219.388 -65.5539C228.469 -59.9995 236.34 -51.8651 242.045 -41.5808C245.957 -34.5265 248.073 -27.6674 243.006 -20.5112C237.295 -12.4448 228.34 -7.99415 220.959 -2.75889C215.896 0.831756 210.222 4.35148 209.277 11.982C208.523 18.0536 207.912 23.8163 205.964 29.5555C203.064 38.0208 198.801 45.6892 193.427 52.1056C188.512 57.9512 182.295 62.9116 175.265 59.7893C169.695 57.3114 165.373 51.7599 160.507 47.791C155.084 43.3581 149.125 40.914 142.851 38.9488C137.212 37.1756 131.903 34.4509 128.258 28.6659C127.512 27.4838 126.729 26.1968 126.154 24.8743C125.42 23.1869 125.477 21.5142 125.333 19.6228C124.957 14.6314 124.16 9.69756 123.519 4.7667Z" stroke="#F1B170" stroke-width="0.897114"/>
<path fill-rule="evenodd" clip-rule="evenodd" d="M129.016 3.87562C129.137 -6.47263 131.176 -16.2525 136.762 -24.3171C139.15 -27.767 142.001 -30.6087 144.628 -33.77C146.744 -36.3186 148.743 -38.6866 151.176 -40.7867C156.946 -45.7596 161.636 -52.1947 167.768 -56.6228C175.955 -62.5429 185.332 -65.8152 194.636 -67.1235C199.179 -67.7629 203.873 -67.9864 208.469 -67.2641C212.417 -66.644 216.198 -64.4669 219.705 -62.2395C226.58 -57.8764 233.254 -51.6752 237.718 -43.8296C247.558 -26.5327 228.157 -13.957 218.199 -6.59251C213.619 -3.20476 206.621 0.718755 204.745 7.42913C203.404 12.2229 202.588 17.098 200.861 21.7438C196.222 34.2203 186.805 48.8946 174.255 46.941C168.886 46.1063 163.991 42.7156 158.978 40.4393C153.817 38.095 148.489 36.7881 143.124 35.354C138.11 34.0146 134.114 32.1083 130.875 26.9979C129.327 24.5573 129.464 21.6358 129.326 18.6417C129.101 13.7236 128.962 8.77742 129.016 3.87562Z" stroke="#451D73" stroke-width="0.897114"/>
<path fill-rule="evenodd" clip-rule="evenodd" d="M134.022 2.55088C136.038 -13.0689 143.526 -30.1212 154.536 -39.1924C167.486 -49.863 181.517 -58.8485 196.99 -61.4316C204.164 -62.6293 212.022 -63.2186 218.792 -59.3019C223.943 -56.323 229.927 -51.8701 232.763 -45.608C239.699 -30.291 224.27 -18.0977 215.48 -11.0115C210.748 -7.19669 204.724 -3.47933 201.157 2.09156C199.087 5.32155 198.031 9.59423 196.36 13.1418C191.297 23.8921 182.962 32.5631 172.58 34.1138C167.78 34.8301 162.944 33.944 158.18 33.2395C153.303 32.5187 148.366 32.1274 143.52 31.1216C139.651 30.3182 135.092 28.9579 133.667 23.9054C131.87 17.5385 133.199 8.92963 134.022 2.55088Z" stroke="#3E4AF6" stroke-width="0.897114"/>
<path fill-rule="evenodd" clip-rule="evenodd" d="M138.931 0.041517C141.872 -14.6437 148.098 -28.9682 158.565 -37.735C164.116 -42.3837 170.559 -45.5927 176.746 -48.7633C183.758 -52.3566 191.085 -55.1459 198.568 -56.5294C207.885 -58.2529 222.975 -59.8064 227.843 -46.8506C232.674 -33.9909 220.465 -22.6093 213.245 -16.1233C208.616 -11.9683 203.662 -8.1547 199.24 -3.61242C196.842 -1.14985 194.994 1.69554 192.965 4.5838C187.356 12.5864 179.36 18.9216 171.21 22.3036C163.31 25.5821 153.538 27.0336 145.2 25.9501C141.602 25.4845 139.031 23.9133 137.943 19.4464C136.435 13.2368 137.716 6.10775 138.931 0.041517Z" stroke="#F1B170" stroke-width="0.897114"/>
<path fill-rule="evenodd" clip-rule="evenodd" d="M143.808 -3.9157C146.729 -16.8455 153.03 -28.6551 162.22 -36.4153C172.521 -45.1146 185.786 -49.9486 197.978 -52.4067C204.458 -53.7124 218.502 -57.2525 221.805 -47.1209C225.108 -36.9893 215.559 -27.005 210.063 -21.5087C203.393 -14.848 196.201 -8.41698 189.018 -2.44079C182.777 2.75526 176.117 8.06759 169.357 12.0802C165.544 14.3565 161.573 16.2151 157.489 17.6339C154.465 18.6761 150.62 20.2305 147.45 19.4547C139.454 17.4955 142.411 2.26656 143.808 -3.9157Z" stroke="#E64456" stroke-width="0.897114"/>
<path fill-rule="evenodd" clip-rule="evenodd" d="M149.83 -7.78225C156.239 -32.234 176.544 -44.2598 196.096 -48.4514C200.639 -49.4244 213.374 -52.9325 215.914 -45.4631C218.375 -38.221 210.548 -29.6324 206.884 -25.5633C195.531 -12.9543 181.504 -3.60533 168.212 5.65652C164.063 8.54744 156.58 14.8209 151.433 11.9271C145.845 8.77924 148.502 -2.71207 149.83 -7.78225Z" stroke="#3E4AF6" stroke-width="0.897114"/>
<path fill-rule="evenodd" clip-rule="evenodd" d="M156.394 -12.4901C161.968 -30.4969 178.179 -40.8245 193.084 -44.2292C196.734 -45.0622 206.006 -47.656 208.771 -42.631C211.329 -37.9827 205.223 -31.2473 202.939 -28.5708C197.853 -22.6109 191.825 -17.7011 185.871 -12.9819C180.365 -8.61572 174.8 -4.14022 169.007 -0.447563C165.956 1.49625 160.233 5.64384 156.765 2.64245C153.032 -0.586407 155.157 -8.49165 156.394 -12.4901Z" stroke="#3E4AF6" stroke-width="0.897114"/>
<path fill-rule="evenodd" clip-rule="evenodd" d="M-22.8135 17.7488C-22.967 6.21268 -27.9899 -5.77659 -25.5093 -17.5312C-23.4723 -27.1852 -13.2174 -27.9912 -7.06541 -32.365C-2.17671 -35.8398 0.597673 -41.9954 3.24149 -47.9014C5.61694 -53.2038 7.75061 -58.6655 10.253 -63.8807C11.8729 -67.2523 14.6545 -73.8728 18.1675 -73.9924C21.5306 -74.1075 24.6145 -68.9484 26.568 -65.8986C29.1151 -61.9234 31.3733 -57.6853 33.8467 -53.6466C38.0149 -46.8342 43.016 -41.7917 48.7425 -37.0193C55.2592 -31.589 61.8834 -26.3443 68.6153 -21.285C73.5717 -17.5489 78.5619 -13.8408 83.3261 -9.73563C86.3145 -7.15975 92.9101 -2.32683 92.9403 2.42193C92.9548 4.68782 91.1959 7.19727 90.01 9.00851C88.0033 12.0745 85.7161 14.8777 83.4216 17.6204C79.1482 22.7293 74.6935 27.6065 70.2872 32.5427C64.5679 38.9492 59.105 45.2509 54.0773 52.5239C48.8791 60.0522 43.913 67.8286 38.8454 75.4987C35.4134 80.6947 31.985 86.5299 27.0347 89.7184C20.8343 93.704 15.7449 89.5014 9.47447 89.4527C4.08045 89.4099 4.47818 74.1524 3.79274 69.91C3.10489 65.6158 1.58895 61.6184 1.00144 57.314C0.268858 51.9408 0.259184 46.4436 0.0790611 41.0129C-0.139746 34.3702 -0.226783 28.0464 -6.0427 25.5133C-9.35261 24.0741 -12.9333 23.7715 -16.3593 22.9094C-18.5788 22.3499 -22.7651 21.3934 -22.8135 17.7488Z" stroke="#E64456" stroke-width="0.897114"/>
<path fill-rule="evenodd" clip-rule="evenodd" d="M-20.1616 15.6998C-20.727 6.02967 -24.0674 -6.34734 -20.9086 -16.3294C-18.21 -24.8596 -9.7701 -25.9655 -4.08702 -30.4464C0.604484 -34.1424 2.69296 -40.1905 5.03811 -46.1321C6.91955 -50.8984 8.7441 -55.7105 10.8798 -60.3245C12.4537 -63.7248 14.857 -69.4654 18.1295 -70.1691C21.0716 -70.8018 24.2267 -65.7339 25.8781 -63.1556C28.2874 -59.3917 30.348 -55.304 32.4765 -51.302C36.2163 -44.2723 40.0458 -37.9507 45.5195 -32.7867C51.0173 -27.6006 57.0321 -23.7228 63.1111 -19.6868C67.8668 -16.529 72.5982 -13.2795 77.1166 -9.63378C80.4824 -6.91948 85.3216 -3.44528 86.8616 1.39494C88.0808 5.22395 81.8977 11.578 80.0744 13.8207C76.3212 18.4318 72.344 22.7605 68.3595 27.0626C63.5021 32.3049 58.4898 36.8894 54.2003 42.8695C46.528 53.5611 40.1148 66.8754 30.2427 74.8217C24.2884 79.6146 17.6622 80.8402 11.0396 80.1232C8.4172 79.8393 7.78764 75.3199 7.45711 72.684C6.90745 68.305 6.83844 63.8507 6.4159 59.4539C6.02 55.3381 5.14102 51.4278 4.43275 47.3918C3.71601 43.3026 3.51503 39.1129 2.98716 34.9956C2.66027 32.4395 2.33701 29.465 0.907161 27.41C-0.572328 25.2826 -3.01313 24.3912 -5.1464 23.7141C-9.15264 22.4545 -19.7621 22.524 -20.1616 15.6998Z" stroke="#451D73" stroke-width="0.897114"/>
<path fill-rule="evenodd" clip-rule="evenodd" d="M-16.7482 11.6518C-17.6991 2.77543 -19.0303 -8.28023 -15.1565 -16.4583C-11.9902 -23.1451 -5.23708 -24.5876 -0.413619 -28.9446C3.59826 -32.5678 5.11361 -38.3304 7.10502 -43.6855C8.73908 -48.078 10.3816 -52.4896 12.3621 -56.6694C13.8642 -59.8394 15.7998 -64.1373 18.7821 -65.2432C21.3319 -66.1881 24.2124 -61.9551 25.626 -59.8482C28.0329 -56.2575 29.9952 -52.2342 31.9442 -48.264C35.1324 -41.7676 38.0662 -34.8283 42.6038 -29.5441C47.013 -24.4164 52.2507 -21.3896 57.5866 -17.9864C61.6736 -15.379 65.7351 -12.6712 69.5859 -9.56179C72.5427 -7.17585 76.2069 -4.34844 77.7477 -0.378269C79.0802 3.04562 75.6594 7.09848 73.9502 9.51395C71.1279 13.5004 67.9954 17.1575 64.9066 20.8295C61.573 24.7908 57.8809 28.445 54.6552 32.5038C47.8718 41.045 42.4524 50.5017 34.0919 57.0453C28.6773 61.2842 21.3913 65.1348 14.9907 64.4423C10.3877 63.9433 10.6905 51.5086 10.2484 47.5355C9.52159 41.0391 8.11767 34.2135 5.88764 28.2294C3.97255 23.1017 -0.578355 21.5204 -4.76466 20.3703C-7.38716 19.6483 -10.1356 19.2585 -12.6721 18.1423C-15.6084 16.849 -16.3497 15.3725 -16.7482 11.6518Z" stroke="#3E4AF6" stroke-width="0.897114"/>
<path fill-rule="evenodd" clip-rule="evenodd" d="M-13.5651 7.48998C-14.1313 -0.0145883 -14.004 -8.88887 -10.3367 -15.3806C-7.12275 -21.0668 -1.4005 -22.5638 2.66934 -27.0432C5.84568 -30.5378 7.09318 -36.2358 8.80137 -40.8573C10.889 -46.508 13.8144 -56.9445 19.0808 -59.0709C23.9799 -61.0477 29.1033 -48.4196 30.8769 -44.654C33.6847 -38.6939 36.033 -32.1578 39.4385 -26.6537C42.3711 -21.9152 46.3004 -19.2958 50.4708 -16.4808C55.7881 -12.8855 63.8611 -8.62233 66.7041 -1.61531C68.8233 3.60591 61.9323 11.3681 59.5791 14.9857C57.1181 18.7646 55.2644 23.2439 52.7246 26.8896C48.7165 32.6424 42.222 37.2743 36.8598 40.8089C31.6468 44.2473 24.877 48.0528 18.9632 47.8263C15.0765 47.6782 14.3369 40.3513 13.5077 36.7723C12.3196 31.6844 10.7399 27.1251 7.34656 23.6645C3.89259 20.1417 -0.178455 18.4818 -4.45803 17.0291C-6.65479 16.2887 -9.1607 15.7112 -11.1259 14.2157C-13.2972 12.5883 -13.3469 10.3745 -13.5651 7.48998Z" stroke="#F1B170" stroke-width="0.897114"/>
<path fill-rule="evenodd" clip-rule="evenodd" d="M-9.68619 3.16585C-9.65477 -3.31754 -8.44031 -10.2312 -4.83925 -15.2322C-1.83997 -19.3978 2.85472 -20.7903 5.7259 -25.0487C8.00014 -28.4201 9.15779 -33.1529 10.6804 -37.068C12.5426 -41.8657 15.1757 -50.247 19.8063 -51.912C24.3258 -53.5329 28.3232 -44.3014 30.0561 -40.6486C32.5937 -35.2925 34.648 -29.6151 37.2087 -24.2736C39.2146 -20.083 41.6677 -17.3821 44.934 -14.6812C48.7683 -11.5087 54.118 -7.99442 56.1662 -2.74582C57.6429 1.05433 54.0684 7.12662 52.7706 10.4744C51.9005 12.723 51.1042 15.0069 50.6668 17.4441C50.326 19.3419 50.2921 21.0983 49.3049 22.728C46.8192 26.8273 41.3692 27.3622 37.6715 28.7134C32.7605 30.5066 27.5498 32.5445 22.4105 32.9335C19.2517 33.1766 17.6396 29.624 15.8367 27.1249C13.7063 24.1706 10.6901 22.0458 8.05572 19.8164C4.57912 16.8694 0.79558 15.0364 -3.11847 13.1591C-4.88396 12.3119 -6.95759 11.4808 -8.32551 9.7966C-9.75386 8.0505 -9.69706 5.50577 -9.68619 3.16585Z" stroke="#E64456" stroke-width="0.897114"/>
<path fill-rule="evenodd" clip-rule="evenodd" d="M-5.61163 -0.684303C-4.98746 -6.12948 -3.04235 -11.3338 0.243047 -15.1831C2.76153 -18.1384 6.1062 -19.8023 8.12751 -23.3531C10.0109 -26.663 11.3234 -30.4266 12.879 -33.9656C14.5253 -37.707 16.9712 -43.9605 20.7683 -44.9786C24.8605 -46.075 28.0129 -39.7669 29.7584 -36.2708C31.9636 -31.8526 33.6389 -27.0989 35.6106 -22.5285C37.096 -19.122 38.9908 -16.0065 41.2319 -13.2858C43.5822 -10.4176 46.7696 -7.67067 47.9587 -3.7268C49.0099 -0.233615 47.043 3.99249 46.6958 7.53444C46.3245 11.3187 46.9753 15.2936 44.9164 18.543C40.6706 25.2442 30.0148 24.0015 23.9231 24.1448C17.9123 24.2926 13.0798 20.1921 8.21582 16.291C5.003 13.7155 1.65712 11.5345 -1.63674 9.13474C-4.99472 6.68626 -6.16081 4.10774 -5.61163 -0.684303Z" stroke="#3E4AF6" stroke-width="0.897114"/>
<path fill-rule="evenodd" clip-rule="evenodd" d="M-1.82705 -3.79892C0.0187779 -11.6874 5.78381 -15.8801 9.90514 -21.8416C13.2773 -26.722 15.8057 -36.8288 21.4848 -38.1657C27.9325 -39.6831 31.7924 -26.2916 34.034 -21.1243C36.5213 -15.3935 40.9513 -10.732 42.7935 -4.66556C43.7618 -1.48147 42.9303 1.48965 42.4147 4.67225C41.8494 8.16691 41.4246 11.7399 39.4734 14.5528C35.6329 20.0884 28.1322 20.0499 22.7303 20.2022C17.1384 20.3605 12.1915 16.5671 7.73614 12.7811C3.01083 8.77178 -3.71766 4.2907 -1.82705 -3.79892Z" stroke="#3E4AF6" stroke-width="0.897114"/>
<path fill-rule="evenodd" clip-rule="evenodd" d="M1.265 -5.93939C3.3449 -11.5597 7.71562 -16.1289 11.2622 -20.4422C14.2223 -24.0382 17.4068 -31.2771 21.9202 -31.7931C27.2248 -32.4017 30.4397 -24.6718 32.5269 -19.9321C34.5812 -15.2747 37.5414 -10.3571 38.6788 -5.24549C39.8651 0.0793226 36.7062 7.25061 33.6937 11.0186C30.3336 15.2202 24.8364 16.7726 20.1194 16.605C15.1806 16.4345 10.6489 12.9621 6.90853 9.36025C2.90966 5.50998 -1.15383 0.585046 1.265 -5.93939Z" stroke="#E64456" stroke-width="0.897114"/>
<path fill-rule="evenodd" clip-rule="evenodd" d="M4.13389 -6.99835C6.12063 -11.6729 9.56447 -15.6273 12.7398 -19.1546C15.1903 -21.8778 18.8062 -26.5082 22.3416 -26.6216C26.2309 -26.7468 29.527 -22.8602 31.0732 -18.8763C32.5975 -14.9469 34.2034 -10.0205 34.4316 -5.70967C34.9271 3.6778 24.8397 14.1934 17.2649 13.3377C10.0831 12.5262 0.172617 2.31548 4.13389 -6.99835Z" stroke="#3E4AF6" stroke-width="0.897114"/>
<path fill-rule="evenodd" clip-rule="evenodd" d="M6.7869 -7.51464C9.52772 -13.6053 16.1852 -22.2883 22.3487 -22.4945C29.4233 -22.7301 31.1993 -13.0676 30.2772 -6.06527C29.3404 1.08145 21.1838 11.4259 14.68 10.0281C8.33235 8.66416 3.53866 -0.291332 6.7869 -7.51464Z" stroke="#451D73" stroke-width="0.897114"/>
<path fill-rule="evenodd" clip-rule="evenodd" d="M9.58747 -8.50191C11.908 -13.6015 16.8599 -19.9712 22.0246 -20.164C28.1785 -20.3921 28.0624 -12.2342 26.667 -7.15674C25.2159 -1.88497 18.825 7.11912 13.4365 5.69742C8.19683 4.30957 7.36365 -3.61427 9.58747 -8.50191Z" stroke="#E64456" stroke-width="0.897114"/>
<path fill-rule="evenodd" clip-rule="evenodd" d="M12.0276 -9.08787C13.5593 -12.7267 17.3929 -17.3257 21.0373 -17.4728C25.4918 -17.6497 24.6258 -11.1793 23.4749 -8.05629C22.1069 -4.34021 17.5214 2.11684 13.6733 1.07039C9.88462 0.0402957 10.7639 -6.08974 12.0276 -9.08787Z" stroke="#3E4AF6" stroke-width="0.897114"/>
</g>
</g>
<path d="M78.2878 44.6211H87.4713C91.9192 44.6211 94.8496 42.0047 94.8496 38.3941C94.8496 35.987 93.4367 35.0451 91.8407 34.6788V34.6265C94.0123 34.077 95.713 32.3502 95.713 29.917C95.713 27.3791 93.8553 25.9139 90.3494 25.9139H81.9246L78.2878 44.6211ZM84.4887 33.5537L85.2997 29.2629H89.2505C90.7942 29.2629 91.5529 29.7076 91.5529 30.9635C91.5529 32.6118 90.2447 33.5537 88.2824 33.5537H84.4887ZM82.9973 41.2721L83.9654 36.1963H88.1778C89.9831 36.1963 90.8727 36.6934 90.8727 38.2371C90.8727 40.1732 89.4075 41.2721 86.9219 41.2721H82.9973ZM104.866 45.0136C111.485 45.0136 115.698 39.5976 115.698 33.2921C115.698 28.5564 112.794 25.5214 107.692 25.5214C101.124 25.5214 96.8859 30.8589 96.8859 37.2429C96.8859 41.9785 99.7901 45.0136 104.866 45.0136ZM105.075 41.6907C102.223 41.6907 100.941 39.8331 100.941 37.1644C100.941 32.9781 103.348 28.8442 107.535 28.8442C110.334 28.8442 111.668 30.7019 111.668 33.3706C111.668 37.5307 109.261 41.6907 105.075 41.6907ZM116.128 44.6211H119.948L122.408 31.9054H122.512L124.187 44.6211H127.065L133.658 31.9054H133.737L131.277 44.6211H135.097L138.734 25.9139H133.501L126.646 39.2313H126.594L124.763 25.9139H119.765L116.128 44.6211ZM138.281 44.6211H147.464C151.912 44.6211 154.843 42.0047 154.843 38.3941C154.843 35.987 153.43 35.0451 151.834 34.6788V34.6265C154.005 34.077 155.706 32.3502 155.706 29.917C155.706 27.3791 153.848 25.9139 150.342 25.9139H141.918L138.281 44.6211ZM144.482 33.5537L145.293 29.2629H149.244C150.787 29.2629 151.546 29.7076 151.546 30.9635C151.546 32.6118 150.238 33.5537 148.276 33.5537H144.482ZM142.99 41.2721L143.958 36.1963H148.171C149.976 36.1963 150.866 36.6934 150.866 38.2371C150.866 40.1732 149.401 41.2721 146.915 41.2721H142.99ZM167.509 40.4872L168.033 44.6211H172.245L168.896 25.9139H164.736L154.244 44.6211H158.431L160.576 40.4872H167.509ZM162.172 37.3475L166.149 29.6292H166.201L167.169 37.3475H162.172ZM172.317 25.9139L176.555 37.5045L175.169 44.6211H179.198L180.584 37.5045L189.297 25.9139H184.98L179.172 34.234H179.119L176.608 25.9139H172.317Z" fill="white"/>
</svg>
