<?xml version="1.0" encoding="UTF-8" standalone="no"?><!DOCTYPE svg PUBLIC "-//W3C//DTD SVG 1.1//EN" "http://www.w3.org/Graphics/SVG/1.1/DTD/svg11.dtd"><svg width="100%" height="100%" viewBox="0 0 461 260" version="1.1" xmlns="http://www.w3.org/2000/svg" xmlns:xlink="http://www.w3.org/1999/xlink" xml:space="preserve" xmlns:serif="http://www.serif.com/" style="fill-rule:evenodd;clip-rule:evenodd;stroke-linejoin:round;stroke-miterlimit:2;"><path d="M65.428,161.385c-23.771,-0 -43.071,-19.299 -43.071,-43.071c0,-23.771 19.3,-43.071 43.071,-43.071c23.772,0 43.071,19.3 43.071,43.071c-0,0.05 -0,0.1 -0,0.147c-0,15.452 -4.352,26.149 -2.234,41.455c-15.257,-2.448 -24.973,1.424 -40.425,1.468l-0.412,0.001Zm0.033,-56.224c7.358,-0 13.332,5.974 13.332,13.332c-0,7.358 -5.974,13.332 -13.332,13.332c-7.358,-0 -13.332,-5.974 -13.332,-13.332c-0,-7.358 5.974,-13.332 13.332,-13.332Z" style="fill:#fff;"/><g><path d="M176.425,118.813c-6.49,-0 -10.009,3.044 -13.447,7.025l-0.156,-0c-1.561,-4.137 -5.231,-7.025 -10.462,-7.025c-6.02,-0 -10.399,3.356 -12.51,7.025l-0.156,-0l-0,-5.775l-12.492,-0l0,39.994l12.492,-0l-0,-23.127c-0,-5.548 2.58,-7.97 6.49,-7.97c4.457,0 5.708,2.032 5.708,8.048l-0,23.049l12.491,-0l0,-23.127c0,-5.548 2.503,-7.97 6.491,-7.97c4.457,0 5.708,2.032 5.708,8.048l-0,23.049l12.647,-0l0,-27.034c0,-9.137 -4.762,-14.21 -12.804,-14.21Z" style="fill:#fff;fill-rule:nonzero;"/><path d="M214.627,161.307c-13.356,-0 -21.403,-8.827 -21.403,-21.247c-0,-12.42 8.047,-21.247 21.403,-21.247c13.278,-0 21.325,8.827 21.325,21.247c0,12.42 -8.047,21.247 -21.325,21.247Zm0,-9.374c5.466,0 8.824,-4.14 8.824,-11.873c0,-7.734 -3.358,-11.874 -8.824,-11.874c-5.544,0 -8.902,4.14 -8.902,11.874c-0,7.733 3.358,11.873 8.902,11.873Z" style="fill:#fff;fill-rule:nonzero;"/><path d="M266.043,118.813c-7.115,-0 -11.025,3.356 -13.136,7.025l-0.156,-0l-0,-5.775l-12.492,-0l0,39.994l12.492,-0l-0,-23.127c-0,-5.548 2.736,-7.97 7.506,-7.97c4.144,0 6.255,2.032 6.255,8.048l-0,23.049l12.491,-0l0,-27.034c0,-9.137 -5.231,-14.21 -12.96,-14.21Z" style="fill:#fff;fill-rule:nonzero;"/><path d="M312.141,104.202l-0,19.84l-0.157,0c-1.563,-2.107 -5.785,-5.229 -11.57,-5.229c-10.624,-0 -17.416,8.117 -17.416,21.247c-0,13.129 6.792,21.247 17.416,21.247c5.785,-0 10.007,-3.122 11.57,-5.23l0.157,0l-0,3.98l12.491,-0l0,-55.855l-12.491,-0Zm-8.443,47.739c-5.082,-0 -8.209,-4.065 -8.209,-11.881c-0,-7.817 3.127,-11.881 8.209,-11.881c5.081,-0 8.208,4.064 8.208,11.881c0,7.816 -3.127,11.881 -8.208,11.881Z" style="fill:#fff;fill-rule:nonzero;"/><path d="M350.03,151.941c-4.456,-0 -8.599,-2.973 -8.599,-8.605l28.752,0c0,-14.531 -6.948,-24.523 -20.622,-24.523c-12.737,-0 -20.622,9.054 -20.622,21.246c0,12.506 8.042,21.248 21.326,21.248c10.862,-0 17.108,-5.309 19.294,-13.351l-12.415,-0c-0.781,1.951 -2.814,3.985 -7.114,3.985Zm-0.469,-24.544c4.769,0 8.131,2.816 8.131,8.37l-16.261,0c-0,-5.554 3.361,-8.37 8.13,-8.37Z" style="fill:#fff;fill-rule:nonzero;"/><path d="M396.904,119.36c-4.375,-0 -7.813,2.806 -9.766,7.25l-0.156,-0l-0,-6.547l-12.492,-0l0,39.994l12.492,-0l-0,-18.605c-0,-8.521 6.797,-12.036 13.204,-10.866l0.156,0l0,-10.914c-1.406,-0.312 -2.344,-0.312 -3.438,-0.312Z" style="fill:#fff;fill-rule:nonzero;"/><path d="M423.945,134.823c-6.177,-1.329 -8.68,-1.407 -8.68,-4.221c0,-1.954 1.799,-3.205 5.318,-3.205c4.066,0 5.786,1.72 6.177,4.925l11.711,-0c-0.39,-7.032 -5.386,-13.509 -18.201,-13.509c-11.25,-0 -17.496,5.541 -17.496,12.805c-0,8.364 7.495,10.865 14.29,12.35c6.334,1.407 10.087,1.876 10.087,5.315c0,2.267 -1.955,3.439 -5.474,3.439c-4.926,-0 -7.583,-1.954 -7.973,-5.94l-11.711,-0c0.39,8.125 5.856,14.525 20.154,14.525c11.094,-0 17.495,-4.605 17.495,-13.04c0,-9.067 -7.807,-11.725 -15.697,-13.444Z" style="fill:#fff;fill-rule:nonzero;"/></g></svg>