<?xml version="1.0" encoding="UTF-8" standalone="no"?><!DOCTYPE svg PUBLIC "-//W3C//DTD SVG 1.1//EN" "http://www.w3.org/Graphics/SVG/1.1/DTD/svg11.dtd"><svg width="100%" height="100%" viewBox="0 0 192 192" version="1.1" xmlns="http://www.w3.org/2000/svg" xmlns:xlink="http://www.w3.org/1999/xlink" xml:space="preserve" xmlns:serif="http://www.serif.com/" style="fill-rule:evenodd;clip-rule:evenodd;stroke-linecap:round;stroke-linejoin:round;stroke-miterlimit:1.5;"><rect id="Plan-de-travail1" serif:id="Plan de travail1" x="0" y="0" width="192" height="192" style="fill:none;"/><g id="Plan-de-travail11" serif:id="Plan de travail1"><path d="M94.854,178.331c-46.572,0 -84.383,-37.81 -84.383,-84.383c0,-46.572 37.811,-84.383 84.383,-84.383c46.573,0 84.383,37.811 84.383,84.383c0,0.098 0,0.196 -0,0.288c-0,30.273 -8.527,51.231 -4.376,81.218c-29.89,-4.797 -48.926,2.789 -79.199,2.876l-0.808,0.001Zm0.065,-110.152c14.415,-0 26.119,11.703 26.119,26.119c0,14.416 -11.704,26.12 -26.119,26.12c-14.416,-0 -26.12,-11.704 -26.12,-26.12c-0,-14.416 11.704,-26.119 26.12,-26.119Z" style="fill:#fff;stroke:#fff;stroke-width:0.24px;"/></g></svg>